SplineFontDB: 3.2
FontName: Tihana
FullName: Tihana
FamilyName: Tihana
Weight: Regular
Copyright: Copyright (c) 2020. Vesko Radic
UComments: "2020-8-4: Created with FontForge (http://fontforge.org)"
FontLog: "[0.1.1] - 19. 2. 2021.+AAoACgAA-Only minor correction of quotation marks and commas.+AAoACgAA[0.1] - 20. 9. 2020.+AAoACgAA-Initial release.+AAoACgAA-Completely covered Unicode blocks: Basic Latin, Latin-1 Supplement, Latin Extended-A and Cyrillic. Latin Extended-B is partialy covered and there is also a bunch of some other glyphs. Serbian and English characters have five variation each.+AAoA"
Version: 0.1
ItalicAngle: 0
UnderlinePosition: -100
UnderlineWidth: 50
Ascent: 800
Descent: 200
InvalidEm: 0
LayerCount: 2
Layer: 0 0 "Back" 1
Layer: 1 0 "Fore" 0
XUID: [1021 710 1757882239 13214621]
StyleMap: 0x0040
FSType: 0
OS2Version: 0
OS2_WeightWidthSlopeOnly: 0
OS2_UseTypoMetrics: 1
CreationTime: 1596576781
ModificationTime: 1613768245
PfmFamily: 33
TTFWeight: 400
TTFWidth: 5
LineGap: 90
VLineGap: 0
OS2TypoAscent: 0
OS2TypoAOffset: 1
OS2TypoDescent: 0
OS2TypoDOffset: 1
OS2TypoLinegap: 90
OS2WinAscent: 0
OS2WinAOffset: 1
OS2WinDescent: 0
OS2WinDOffset: 1
HheadAscent: 0
HheadAOffset: 1
HheadDescent: 0
HheadDOffset: 1
OS2FamilyClass: 2048
OS2Vendor: '    '
Lookup: 3 0 0 "'rand' Randomize in lookup 0" { "'rand' Randomize in lookup 0-1"  } ['rand' ('cyrl' <'SRB ' 'dflt' > 'latn' <'ENG ' 'SRB ' 'dflt' > ) ]
Lookup: 258 0 0 "'kern' Horizontal Kerning lookup 0" { "'kern' Horizontal Kerning lookup 0-1" [150,15,6] } ['kern' ('DFLT' <'dflt' > 'cyrl' <'SRB ' 'dflt' > 'latn' <'ENG ' 'SRB ' 'dflt' > ) ]
MarkAttachClasses: 1
DEI: 91125
KernClass2: 32 29 "'kern' Horizontal Kerning lookup 0-1"
 185 O Ograve Oacute Ocircumflex Otilde Odieresis Omacron Obreve Ohungarumlaut uni01D1 uni01EA uni01EC uni020C uni020E uni022A uni022C uni022E uni0230 uni041E uniE011 uniE031 uniE051 uniE071

StartChar: uni0410
Encoding: 1040 1040 0
Width: 460
VWidth: 980
Flags: W
HStem: 187 28<95 365> 555 28<171.292 278.085>
VStem: 60 35<14.1897 187 215 394.786> 365 35<14.1897 187 215 403.768>
LayerCount: 2
Fore
SplineSet
95 215 m 1
 365 215 l 1
 365 323 360 436 320 500 c 0
 298 535 268 555 223 555 c 0
 176 555 156 538 138 508 c 0
 126 489 117 463 111 434 c 0
 97 370 95 291 95 215 c 1
84 14 m 0
 73 7 60 8 60 18 c 0
 60 77 60 137 60 196 c 0
 60 346 64 504 158 562 c 0
 182 577 208 583 237 583 c 0
 293 583 329 558 353 520 c 0
 399 446 400 321 400 207 c 0
 400 148 400 89 400 30 c 0
 400 25 396 18 389 14 c 0
 378 7 365 8 365 18 c 2
 365 187 l 1
 95 187 l 1
 95 30 l 2
 95 25 91 18 84 14 c 0
EndSplineSet
Validated: 1
AlternateSubs2: "'rand' Randomize in lookup 0-1" uniE000 uniE020 uniE040 uniE060
EndChar

StartChar: uni0411
Encoding: 1041 1041 1
Width: 429
VWidth: 980
Flags: W
HStem: 5 29<80 189.78> 373 29<80 178.282> 550 29<80 373.766>
VStem: 45 35<34 373 402 550> 350 35<131.341 255.415>
LayerCount: 2
Fore
SplineSet
45 559 m 0
 45 569 58 579 70 579 c 2
 375 579 l 2
 382 579 384 576 384 572 c 0
 384 566 379 557 374 554 c 0
 369 551 364 550 360 550 c 2
 80 550 l 1
 80 402 l 1
 232 399 385 339 385 202 c 0
 385 123 330 76 274 48 c 0
 210 17 131 5 55 5 c 0
 49 5 45 7 45 14 c 0
 45 196 45 377 45 559 c 0
80 34 m 1
 182 35 281 58 327 117 c 0
 341 136 350 161 350 191 c 0
 350 309 218 367 80 373 c 1
 80 34 l 1
EndSplineSet
Validated: 1
AlternateSubs2: "'rand' Randomize in lookup 0-1" uniE001 uniE021 uniE041 uniE061
EndChar

StartChar: uni0412
Encoding: 1042 1042 2
Width: 425
VWidth: 980
Flags: W
HStem: 9 31<76 195.818> 284 30<76 137.551 176 305.603> 554 30<76 203.923>
VStem: 45 31<40 281 312 554> 243 31<418.743 526.222> 350 30<142.118 247.161>
LayerCount: 2
Fore
SplineSet
76 312 m 1
 169 319 243 395 243 488 c 0
 243 503 240 513 233 521 c 0
 207 552 136 554 76 554 c 1
 76 312 l 1
350 201 m 0
 350 279 271 284 193 284 c 0
 154 284 112 281 76 281 c 1
 76 40 l 1
 169 42 259 64 309 109 c 0
 335 133 350 162 350 201 c 0
192 314 m 2
 290 314 380 298 380 201 c 0
 380 153 360 115 329 86 c 0
 267 29 161 9 60 9 c 0
 52 9 45 16 45 24 c 2
 45 569 l 2
 45 577 52 584 60 584 c 0
 137 584 219 584 256 540 c 0
 268 526 274 509 274 488 c 0
 274 414 234 350 176 314 c 1
 192 314 l 2
EndSplineSet
Validated: 1
AlternateSubs2: "'rand' Randomize in lookup 0-1" uniE002 uniE022 uniE042 uniE062
EndChar

StartChar: uni0413
Encoding: 1043 1043 3
Width: 410
VWidth: 980
Flags: W
HStem: 9 21G<48 56> 554 30<69 342>
VStem: 38 31<9.08057 554> 342 30<473.046 554>
LayerCount: 2
Fore
SplineSet
342 554 m 1
 69 554 l 1
 69 24 l 2
 69 16 60 9 52 9 c 4
 44 9 38 16 38 24 c 2
 38 569 l 2
 38 577 44 584 52 584 c 2
 358 584 l 2
 366 584 372 577 372 569 c 2
 372 488 l 2
 372 480 366 473 358 473 c 0
 350 473 342 480 342 488 c 2
 342 554 l 1
EndSplineSet
Validated: 1
AlternateSubs2: "'rand' Randomize in lookup 0-1" uniE003 uniE023 uniE043 uniE063
EndChar

StartChar: uni0414
Encoding: 1044 1044 4
Width: 500
VWidth: 980
Flags: W
HStem: 10 29<73 118 153 348 383 428> 555 28<153 348>
VStem: 38 35<-95.8103 10> 118 35<39 555> 348 35<39 555> 428 35<-95.8103 10>
LayerCount: 2
Fore
SplineSet
153 39 m 1
 348 39 l 1
 348 555 l 1
 153 555 l 1
 153 39 l 1
62 -96 m 0
 51 -103 38 -102 38 -92 c 2
 38 18 l 2
 38 27 50 39 62 39 c 2
 118 39 l 1
 118 563 l 2
 118 572 130 583 142 583 c 2
 372 583 l 2
 378 583 383 581 383 575 c 2
 383 39 l 1
 452 39 l 2
 458 39 463 36 463 30 c 2
 463 -80 l 2
 463 -85 459 -92 452 -96 c 0
 441 -103 428 -102 428 -92 c 2
 428 10 l 1
 362 10 l 1
 359 9 356 9 354 10 c 1
 132 10 l 1
 129 9 126 9 124 10 c 1
 73 10 l 1
 73 -80 l 2
 73 -85 69 -92 62 -96 c 0
EndSplineSet
Validated: 1
AlternateSubs2: "'rand' Randomize in lookup 0-1" uniE004 uniE024 uniE044 uniE064
EndChar

StartChar: uni0415
Encoding: 1045 1045 5
Width: 460
VWidth: 980
Flags: W
HStem: 10 29<95 398.508> 187 28<95 291.051> 555 28<95 398.194>
VStem: 60 35<39 187 215 555>
LayerCount: 2
Fore
SplineSet
400 30 m 0
 400 21 387 10 375 10 c 2
 70 10 l 2
 64 10 60 12 60 18 c 2
 60 563 l 2
 60 572 73 583 85 583 c 2
 390 583 l 2
 397 583 400 580 400 575 c 0
 400 566 387 555 375 555 c 2
 95 555 l 1
 95 215 l 1
 283 215 l 2
 290 215 293 212 293 207 c 0
 293 199 280 187 269 187 c 2
 95 187 l 1
 95 39 l 1
 390 39 l 2
 397 39 400 35 400 30 c 0
EndSplineSet
Validated: 1
AlternateSubs2: "'rand' Randomize in lookup 0-1" uniE006 uniE026 uniE046 uniE066
EndChar

StartChar: uni0416
Encoding: 1046 1046 6
Width: 578
VWidth: 980
Flags: W
HStem: 10 21G<84 92.5> 170 31<307 359.449> 563 20G<98.5 107>
VStem: 30 36<345.746 514.866> 77 35<11.3673 78.2595> 271 36<40.1904 170 202 483.81> 466 35<14.2358 67.3717> 512 36<340.525 511.281>
LayerCount: 2
Fore
SplineSet
77 18 m 0
 77 86 148 158 208 182 c 1
 147 200 99 240 68 290 c 0
 44 329 30 375 30 423 c 0
 30 473 45 525 80 572 c 0
 85 579 95 583 102 583 c 0
 112 583 114 575 109 566 c 0
 80 526 66 480 66 434 c 0
 66 309 161 214 271 202 c 1
 271 468 l 2
 271 473 276 480 283 484 c 0
 294 491 307 489 307 479 c 2
 307 201 l 1
 393 205 451 252 484 312 c 0
 502 345 512 383 512 422 c 0
 512 462 502 504 478 543 c 0
 473 551 467 557 467 564 c 0
 467 568 470 573 478 579 c 0
 487 584 496 585 500 580 c 0
 533 535 548 484 548 434 c 0
 548 332 492 254 422 212 c 0
 406 202 389 194 371 188 c 1
 437 163 486 108 501 32 c 0
 502 26 498 19 490 14 c 0
 480 8 468 9 466 17 c 0
 452 99 385 159 307 170 c 1
 307 57 l 2
 307 52 302 44 295 40 c 0
 284 33 271 35 271 45 c 2
 271 172 l 1
 241 170 213 161 191 147 c 0
 152 123 122 82 112 28 c 0
 110 19 98 10 87 10 c 0
 81 10 77 13 77 18 c 0
EndSplineSet
Validated: 1
AlternateSubs2: "'rand' Randomize in lookup 0-1" uniE007 uniE027 uniE047 uniE067
EndChar

StartChar: uni0417
Encoding: 1047 1047 7
Width: 410
VWidth: 980
Flags: W
HStem: 9 30<38.0044 183.737> 284 30<38.1549 127.026 168 297.505> 554 30<38.0044 198.341>
VStem: 236 31<419.089 525.696> 342 30<140.525 247.558>
LayerCount: 2
Fore
SplineSet
184 314 m 2
 282 314 372 299 372 201 c 0
 372 153 353 115 322 86 c 0
 260 29 153 9 52 9 c 0
 44 9 38 16 38 24 c 0
 38 32 44 39 52 39 c 0
 150 39 250 61 302 109 c 0
 328 133 342 162 342 201 c 0
 342 280 262 284 182 284 c 0
 137 284 95 281 52 281 c 0
 44 281 38 289 38 297 c 0
 38 305 44 312 52 312 c 0
 152 312 236 390 236 488 c 0
 236 503 233 513 226 521 c 0
 198 554 116 554 52 554 c 0
 44 554 38 561 38 569 c 0
 38 577 44 584 52 584 c 0
 129 584 211 584 248 540 c 0
 260 526 267 509 267 488 c 0
 267 414 226 350 168 314 c 1
 184 314 l 2
EndSplineSet
Validated: 1
AlternateSubs2: "'rand' Randomize in lookup 0-1" uniE008 uniE028 uniE048 uniE068
EndChar

StartChar: uni0418
Encoding: 1048 1048 8
Width: 455
VWidth: 980
Flags: W
HStem: 9 21G<71 78 376 384> 564 20G<71 79 377 384>
VStem: 60 31<83 583.98> 365 30<9.0051 511>
LayerCount: 2
Fore
SplineSet
60 569 m 2
 60 577 67 584 75 584 c 0
 83 584 91 577 91 569 c 2
 91 83 l 1
 367 576 l 2
 370 581 374 584 380 584 c 0
 388 584 395 577 395 569 c 2
 395 24 l 2
 395 16 388 9 380 9 c 0
 372 9 365 16 365 24 c 2
 365 511 l 1
 89 17 l 2
 86 12 81 9 75 9 c 0
 67 9 60 16 60 24 c 2
 60 569 l 2
EndSplineSet
Validated: 1
AlternateSubs2: "'rand' Randomize in lookup 0-1" uniE009 uniE029 uniE049 uniE069
EndChar

StartChar: uni041A
Encoding: 1050 1050 9
Width: 414
VWidth: 980
Flags: W
HStem: 564 20G<364.5 369.5>
VStem: 38 35<14.1897 340 416 578.81>
LayerCount: 2
Fore
SplineSet
354 580 m 2
 359 583 363 584 366 584 c 0
 373 584 377 579 377 574 c 0
 377 569 373 562 366 558 c 2
 80 393 l 1
 376 21 l 2
 377 20 378 18 378 16 c 0
 378 7 364 -5 353 -5 c 0
 350 -5 346 -4 344 -1 c 2
 73 340 l 1
 73 30 l 2
 73 25 69 18 62 14 c 0
 51 7 38 8 38 18 c 2
 38 563 l 2
 38 568 41 575 48 579 c 0
 59 586 73 585 73 575 c 2
 73 416 l 1
 354 580 l 2
EndSplineSet
Validated: 1
AlternateSubs2: "'rand' Randomize in lookup 0-1" uniE00B uniE02B uniE04B uniE06B
EndChar

StartChar: uni041B
Encoding: 1051 1051 10
Width: 575
VWidth: 980
Flags: W
HStem: 5 31<80.3861 153.014> 9 21G<444 452> 554 30<206 432>
VStem: 38 30<49.347 119.855> 176 30<60.3237 554> 432 30<9.04552 554>
LayerCount: 2
Fore
SplineSet
38 81 m 0xbc
 38 95 42 121 58 121 c 0
 68 121 77 110 72 99 c 0
 69 93 68 87 68 81 c 0
 68 57 89 36 116 36 c 0xbc
 146 36 176 65 176 105 c 2
 176 569 l 2
 176 577 182 584 190 584 c 2
 448 584 l 2
 456 584 462 577 462 569 c 2
 462 24 l 2
 462 16 456 9 448 9 c 0x7c
 440 9 432 16 432 24 c 2
 432 554 l 1
 206 554 l 1
 206 105 l 2
 206 51 166 5 116 5 c 0
 69 5 38 42 38 81 c 0xbc
EndSplineSet
Validated: 1
AlternateSubs2: "'rand' Randomize in lookup 0-1" uniE00C uniE02C uniE04C uniE06C
EndChar

StartChar: uni041C
Encoding: 1052 1052 11
Width: 540
VWidth: 980
Flags: W
HStem: 9 21G<71 79 461 469> 564 20G<71 78 462 469>
VStem: 60 31<9.02032 508> 450 30<9.0051 508>
LayerCount: 2
Fore
SplineSet
465 584 m 0
 473 584 480 577 480 569 c 2
 480 24 l 2
 480 16 473 9 465 9 c 0
 457 9 450 16 450 24 c 2
 450 508 l 1
 284 194 l 2
 281 188 275 186 270 186 c 0
 265 186 260 188 257 194 c 2
 91 508 l 1
 91 24 l 2
 91 16 83 9 75 9 c 0
 67 9 60 16 60 24 c 2
 60 569 l 2
 60 577 67 584 75 584 c 0
 81 584 86 581 89 576 c 2
 270 234 l 1
 451 576 l 2
 454 581 459 584 465 584 c 0
EndSplineSet
Validated: 1
AlternateSubs2: "'rand' Randomize in lookup 0-1" uniE00E uniE02E uniE04E uniE06E
EndChar

StartChar: uni041D
Encoding: 1053 1053 12
Width: 460
VWidth: 980
Flags: W
HStem: 187 28<95 365>
VStem: 60 35<14.1897 187 215 578.81> 365 35<14.1897 187 215 578.81>
LayerCount: 2
Fore
SplineSet
389 14 m 0
 378 7 365 8 365 18 c 2
 365 187 l 1
 95 187 l 1
 95 30 l 2
 95 25 91 18 84 14 c 0
 73 7 60 8 60 18 c 2
 60 563 l 2
 60 568 64 575 71 579 c 0
 82 586 95 585 95 575 c 2
 95 215 l 1
 365 215 l 1
 365 563 l 2
 365 568 369 575 376 579 c 0
 387 586 400 585 400 575 c 2
 400 30 l 2
 400 25 396 18 389 14 c 0
EndSplineSet
Validated: 1
AlternateSubs2: "'rand' Randomize in lookup 0-1" uniE00F uniE02F uniE04F uniE06F
EndChar

StartChar: uni041E
Encoding: 1054 1054 13
Width: 480
VWidth: 980
Flags: W
HStem: 6 31<179.03 301.023> 551 31<179.03 301.023>
VStem: 30 31<190.366 397.634> 420 30<190.366 397.634>
LayerCount: 2
Fore
SplineSet
61 294 m 0
 61 159 129 37 240 37 c 0
 351 37 420 159 420 294 c 0
 420 429 351 551 240 551 c 0
 129 551 61 429 61 294 c 0
30 294 m 0
 30 435 102 582 240 582 c 0
 378 582 450 435 450 294 c 0
 450 153 378 6 240 6 c 0
 102 6 30 153 30 294 c 0
EndSplineSet
Validated: 1
AlternateSubs2: "'rand' Randomize in lookup 0-1" uniE011 uniE031 uniE051 uniE071
EndChar

StartChar: uni041F
Encoding: 1055 1055 14
Width: 455
VWidth: 980
Flags: W
HStem: 9 21G<71 79 376 384> 554 30<91 365>
VStem: 60 31<9.02032 554> 365 30<9.0051 554>
LayerCount: 2
Fore
SplineSet
365 554 m 1
 91 554 l 1
 91 24 l 2
 91 16 83 9 75 9 c 0
 67 9 60 16 60 24 c 2
 60 569 l 2
 60 577 67 584 75 584 c 2
 380 584 l 2
 388 584 395 577 395 569 c 2
 395 24 l 2
 395 16 388 9 380 9 c 0
 372 9 365 16 365 24 c 2
 365 554 l 1
EndSplineSet
Validated: 1
AlternateSubs2: "'rand' Randomize in lookup 0-1" uniE012 uniE032 uniE052 uniE072
EndChar

StartChar: uni0420
Encoding: 1056 1056 15
Width: 425
VWidth: 980
Flags: W
HStem: 9 21G<48 56> 186 30<69 176.824> 554 30<69 182.593>
VStem: 38 31<9.08057 186 216 554> 342 30<325.641 443.986>
LayerCount: 2
Fore
SplineSet
52 584 m 0
 197 584 366 542 372 393 c 1
 372 386 l 2
 372 338 353 300 322 270 c 0
 264 213 167 188 69 186 c 1
 69 24 l 2
 69 16 60 9 52 9 c 0
 44 9 38 16 38 24 c 2
 38 569 l 2
 38 577 44 584 52 584 c 0
298 484 m 0
 248 529 160 552 69 554 c 1
 69 216 l 1
 162 219 253 244 302 292 c 0
 328 317 342 348 342 388 c 0
 342 430 325 459 298 484 c 0
EndSplineSet
Validated: 1
AlternateSubs2: "'rand' Randomize in lookup 0-1" uniE013 uniE033 uniE053 uniE073
EndChar

StartChar: uni0421
Encoding: 1057 1057 16
Width: 541
VWidth: 980
Flags: W
HStem: 8 31<267.635 414.877> 556 30<233.598 374.719>
VStem: 60 31<223.777 401.922>
LayerCount: 2
Fore
SplineSet
478 496 m 0
 480 493 481 490 481 487 c 0
 481 479 475 472 466 472 c 0
 461 472 456 474 453 478 c 0
 418 527 362 556 303 556 c 0
 293 556 283 555 273 553 c 0
 163 535 91 431 91 314 c 2
 91 297 l 1
 100 154 211 39 350 39 c 0
 389 39 427 55 454 83 c 0
 457 86 461 88 465 88 c 0
 473 88 481 82 481 73 c 0
 481 69 480 65 477 62 c 0
 444 27 398 8 350 8 c 0
 193 8 71 138 61 295 c 0
 61 302 60 308 60 314 c 0
 60 443 140 562 268 583 c 0
 280 585 291 586 303 586 c 0
 372 586 437 553 478 496 c 0
EndSplineSet
Validated: 1
AlternateSubs2: "'rand' Randomize in lookup 0-1" uniE014 uniE034 uniE054 uniE074
EndChar

StartChar: uni0422
Encoding: 1058 1058 17
Width: 399
VWidth: 980
Flags: W
HStem: 555 28<31.8064 182 217 367.051>
VStem: 182 35<14.1897 555>
LayerCount: 2
Fore
SplineSet
369 575 m 0
 369 567 356 555 345 555 c 2
 217 555 l 1
 217 30 l 2
 217 25 213 18 206 14 c 0
 195 7 182 8 182 18 c 2
 182 555 l 1
 40 555 l 2
 33 555 30 558 30 563 c 0
 30 572 43 583 55 583 c 2
 203 583 l 1
 206 584 209 584 211 583 c 1
 359 583 l 2
 366 583 369 580 369 575 c 0
EndSplineSet
Validated: 1
AlternateSubs2: "'rand' Randomize in lookup 0-1" uniE015 uniE035 uniE055 uniE075
EndChar

StartChar: uni0423
Encoding: 1059 1059 18
Width: 440
VWidth: 980
Flags: W
HStem: 10 21G<160 168> 563 20G<399 407>
LayerCount: 2
Fore
SplineSet
43 579 m 0
 52 585 63 585 66 579 c 2
 242 237 l 1
 380 568 l 2
 383 575 394 583 404 583 c 0
 410 583 414 580 414 575 c 0
 414 574 414 572 413 570 c 2
 186 25 l 2
 183 18 173 10 163 10 c 0
 157 10 152 13 152 18 c 0
 152 19 152 21 153 23 c 2
 223 190 l 1
 222 191 l 1
 33 559 l 2
 30 565 34 574 43 579 c 0
EndSplineSet
Validated: 1
AlternateSubs2: "'rand' Randomize in lookup 0-1" uniE017 uniE037 uniE057 uniE077
EndChar

StartChar: uni0424
Encoding: 1060 1060 19
Width: 485
VWidth: 980
Flags: W
HStem: 106 28<178.739 225 260 316.943> 457 31<167.643 225 260 312.562>
VStem: 30 35<232.165 365.343> 225 35<14.1897 105 136 457 488 578.81> 420 35<227.657 360.835>
CounterMasks: 1 38
LayerCount: 2
Fore
SplineSet
260 457 m 1
 260 134 l 1
 293 136 322 146 346 161 c 0
 388 187 420 232 420 291 c 0
 420 380 345 446 260 457 c 1
225 459 m 1
 192 457 163 447 139 432 c 0
 97 406 65 361 65 302 c 0
 65 213 140 147 225 136 c 1
 225 459 l 1
30 291 m 0
 30 391 119 475 225 487 c 1
 225 563 l 2
 225 568 229 575 236 579 c 0
 247 586 260 585 260 575 c 2
 260 488 l 1
 333 485 396 448 429 393 c 0
 445 367 455 336 455 302 c 0
 455 202 366 118 260 106 c 1
 260 30 l 2
 260 25 256 18 249 14 c 0
 238 7 225 8 225 18 c 2
 225 105 l 1
 152 108 89 145 56 200 c 0
 40 226 30 257 30 291 c 0
EndSplineSet
Validated: 1
AlternateSubs2: "'rand' Randomize in lookup 0-1" uniE018 uniE038 uniE058 uniE078
EndChar

StartChar: uni0425
Encoding: 1061 1061 20
Width: 429
VWidth: 980
Flags: W
HStem: 10 21G<50.5 59> 563 20G<371 379.5>
LayerCount: 2
Fore
SplineSet
56 579 m 0
 65 585 76 585 79 579 c 2
 218 331 l 1
 352 570 l 2
 357 578 367 583 375 583 c 0
 384 583 387 576 383 568 c 2
 234 302 l 1
 384 34 l 2
 387 28 383 20 374 14 c 0
 365 8 354 8 351 14 c 2
 212 262 l 1
 78 23 l 2
 73 15 63 10 55 10 c 0
 46 10 43 17 47 25 c 2
 196 291 l 1
 46 559 l 2
 43 565 47 573 56 579 c 0
EndSplineSet
Validated: 1
AlternateSubs2: "'rand' Randomize in lookup 0-1" uniE019 uniE039 uniE059 uniE079
EndChar

StartChar: uni0426
Encoding: 1062 1062 21
Width: 465
VWidth: 980
Flags: W
HStem: 22 28<80 290 326 392>
VStem: 45 35<50 590.81> 290 36<50 590.81> 392 36<-83.8103 22>
LayerCount: 2
Fore
SplineSet
302 591 m 0
 313 598 326 597 326 587 c 2
 326 50 l 1
 417 50 l 2
 423 50 428 48 428 42 c 2
 428 -68 l 2
 428 -73 423 -80 416 -84 c 0
 405 -91 392 -90 392 -80 c 2
 392 22 l 1
 305 22 l 1
 302 21 298 21 296 22 c 1
 55 22 l 2
 49 22 45 24 45 30 c 2
 45 575 l 2
 45 580 49 587 56 591 c 0
 67 598 80 597 80 587 c 2
 80 50 l 1
 290 50 l 1
 290 575 l 2
 290 580 295 587 302 591 c 0
EndSplineSet
Validated: 1
AlternateSubs2: "'rand' Randomize in lookup 0-1" uniE01A uniE03A uniE05A uniE07A
EndChar

StartChar: uni0427
Encoding: 1063 1063 22
Width: 430
VWidth: 980
Flags: W
HStem: 306 29<175.793 296.071>
VStem: 45 35<422.534 578.81> 350 35<14.1897 354 372.237 578.81>
LayerCount: 2
Fore
SplineSet
240 335 m 0
 291 335 325 358 350 391 c 1
 350 563 l 2
 350 568 354 575 361 579 c 0
 372 586 385 585 385 575 c 0
 385 393 385 212 385 30 c 0
 385 25 381 18 374 14 c 0
 363 7 350 8 350 18 c 2
 350 354 l 1
 342 347 333 340 324 334 c 0
 293 315 258 306 226 306 c 0
 225 306 224 306 223 306 c 0
 129 306 45 377 45 482 c 2
 45 563 l 2
 45 568 49 575 56 579 c 0
 67 586 80 585 80 575 c 2
 80 494 l 2
 80 399 160 335 240 335 c 0
EndSplineSet
Validated: 1
AlternateSubs2: "'rand' Randomize in lookup 0-1" uniE01B uniE03B uniE05B uniE07B
EndChar

StartChar: uni0428
Encoding: 1064 1064 23
Width: 545
VWidth: 980
Flags: W
HStem: 10 29<95 255 290 450>
VStem: 60 35<39 578.81> 255 35<39 497.81> 450 35<39 578.81>
CounterMasks: 1 70
LayerCount: 2
Fore
SplineSet
71 579 m 0
 82 586 95 585 95 575 c 2
 95 39 l 1
 255 39 l 1
 255 482 l 2
 255 487 259 494 266 498 c 0
 277 505 290 504 290 494 c 2
 290 39 l 1
 450 39 l 1
 450 563 l 2
 450 568 454 575 461 579 c 0
 472 586 485 585 485 575 c 2
 485 30 l 2
 485 21 472 10 460 10 c 2
 270 10 l 1
 267 9 263 9 261 10 c 1
 70 10 l 2
 64 10 60 12 60 18 c 2
 60 563 l 2
 60 568 64 575 71 579 c 0
EndSplineSet
Validated: 1
AlternateSubs2: "'rand' Randomize in lookup 0-1" uniE01D uniE03D uniE05D uniE07D
EndChar

StartChar: uni0402
Encoding: 1026 1026 24
Width: 509
VWidth: 980
Flags: W
HStem: -5 29<263.39 359.482> 378 30<249.183 348.505> 555 28<23.9544 138 173 444.323>
VStem: 138 35<14.1897 295.683 323 555> 430 35<111.845 285.881>
LayerCount: 2
Fore
SplineSet
430 195 m 0
 430 282 384 372 306 378 c 1
 296 378 l 2
 275 378 258 373 244 364 c 0
 202 337 173 275 173 207 c 2
 173 30 l 2
 173 25 169 18 162 14 c 0
 151 7 138 8 138 18 c 0
 138 197 138 376 138 555 c 1
 32 555 l 2
 25 555 22 558 22 563 c 0
 22 572 37 583 48 583 c 2
 158 583 l 1
 161 584 164 584 166 583 c 1
 436 583 l 2
 443 583 446 580 446 575 c 0
 446 566 434 555 422 555 c 2
 173 555 l 1
 173 323 l 1
 199 365 248 408 312 408 c 0
 316 408 320 407 324 407 c 0
 415 400 465 303 465 206 c 0
 465 122 430 52 374 17 c 0
 354 5 331 -3 308 -5 c 1
 298 -5 l 2
 268 -5 240 5 220 24 c 0
 218 26 217 28 217 30 c 0
 217 39 231 51 242 51 c 0
 245 51 248 50 250 48 c 0
 268 32 291 24 312 24 c 2
 320 24 l 1
 337 26 351 30 362 37 c 0
 403 63 430 129 430 195 c 0
EndSplineSet
Validated: 1
AlternateSubs2: "'rand' Randomize in lookup 0-1" uniE005 uniE025 uniE045 uniE065
EndChar

StartChar: uni0408
Encoding: 1032 1032 25
Width: 399
VWidth: 980
Flags: W
HStem: -59 30<104.546 212.957>
VStem: 38 30<6.90289 87.238> 328 31<111.232 586.98>
LayerCount: 2
Fore
SplineSet
328 572 m 2
 328 580 336 587 344 587 c 0
 352 587 359 580 359 572 c 2
 359 204 l 2
 359 37 250 -59 154 -59 c 0
 113 -59 75 -41 52 -2 c 0
 43 14 38 31 38 47 c 0
 38 75 50 102 72 120 c 0
 75 122 79 123 82 123 c 0
 90 123 98 117 98 108 c 0
 98 103 95 100 92 97 c 0
 77 84 68 67 68 48 c 0
 68 37 72 25 78 14 c 0
 95 -15 122 -29 154 -29 c 0
 229 -29 328 50 328 204 c 2
 328 572 l 2
EndSplineSet
Validated: 1
AlternateSubs2: "'rand' Randomize in lookup 0-1" uniE00A uniE02A uniE04A uniE06A
EndChar

StartChar: uni0409
Encoding: 1033 1033 26
Width: 645
VWidth: 980
Flags: W
HStem: 6 29<97.3464 160.384 476.328 539.565> 192 26<476 522.513> 555 28<219 441>
VStem: 45 36<48.4102 115.418> 184 35<55.8047 555> 441 35<33.0886 192 218 555> 565 35<59.5594 157.141>
LayerCount: 2
Fore
SplineSet
81 87 m 0
 81 58 104 35 134 35 c 0
 143 35 150 37 156 41 c 0
 169 49 184 69 184 99 c 2
 184 563 l 2
 184 572 197 583 209 583 c 2
 466 583 l 2
 472 583 476 581 476 575 c 2
 476 218 l 1
 483 219 489 220 496 220 c 0
 555 220 600 173 600 118 c 2
 600 111 l 1
 597 56 546 4 482 4 c 0
 470 4 458 6 447 10 c 1
 446 10 l 1
 443 11 441 14 441 18 c 0
 441 197 441 376 441 555 c 1
 219 555 l 1
 219 111 l 2
 219 61 177 6 117 6 c 0
 87 6 67 21 56 39 c 0
 50 50 45 62 45 76 c 0
 45 95 54 119 76 119 c 0
 82 119 86 116 86 111 c 0
 86 103 81 96 81 87 c 0
476 36 m 1
 483 34 490 33 497 33 c 0
 511 33 523 37 532 43 c 0
 547 53 563 71 565 100 c 0
 565 102 565 104 565 106 c 0
 565 144 539 178 504 188 c 0
 494 191 485 193 476 192 c 1
 476 36 l 1
EndSplineSet
Validated: 1
AlternateSubs2: "'rand' Randomize in lookup 0-1" uniE00D uniE02D uniE04D uniE06D
EndChar

StartChar: uni040A
Encoding: 1034 1034 27
Width: 533
VWidth: 980
Flags: W
HStem: 9 28<385 421.622> 187 28<80 350 385 415.863>
VStem: 45 35<14.1897 187 215 578.81> 350 35<37 187 216 578.81> 452 36<61.8509 156.118>
LayerCount: 2
Fore
SplineSet
385 37 m 1
 389 37 l 2
 402 37 414 41 422 46 c 0
 436 55 450 73 452 100 c 1
 452 105 l 2
 452 149 420 181 385 187 c 1
 385 37 l 1
488 110 m 1
 485 59 436 9 375 9 c 0
 370 9 365 9 361 10 c 0
 355 10 350 12 350 18 c 2
 350 187 l 1
 80 187 l 1
 80 30 l 2
 80 25 76 18 69 14 c 0
 58 7 45 8 45 18 c 2
 45 563 l 2
 45 568 49 575 56 579 c 0
 67 586 80 585 80 575 c 2
 80 215 l 1
 350 215 l 1
 350 563 l 2
 350 568 354 575 361 579 c 0
 372 586 385 585 385 575 c 2
 385 216 l 1
 389 216 l 2
 443 216 488 174 488 118 c 2
 488 110 l 1
EndSplineSet
Validated: 1
AlternateSubs2: "'rand' Randomize in lookup 0-1" uniE010 uniE030 uniE050 uniE070
EndChar

StartChar: uni040B
Encoding: 1035 1035 28
Width: 509
Flags: W
HStem: 378 29<248.215 348.505> 555 28<23.9544 138 173 444.323>
VStem: 138 35<14.1897 293.207 324 555> 430 35<14.1897 285.921>
LayerCount: 2
Fore
SplineSet
430 195 m 6
 430 282 384 372 306 378 c 5
 296 378 l 2
 275 378 258 373 244 364 c 4
 203 337 173 275 173 208 c 6
 173 30 l 6
 173 25 169 18 162 14 c 4
 151 7 138 8 138 18 c 6
 138 555 l 5
 32 555 l 6
 25 555 22 558 22 563 c 0
 22 572 37 583 48 583 c 6
 436 583 l 6
 443 583 446 580 446 575 c 0
 446 566 434 555 422 555 c 6
 173 555 l 5
 173 478 173 401 173 324 c 5
 199 366 247 407 310 407 c 0
 314 407 320 406 324 406 c 4
 415 399 465 304 465 207 c 6
 465 30 l 6
 465 25 461 18 454 14 c 4
 443 7 430 8 430 18 c 6
 430 195 l 6
EndSplineSet
Validated: 1
AlternateSubs2: "'rand' Randomize in lookup 0-1" uniE016 uniE036 uniE056 uniE076
EndChar

StartChar: uni040F
Encoding: 1039 1039 29
Width: 460
VWidth: 980
Flags: W
HStem: 10 29<95 214 248 365>
VStem: 60 35<39 578.81> 212 36<-95.8103 9.90625> 365 35<39 578.81>
CounterMasks: 1 70
LayerCount: 2
Fore
SplineSet
71 579 m 0
 82 586 95 585 95 575 c 2
 95 39 l 1
 365 39 l 1
 365 563 l 2
 365 568 369 575 376 579 c 0
 387 586 400 585 400 575 c 2
 400 30 l 2
 400 21 387 10 375 10 c 2
 248 10 l 1
 248 -80 l 2
 248 -85 243 -92 236 -96 c 0
 225 -103 212 -102 212 -92 c 2
 212 4 l 2
 212 6 213 8 214 10 c 1
 70 10 l 2
 64 10 60 12 60 18 c 2
 60 563 l 2
 60 568 64 575 71 579 c 0
EndSplineSet
Validated: 1
AlternateSubs2: "'rand' Randomize in lookup 0-1" uniE01C uniE03C uniE05C uniE07C
EndChar

StartChar: uniE000
Encoding: 57344 57344 31
Width: 460
VWidth: 970
Flags: W
HStem: 272 29<95 365> 545 28<175.143 272.542>
VStem: 60 35<4.18968 272 301 424.126> 365 35<4.18968 272 301 418.662>
LayerCount: 2
Fore
SplineSet
95 301 m 1
 365 301 l 1
 363 370 349 438 320 485 c 0
 297 522 265 545 223 545 c 0
 202 545 186 540 174 532 c 0
 119 498 97 391 95 301 c 1
237 573 m 0
 367 573 400 421 400 293 c 0
 400 202 400 111 400 20 c 0
 400 15 396 8 389 4 c 0
 378 -3 365 -2 365 8 c 2
 365 272 l 1
 95 272 l 1
 95 20 l 2
 95 15 91 8 84 4 c 0
 73 -3 60 -2 60 8 c 0
 60 99 60 190 60 281 c 0
 60 396 86 506 162 552 c 0
 185 566 210 573 237 573 c 0
EndSplineSet
Validated: 1
EndChar

StartChar: uniE001
Encoding: 57345 57345 32
Width: 443
VWidth: 970
Flags: W
HStem: -1 30<76 246.75> 271 31<76 205.87> 544 30<76 397.995>
VStem: 45 31<29 271 302 544> 363 31<96.47 184.9>
CounterMasks: 1 e0
LayerCount: 2
Fore
SplineSet
60 -1 m 0
 52 -1 45 6 45 14 c 2
 45 559 l 2
 45 567 52 574 60 574 c 2
 383 574 l 2
 391 574 398 567 398 559 c 0
 398 551 391 544 383 544 c 2
 76 544 l 1
 76 302 l 1
 170 300 258 281 318 247 c 0
 350 229 374 208 386 180 c 0
 391 168 394 156 394 143 c 0
 394 125 389 107 378 88 c 0
 330 3 182 -1 60 -1 c 0
76 29 m 1
 178 29 316 37 352 103 c 0
 360 118 363 131 363 143 c 0
 363 152 361 160 358 168 c 0
 350 187 331 205 303 221 c 0
 250 251 166 269 76 271 c 1
 76 29 l 1
EndSplineSet
Validated: 1
EndChar

StartChar: uniE002
Encoding: 57346 57346 33
Width: 425
VWidth: 970
Flags: W
HStem: -1 31<76 195.818> 367 31<76 185.166> 544 30<76 203.923>
VStem: 45 31<30 367 398 544> 243 31<437.558 516.222> 350 30<132.118 252.576>
LayerCount: 2
Fore
SplineSet
76 398 m 1
 138 399 206 408 232 442 c 0
 239 451 243 463 243 478 c 0
 243 493 240 503 233 511 c 0
 207 542 136 544 76 544 c 1
 76 398 l 1
350 191 m 0
 350 231 335 263 309 289 c 0
 260 338 169 364 76 367 c 1
 76 30 l 1
 169 32 259 54 309 99 c 0
 335 123 350 152 350 191 c 0
191 382 m 1
 284 358 380 303 380 191 c 0
 380 143 360 105 329 76 c 0
 267 19 161 -1 60 -1 c 0
 52 -1 45 6 45 14 c 2
 45 559 l 2
 45 567 52 574 60 574 c 0
 137 574 219 574 256 530 c 0
 268 516 274 499 274 478 c 0
 274 423 234 395 191 382 c 1
EndSplineSet
Validated: 1
EndChar

StartChar: uniE003
Encoding: 57347 57347 34
Width: 410
VWidth: 970
Flags: W
HStem: 544 30<69 371.996>
VStem: 38 31<-0.919434 544>
LayerCount: 2
Fore
SplineSet
69 544 m 1
 69 14 l 2
 69 6 60 -1 52 -1 c 0
 44 -1 38 6 38 14 c 2
 38 559 l 2
 38 567 44 574 52 574 c 2
 358 574 l 2
 366 574 372 567 372 559 c 0
 372 551 366 544 358 544 c 2
 69 544 l 1
EndSplineSet
Validated: 1
EndChar

StartChar: uniE004
Encoding: 57348 57348 35
Width: 500
VWidth: 970
Flags: W
HStem: 0 29<73 90 125 374 409 428> 545 28<125 374>
VStem: 38 35<-105.81 0> 90 35<29 545> 374 35<29 545> 428 35<-105.81 0>
LayerCount: 2
Fore
SplineSet
125 29 m 1
 374 29 l 1
 374 545 l 1
 125 545 l 1
 125 29 l 1
62 -106 m 0
 51 -113 38 -112 38 -102 c 2
 38 8 l 2
 38 17 50 29 62 29 c 2
 90 29 l 1
 90 553 l 2
 90 562 104 573 116 573 c 2
 398 573 l 2
 404 573 409 571 409 565 c 2
 409 29 l 1
 452 29 l 2
 458 29 463 26 463 20 c 2
 463 -90 l 2
 463 -95 459 -102 452 -106 c 0
 441 -113 428 -112 428 -102 c 2
 428 0 l 1
 390 0 l 1
 387 -1 382 -1 380 0 c 1
 106 0 l 1
 103 -1 98 -1 96 0 c 1
 73 0 l 1
 73 -90 l 2
 73 -95 69 -102 62 -106 c 0
EndSplineSet
Validated: 1
EndChar

StartChar: uniE005
Encoding: 57349 57349 36
Width: 509
VWidth: 970
Flags: W
HStem: -15 29<263.39 359.482> 368 30<249.183 348.505> 545 28<23.9544 138 173 312.896>
VStem: 138 35<4.18968 285.683 313 545> 430 35<101.845 275.881>
LayerCount: 2
Fore
SplineSet
430 185 m 0
 430 272 384 362 306 368 c 1
 296 368 l 2
 275 368 258 363 244 354 c 0
 202 327 173 265 173 197 c 2
 173 20 l 2
 173 15 169 8 162 4 c 0
 151 -3 138 -2 138 8 c 0
 138 187 138 366 138 545 c 1
 32 545 l 2
 25 545 22 548 22 553 c 0
 22 562 37 573 48 573 c 2
 158 573 l 1
 161 574 164 574 166 573 c 1
 304 573 l 2
 311 573 314 569 314 564 c 0
 314 554 301 545 290 545 c 2
 173 545 l 1
 173 313 l 1
 199 355 248 398 312 398 c 0
 316 398 320 397 324 397 c 0
 415 390 465 293 465 196 c 0
 465 112 430 42 374 7 c 0
 354 -5 331 -13 308 -15 c 1
 298 -15 l 2
 268 -15 240 -5 220 14 c 0
 218 16 217 18 217 20 c 0
 217 29 231 41 242 41 c 0
 245 41 248 40 250 38 c 0
 268 22 291 14 312 14 c 2
 320 14 l 1
 337 16 351 20 362 27 c 0
 403 53 430 119 430 185 c 0
EndSplineSet
Validated: 1
EndChar

StartChar: uniE006
Encoding: 57350 57350 37
Width: 460
VWidth: 970
Flags: W
HStem: 0 29<95 398.508> 368 29<95 291.291> 545 28<95 398.194>
VStem: 60 35<29 368 397 545>
LayerCount: 2
Fore
SplineSet
400 20 m 0
 400 11 387 0 375 0 c 2
 70 0 l 2
 64 0 60 2 60 8 c 2
 60 553 l 2
 60 562 73 573 85 573 c 2
 390 573 l 2
 397 573 400 570 400 565 c 0
 400 556 387 545 375 545 c 2
 95 545 l 1
 95 397 l 1
 283 397 l 2
 290 397 293 393 293 388 c 0
 293 380 280 368 269 368 c 2
 95 368 l 1
 95 29 l 1
 390 29 l 2
 397 29 400 25 400 20 c 0
EndSplineSet
Validated: 1
EndChar

StartChar: uniE007
Encoding: 57351 57351 38
Width: 555
VWidth: 970
Flags: W
HStem: 192 31<295 344.445>
VStem: 30 36<357.197 522.889> 65 35<4.18968 87.6491> 260 35<30.1904 192 224 568.81> 455 35<4.18968 85.4544> 490 35<353.208 517.127>
LayerCount: 2
Fore
SplineSet
198 205 m 1xb8
 106 234 30 317 30 434 c 0
 30 476 41 519 67 561 c 0
 72 569 82 573 90 573 c 0
 98 573 104 566 98 558 c 0
 76 523 66 484 66 445 c 0
 66 325 154 236 260 224 c 1
 260 553 l 2
 260 558 264 565 271 569 c 0
 282 576 295 575 295 565 c 2
 295 223 l 1
 376 227 431 271 462 328 c 0
 479 359 490 396 490 434 c 0
 490 472 479 512 456 549 c 0
 453 555 457 563 466 569 c 0
 476 575 485 575 489 569 c 0
 513 529 525 486 525 444 c 0xd4
 525 328 449 244 359 210 c 1
 402 194 436 163 460 126 c 0
 479 95 490 59 490 20 c 0
 490 15 486 8 479 4 c 0
 468 -3 455 -2 455 8 c 0
 455 109 379 180 295 192 c 1
 295 47 l 2
 295 42 291 34 284 30 c 0
 273 23 260 25 260 35 c 2
 260 194 l 1
 230 192 205 183 182 169 c 0
 136 141 100 87 100 20 c 0
 100 15 96 8 89 4 c 0
 78 -3 65 -2 65 8 c 0
 65 91 119 173 198 205 c 1xb8
EndSplineSet
Validated: 1
EndChar

StartChar: uniE008
Encoding: 57352 57352 39
Width: 410
VWidth: 970
Flags: W
HStem: -1 30<38.0044 183.737> 367 30<38.0044 173.345> 544 30<38.0044 198.341>
VStem: 236 31<439.139 515.696> 342 30<130.525 253.117>
LayerCount: 2
Fore
SplineSet
184 382 m 1
 277 358 372 302 372 191 c 0
 372 143 353 105 322 76 c 0
 260 19 153 -1 52 -1 c 0
 44 -1 38 6 38 14 c 0
 38 22 44 29 52 29 c 0
 150 29 250 51 302 99 c 0
 328 123 342 152 342 191 c 0
 342 231 328 263 302 289 c 0
 250 341 150 367 52 367 c 0
 44 367 38 374 38 382 c 0
 38 390 44 397 52 397 c 0
 119 397 196 405 224 442 c 0
 231 451 236 463 236 478 c 0
 236 493 233 503 226 511 c 0
 198 544 116 544 52 544 c 0
 44 544 38 551 38 559 c 0
 38 567 44 574 52 574 c 0
 129 574 211 574 248 530 c 0
 260 516 267 499 267 478 c 0
 267 423 227 395 184 382 c 1
EndSplineSet
Validated: 1
EndChar

StartChar: uniE009
Encoding: 57353 57353 40
Width: 460
VWidth: 970
Flags: W
VStem: 60 35<54 568.81> 365 35<4.18968 328 367 568.81>
LayerCount: 2
Fore
SplineSet
376 569 m 0
 387 576 400 575 400 565 c 2
 400 20 l 2
 400 15 396 8 389 4 c 0
 378 -3 365 -2 365 8 c 2
 365 328 l 1
 91 10 l 2
 86 4 77 0 70 0 c 0
 64 0 60 2 60 8 c 2
 60 553 l 2
 60 558 64 565 71 569 c 0
 82 576 95 575 95 565 c 2
 95 54 l 1
 365 367 l 1
 365 553 l 2
 365 558 369 565 376 569 c 0
EndSplineSet
Validated: 1
EndChar

StartChar: uniE00A
Encoding: 57354 57354 41
Width: 413
VWidth: 970
Flags: W
HStem: -20 30<132.311 249.99>
VStem: 39 29<72.5085 113.971> 343 30<115.844 576.995>
LayerCount: 2
Fore
SplineSet
190 10 m 0
 284 10 343 100 343 194 c 2
 343 562 l 2
 343 570 350 577 358 577 c 0
 366 577 373 570 373 562 c 2
 373 194 l 2
 373 88 306 -20 190 -20 c 0
 120 -20 58 26 39 94 c 0
 36 104 43 114 53 114 c 0
 60 114 66 109 68 103 c 0
 84 48 134 10 190 10 c 0
EndSplineSet
Validated: 1
EndChar

StartChar: uniE00B
Encoding: 57355 57355 42
Width: 415
VWidth: 970
Flags: W
VStem: 39 35<4.18968 244 319 568.81>
LayerCount: 2
Fore
SplineSet
351 566 m 2
 361 575 374 575 378 569 c 0
 381 564 378 557 372 552 c 2
 80 291 l 1
 377 11 l 2
 379 9 380 7 380 5 c 0
 380 -4 365 -15 354 -15 c 0
 351 -15 348 -14 346 -12 c 2
 74 244 l 1
 74 20 l 2
 74 15 70 8 63 4 c 0
 52 -3 39 -2 39 8 c 2
 39 278 l 1
 38 280 38 282 39 284 c 1
 39 553 l 2
 39 558 43 565 50 569 c 0
 61 576 74 575 74 565 c 2
 74 319 l 1
 351 566 l 2
EndSplineSet
Validated: 1
EndChar

StartChar: uniE00C
Encoding: 57356 57356 43
Width: 513
VWidth: 970
Flags: W
HStem: -5 30<82.6931 168.441> 544 30<200 452>
VStem: 195 31<51.366 216.615> 452 31<-0.979675 544>
LayerCount: 2
Fore
SplineSet
483 14 m 2
 483 6 476 -1 468 -1 c 0
 460 -1 452 6 452 14 c 2
 452 544 l 1
 200 544 l 1
 226 96 l 1
 226 95 l 2
 226 34 176 -5 125 -5 c 0
 98 -5 69 6 48 31 c 0
 46 34 45 38 45 41 c 0
 45 49 51 56 60 56 c 0
 65 56 69 53 72 50 c 0
 87 32 106 25 125 25 c 0
 160 25 195 52 195 92 c 0
 195 93 195 94 195 95 c 2
 169 558 l 2
 168 567 175 574 184 574 c 2
 468 574 l 2
 476 574 483 567 483 559 c 2
 483 14 l 2
EndSplineSet
Validated: 1
EndChar

StartChar: uniE00D
Encoding: 57357 57357 44
Width: 640
VWidth: 970
Flags: W
HStem: -4 28<94.0725 170.082 488.321 546.349> 182 28<488 536.935> 545 28<206 452>
VStem: 196 35<46.2363 209.296> 452 36<23.0359 182 209 545> 576 36<49.5594 147.141>
LayerCount: 2
Fore
SplineSet
231 101 m 2
 231 47 182 -4 121 -4 c 0
 93 -4 66 7 47 30 c 0
 46 32 45 33 45 35 c 0
 45 44 59 56 70 56 c 0
 73 56 77 55 79 52 c 0
 96 32 117 24 135 24 c 0
 147 24 159 28 167 33 c 0
 180 42 196 58 196 84 c 2
 196 89 l 1
 169 553 l 1
 169 554 l 2
 169 563 182 573 194 573 c 2
 477 573 l 2
 483 573 488 571 488 565 c 2
 488 209 l 1
 495 210 502 210 508 210 c 0
 567 210 612 163 612 108 c 2
 612 101 l 1
 609 46 558 -6 494 -6 c 0
 483 -6 452 -5 452 8 c 2
 452 545 l 1
 206 545 l 1
 231 102 l 1
 231 101 l 2
488 26 m 1
 495 24 502 23 508 23 c 0
 522 23 535 27 544 33 c 0
 559 43 574 61 576 90 c 0
 576 92 576 94 576 96 c 0
 576 142 540 182 488 182 c 1
 488 26 l 1
EndSplineSet
Validated: 1
EndChar

StartChar: uniE00E
Encoding: 57358 57358 45
Width: 540
VWidth: 970
Flags: W
VStem: 60 31<-0.979675 512> 450 30<-0.994896 512>
LayerCount: 2
Fore
SplineSet
465 574 m 0
 473 574 480 567 480 559 c 2
 480 14 l 2
 480 6 473 -1 465 -1 c 0
 457 -1 450 6 450 14 c 2
 450 512 l 1
 283 278 l 2
 277 270 264 270 258 278 c 2
 91 512 l 1
 91 14 l 2
 91 6 83 -1 75 -1 c 0
 67 -1 60 6 60 14 c 2
 60 559 l 2
 60 567 67 574 75 574 c 0
 80 574 85 572 88 568 c 2
 270 313 l 1
 453 568 l 2
 456 572 460 574 465 574 c 0
EndSplineSet
Validated: 1
EndChar

StartChar: uniE00F
Encoding: 57359 57359 46
Width: 460
VWidth: 970
Flags: W
HStem: 272 29<95 365>
VStem: 60 35<4.18968 272 301 568.81> 365 35<4.18968 272 301 568.81>
LayerCount: 2
Fore
SplineSet
389 4 m 0
 378 -3 365 -2 365 8 c 2
 365 272 l 1
 95 272 l 1
 95 20 l 2
 95 15 91 8 84 4 c 0
 73 -3 60 -2 60 8 c 2
 60 553 l 2
 60 558 64 565 71 569 c 0
 82 576 95 575 95 565 c 2
 95 301 l 1
 365 301 l 1
 365 553 l 2
 365 558 369 565 376 569 c 0
 387 576 400 575 400 565 c 2
 400 20 l 2
 400 15 396 8 389 4 c 0
EndSplineSet
Validated: 1
EndChar

StartChar: uniE010
Encoding: 57360 57360 47
Width: 563
VWidth: 970
Flags: W
HStem: 272 29<95 365>
VStem: 60 35<4.18968 272 301 568.81> 365 35<34 261 301 568.81> 467 36<85.6812 210.342>
LayerCount: 2
Fore
SplineSet
400 34 m 1
 404 36 408 38 412 40 c 0
 441 58 465 94 467 138 c 0
 467 140 467 142 467 144 c 0
 467 193 440 238 400 261 c 1
 400 34 l 1
84 4 m 0
 73 -3 60 -2 60 8 c 2
 60 553 l 2
 60 558 64 565 71 569 c 0
 82 576 95 575 95 565 c 2
 95 301 l 1
 365 301 l 1
 365 553 l 2
 365 558 369 565 376 569 c 0
 387 576 400 575 400 565 c 2
 400 298 l 1
 462 277 503 222 503 156 c 2
 503 149 l 1
 500 85 453 23 387 3 c 0
 377 -2 366 -1 365 7 c 0
 365 95 365 184 365 272 c 1
 95 272 l 1
 95 20 l 2
 95 15 91 8 84 4 c 0
EndSplineSet
Validated: 1
EndChar

StartChar: uniE011
Encoding: 57361 57361 48
Width: 514
VWidth: 970
Flags: W
HStem: -2 31<192.158 319.422> 543 31<187.692 329.178>
VStem: 30 31<198.285 395.975> 454 30<200.286 392.888>
LayerCount: 2
Fore
SplineSet
61 300 m 0
 61 163 142 29 257 29 c 0
 371 29 454 164 454 300 c 0
 454 434 375 543 257 543 c 0
 139 543 61 434 61 300 c 0
30 300 m 0
 30 444 117 574 257 574 c 0
 397 574 484 444 484 300 c 0
 484 263 479 224 467 186 c 0
 436 89 362 -2 257 -2 c 0
 152 -2 79 89 48 186 c 0
 36 224 30 263 30 300 c 0
EndSplineSet
Validated: 1
EndChar

StartChar: uniE012
Encoding: 57362 57362 49
Width: 455
VWidth: 975
Flags: W
HStem: 528 30<91 365>
VStem: 60 31<4.02032 528> 365 30<4.0051 528>
LayerCount: 2
Fore
SplineSet
365 528 m 1
 91 528 l 1
 91 19 l 2
 91 11 83 4 75 4 c 0
 67 4 60 11 60 19 c 2
 60 543 l 2
 60 551 67 558 75 558 c 2
 380 558 l 2
 388 558 395 551 395 543 c 2
 395 19 l 2
 395 11 388 4 380 4 c 0
 372 4 365 11 365 19 c 2
 365 528 l 1
EndSplineSet
Validated: 1
EndChar

StartChar: uniE013
Encoding: 57363 57363 50
Width: 425
VWidth: 970
Flags: W
HStem: 367 30<69 264.578> 544 30<69 263.926>
VStem: 38 31<-0.919434 367 397 544> 342 30<439.687 507.098>
LayerCount: 2
Fore
SplineSet
52 -1 m 0
 44 -1 38 6 38 14 c 0
 38 196 38 377 38 559 c 0
 38 567 44 574 52 574 c 2
 84 574 l 2
 175 574 279 574 336 538 c 0
 358 525 372 503 372 475 c 0
 372 414 317 390 262 379 c 0
 205 367 135 367 69 367 c 1
 69 14 l 2
 69 6 60 -1 52 -1 c 0
69 397 m 1
 135 397 203 398 256 409 c 0
 284 415 308 424 322 435 c 0
 335 445 342 457 342 474 c 0
 342 516 294 526 252 534 c 0
 199 543 132 544 69 544 c 1
 69 397 l 1
EndSplineSet
Validated: 1
EndChar

StartChar: uniE014
Encoding: 57364 57364 51
Width: 527
VWidth: 970
Flags: W
HStem: -7 31<228.403 375.034> 543 30<225.655 373.548>
VStem: 45 31<191.649 380.16>
LayerCount: 2
Fore
SplineSet
479 484 m 0
 481 481 482 478 482 475 c 0
 482 467 476 459 467 459 c 0
 462 459 457 462 454 466 c 0
 418 515 361 543 301 543 c 0
 292 543 283 542 274 541 c 0
 153 523 76 414 76 289 c 0
 76 151 162 43 274 26 c 0
 283 25 292 24 301 24 c 0
 361 24 418 52 454 101 c 0
 457 105 462 107 467 107 c 0
 476 107 482 100 482 92 c 0
 482 89 481 86 479 83 c 0
 437 26 370 -7 301 -7 c 0
 290 -7 280 -6 269 -4 c 0
 169 11 94 89 62 183 c 0
 50 218 45 254 45 289 c 0
 45 425 131 551 269 571 c 0
 280 573 290 573 301 573 c 0
 370 573 437 541 479 484 c 0
EndSplineSet
Validated: 1
EndChar

StartChar: uniE015
Encoding: 57365 57365 52
Width: 447
VWidth: 970
Flags: W
HStem: 545 28<31.8064 206 241 415.051>
VStem: 206 35<4.18968 545>
LayerCount: 2
Fore
SplineSet
417 565 m 0
 417 557 404 545 393 545 c 2
 241 545 l 1
 241 20 l 2
 241 15 237 8 230 4 c 0
 219 -3 206 -2 206 8 c 2
 206 545 l 1
 40 545 l 2
 33 545 30 548 30 553 c 0
 30 562 43 573 55 573 c 2
 227 573 l 1
 230 574 233 574 235 573 c 1
 407 573 l 2
 414 573 417 570 417 565 c 0
EndSplineSet
Validated: 1
EndChar

StartChar: uniE016
Encoding: 57366 57366 53
Width: 509
VWidth: 970
Flags: W
HStem: 368 30<249.183 348.505> 545 28<23.9544 138 173 312.896>
VStem: 138 35<4.18968 285.683 313 545> 430 35<4.18968 275.921>
LayerCount: 2
Fore
SplineSet
430 185 m 2
 430 272 384 362 306 368 c 1
 296 368 l 2
 275 368 258 363 244 354 c 0
 202 327 173 265 173 197 c 2
 173 20 l 2
 173 15 169 8 162 4 c 0
 151 -3 138 -2 138 8 c 0
 138 187 138 366 138 545 c 1
 32 545 l 2
 25 545 22 548 22 553 c 0
 22 562 37 573 48 573 c 2
 158 573 l 1
 161 574 164 574 166 573 c 1
 304 573 l 2
 311 573 314 569 314 564 c 0
 314 554 301 545 290 545 c 2
 173 545 l 1
 173 313 l 1
 199 355 248 398 312 398 c 0
 316 398 320 397 324 397 c 0
 415 390 465 294 465 197 c 2
 465 20 l 2
 465 15 461 8 454 4 c 0
 443 -3 430 -2 430 8 c 2
 430 185 l 2
EndSplineSet
Validated: 1
EndChar

StartChar: uniE017
Encoding: 57367 57367 54
Width: 441
VWidth: 970
Flags: W
LayerCount: 2
Fore
SplineSet
34 548 m 2
 33 550 32 551 32 553 c 0
 32 562 46 574 57 574 c 0
 60 574 64 573 66 570 c 2
 281 319 l 1
 380 558 l 2
 383 565 394 573 404 573 c 0
 410 573 415 570 415 565 c 0
 415 564 415 562 414 560 c 2
 186 15 l 2
 183 8 173 0 163 0 c 0
 157 0 152 3 152 8 c 0
 152 9 152 11 153 13 c 2
 264 279 l 1
 34 548 l 2
EndSplineSet
Validated: 1
EndChar

StartChar: uniE018
Encoding: 57368 57368 55
Width: 531
VWidth: 970
Flags: W
HStem: 95 30<168.905 248 283 365.808> 448 30<283 340.322>
VStem: 30 35<209.491 342.032> 248 35<4.18968 95 125 448 478 568.81> 466 35<205.58 336.655>
CounterMasks: 1 38
LayerCount: 2
Fore
SplineSet
283 448 m 1
 283 124 l 1
 356 126 416 143 445 192 c 0
 459 215 466 240 466 266 c 0
 466 296 457 325 440 352 c 0
 409 402 351 440 283 448 c 1
248 449 m 1
 147 444 65 369 65 277 c 0
 65 252 72 226 87 201 c 0
 120 147 183 129 248 125 c 1
 248 449 l 1
259 569 m 0
 270 576 283 575 283 565 c 2
 283 478 l 1
 369 475 437 430 473 372 c 0
 491 343 501 311 501 277 c 0
 501 215 463 159 419 133 c 0
 378 108 329 98 283 96 c 1
 283 20 l 2
 283 15 279 8 272 4 c 0
 261 -3 248 -2 248 8 c 2
 248 95 l 1
 172 97 93 116 54 181 c 0
 38 208 30 238 30 267 c 0
 30 332 68 398 136 439 c 0
 169 459 207 473 248 477 c 1
 248 553 l 2
 248 558 252 565 259 569 c 0
EndSplineSet
Validated: 1
EndChar

StartChar: uniE019
Encoding: 57369 57369 56
Width: 429
VWidth: 995
Flags: W
LayerCount: 2
Fore
SplineSet
56 552 m 0
 65 558 76 558 79 552 c 2
 219 322 l 1
 352 543 l 2
 357 551 367 556 375 556 c 0
 383 556 389 548 383 540 c 1
 235 296 l 1
 384 49 l 2
 387 43 383 35 374 29 c 0
 365 23 354 23 351 29 c 2
 212 258 l 1
 78 38 l 2
 73 30 63 25 55 25 c 0
 47 25 41 32 47 40 c 2
 196 285 l 1
 46 531 l 2
 43 537 47 546 56 552 c 0
EndSplineSet
Validated: 1
EndChar

StartChar: uniE01A
Encoding: 57370 57370 57
Width: 465
VWidth: 995
Flags: W
HStem: 25 29<80 290 326 392>
VStem: 45 35<54 545.81> 290 36<54 545.81> 392 36<-80.8103 25>
LayerCount: 2
Fore
SplineSet
302 546 m 0
 313 553 326 552 326 542 c 2
 326 54 l 1
 417 54 l 2
 423 54 428 51 428 45 c 2
 428 -65 l 2
 428 -70 423 -77 416 -81 c 0
 405 -88 392 -87 392 -77 c 2
 392 25 l 1
 305 25 l 1
 302 24 298 24 296 25 c 1
 55 25 l 2
 49 25 45 27 45 33 c 2
 45 530 l 2
 45 535 49 542 56 546 c 0
 67 553 80 552 80 542 c 2
 80 54 l 1
 290 54 l 1
 290 530 l 2
 290 535 295 542 302 546 c 0
EndSplineSet
Validated: 1
EndChar

StartChar: uniE01B
Encoding: 57371 57371 58
Width: 439
VWidth: 970
Flags: W
HStem: 254 29<221.705 356.922>
VStem: 45 36<411.519 559.647> 358 36<4.18968 266 288.021 568.81>
LayerCount: 2
Fore
SplineSet
81 495 m 0
 81 373 185 283 296 283 c 0
 317 283 338 286 358 293 c 1
 358 553 l 2
 358 558 363 565 370 569 c 0
 381 576 394 575 394 565 c 0
 394 383 394 202 394 20 c 0
 394 15 389 8 382 4 c 0
 371 -3 358 -2 358 8 c 2
 358 266 l 1
 332 257 307 254 282 254 c 0
 173 254 84 321 54 422 c 0
 48 442 45 462 45 483 c 0
 45 508 49 533 58 557 c 0
 62 564 72 573 82 573 c 0
 88 573 93 570 93 565 c 0
 93 564 92 562 92 561 c 0
 84 540 81 518 81 495 c 0
EndSplineSet
Validated: 1
EndChar

StartChar: uniE01C
Encoding: 57372 57372 59
Width: 460
VWidth: 995
Flags: W
HStem: 25 29<95 214 248 365>
VStem: 60 35<54 551.81> 212 36<-80.8103 24.9062> 365 35<54 551.81>
CounterMasks: 1 70
LayerCount: 2
Fore
SplineSet
71 552 m 0
 82 559 95 557 95 547 c 2
 95 54 l 1
 365 54 l 1
 365 536 l 2
 365 541 369 548 376 552 c 0
 387 559 400 557 400 547 c 2
 400 45 l 2
 400 36 387 25 375 25 c 2
 248 25 l 1
 248 -65 l 2
 248 -70 243 -77 236 -81 c 0
 225 -88 212 -87 212 -77 c 2
 212 19 l 2
 212 21 213 23 214 25 c 1
 70 25 l 2
 64 25 60 27 60 33 c 2
 60 536 l 2
 60 541 64 548 71 552 c 0
EndSplineSet
Validated: 1
EndChar

StartChar: uniE01D
Encoding: 57373 57373 60
Width: 545
VWidth: 970
Flags: W
HStem: 0 29<95 255 290 450>
VStem: 60 35<29 568.81> 255 35<29 296.81> 450 35<29 568.81>
CounterMasks: 1 70
LayerCount: 2
Fore
SplineSet
71 569 m 0
 82 576 95 575 95 565 c 2
 95 29 l 1
 255 29 l 1
 255 281 l 2
 255 286 259 293 266 297 c 0
 277 304 290 302 290 292 c 2
 290 29 l 1
 450 29 l 1
 450 553 l 2
 450 558 454 565 461 569 c 0
 472 576 485 575 485 565 c 2
 485 20 l 2
 485 11 472 0 460 0 c 2
 270 0 l 1
 267 -1 263 -1 261 0 c 1
 70 0 l 2
 64 0 60 2 60 8 c 2
 60 553 l 2
 60 558 64 565 71 569 c 0
EndSplineSet
Validated: 1
EndChar

StartChar: uniE020
Encoding: 57376 57376 61
Width: 460
VWidth: 995
Flags: W
HStem: 202 28<95 365> 527 29<172.562 277.906>
VStem: 60 35<29.1897 202 230 403> 365 35<29.1897 202 230 394.976>
LayerCount: 2
Fore
SplineSet
95 230 m 1
 365 230 l 1
 364 321 354 414 319 471 c 0
 297 507 266 527 223 527 c 0
 201 527 185 522 173 514 c 0
 109 474 95 340 95 230 c 1
84 29 m 0
 73 22 60 23 60 33 c 0
 60 92 60 152 60 211 c 0
 60 345 72 481 160 535 c 0
 183 549 209 556 237 556 c 0
 292 556 328 530 352 492 c 0
 393 426 400 320 400 222 c 0
 400 163 400 104 400 45 c 0
 400 40 396 33 389 29 c 0
 378 22 365 23 365 33 c 2
 365 202 l 1
 95 202 l 1
 95 45 l 2
 95 40 91 33 84 29 c 0
EndSplineSet
Validated: 1
EndChar

StartChar: uniE040
Encoding: 57408 57408 62
Width: 460
VWidth: 970
Flags: W
HStem: 538 29<175.37 281.232>
VStem: 60 35<18.1897 208 240 413.283> 365 35<4.18968 171 202 387.385>
LayerCount: 2
Fore
SplineSet
95 240 m 1
 365 202 l 1
 364 309 359 421 320 484 c 0
 299 518 269 538 226 538 c 0
 225 538 224 538 223 538 c 0
 201 538 186 533 174 525 c 0
 110 485 95 349 95 240 c 1
84 18 m 0
 73 11 60 13 60 23 c 2
 60 221 l 2
 60 356 73 491 161 545 c 0
 184 559 210 567 237 567 c 0
 238 567 239 567 240 567 c 0
 294 567 329 541 353 504 c 0
 399 430 400 304 400 190 c 2
 400 20 l 2
 400 15 396 8 389 4 c 0
 378 -3 365 -2 365 8 c 2
 365 171 l 1
 95 208 l 1
 95 34 l 2
 95 29 91 22 84 18 c 0
EndSplineSet
Validated: 1
EndChar

StartChar: uniE060
Encoding: 57440 57440 63
Width: 460
VWidth: 970
Flags: W
HStem: 545 28<168.25 271.685>
VStem: 60 35<-10.8096 158 186 404.994> 365 35<4.18968 196 223 411.316>
LayerCount: 2
Fore
SplineSet
95 186 m 1
 365 223 l 1
 364 323 357 426 319 488 c 0
 297 523 267 544 223 545 c 0
 175 545 154 530 136 498 c 0
 95 433 95 312 95 206 c 2
 95 186 l 1
238 573 m 1
 393 570 400 374 400 219 c 2
 400 20 l 2
 400 15 396 8 389 4 c 0
 378 -3 365 -2 365 8 c 2
 365 196 l 1
 95 158 l 1
 95 6 l 2
 95 1 91 -7 84 -11 c 0
 73 -18 60 -16 60 -6 c 2
 60 208 l 2
 60 350 64 498 155 552 c 0
 177 566 205 573 233 573 c 2
 238 573 l 1
EndSplineSet
Validated: 1
EndChar

StartChar: uniE021
Encoding: 57377 57377 64
Width: 443
VWidth: 970
Flags: W
HStem: -1 31<76 179.951> 326 30<124.036 271.808> 544 30<76 379.995>
VStem: 45 31<30 286.696 316 544> 367 31<142.276 244.474>
LayerCount: 2
Fore
SplineSet
60 -1 m 0
 52 -1 45 6 45 14 c 0
 45 196 45 377 45 559 c 0
 45 567 52 574 60 574 c 2
 365 574 l 2
 373 574 380 567 380 559 c 0
 380 551 373 544 365 544 c 2
 76 544 l 1
 76 316 l 1
 107 344 149 356 192 356 c 0
 212 356 232 354 251 349 c 0
 327 330 397 273 398 191 c 0
 398 116 333 73 278 46 c 0
 211 15 128 -1 60 -1 c 0
367 191 m 0
 366 268 287 326 194 326 c 0
 146 326 100 308 76 268 c 1
 76 30 l 1
 170 33 289 69 340 126 c 0
 358 146 367 167 367 191 c 0
EndSplineSet
Validated: 1
EndChar

StartChar: uniE041
Encoding: 57409 57409 65
Width: 425
VWidth: 995
Flags: W
HStem: 24 31<76 193.03> 275 31<76 240.511> 286 31<78.6747 322.6> 526 31<76 379.98>
VStem: 45 31<55 275 306 526> 350 30<158.527 261.025>
LayerCount: 2
Fore
SplineSet
380 216 m 0xbc
 380 71 208 24 60 24 c 0
 52 24 45 31 45 39 c 0
 45 207 45 374 45 542 c 0
 45 550 52 557 60 557 c 2
 365 557 l 2
 373 557 380 550 380 542 c 0
 380 534 373 526 365 526 c 2
 76 526 l 1
 76 306 l 1xdc
 131 308 190 317 243 317 c 0
 250 317 257 316 264 316 c 0
 330 312 380 287 380 216 c 0xbc
350 216 m 0
 350 270 314 283 262 285 c 0
 256 285 250 286 243 286 c 0xbc
 194 286 133 277 76 275 c 1
 76 55 l 1
 200 59 350 95 350 216 c 0
EndSplineSet
Validated: 1
EndChar

StartChar: uniE061
Encoding: 57441 57441 66
Width: 443
VWidth: 970
Flags: W
HStem: -1 30<76 207.461> 257 31<76 223.654> 264 30<78.2547 328.556> 544 30<76 379.995>
VStem: 45 31<29 257 288 544> 367 31<132.797 232.924>
LayerCount: 2
Fore
SplineSet
226 294 m 0xbc
 312 294 398 277 398 191 c 0
 398 117 350 67 286 38 c 0
 222 9 140 -1 60 -1 c 0
 52 -1 45 6 45 14 c 0
 45 196 45 377 45 559 c 0
 45 567 52 574 60 574 c 2
 365 574 l 2
 373 574 380 567 380 559 c 0
 380 551 373 544 365 544 c 2
 76 544 l 1
 76 288 l 1xdc
 123 289 176 294 226 294 c 0xbc
76 29 m 1
 207 31 367 66 367 191 c 0
 367 256 298 264 230 264 c 0xbc
 181 264 125 258 76 257 c 1
 76 29 l 1
EndSplineSet
Validated: 1
EndChar

StartChar: uniE022
Encoding: 57378 57378 67
Width: 425
VWidth: 970
Flags: W
HStem: -1 30<76 203.859> 271 31<76 169.335>
VStem: 45 31<29 271 302 543> 243 31<352.307 454.874> 350 30<120.469 225.864>
LayerCount: 2
Fore
SplineSet
76 302 m 1
 134 304 189 317 219 343 c 0
 235 357 243 374 243 397 c 0
 243 478 168 537 76 543 c 1
 76 302 l 1
350 176 m 0
 350 230 318 248 271 260 c 0
 230 270 178 271 125 271 c 2
 76 271 l 1
 76 29 l 1
 179 31 289 53 331 114 c 0
 343 131 350 151 350 176 c 0
209 300 m 1
 297 293 380 272 380 176 c 0
 380 145 371 118 356 96 c 0
 305 22 181 -1 60 -1 c 0
 52 -1 45 6 45 14 c 2
 45 559 l 2
 45 567 52 574 60 574 c 0
 169 574 274 505 274 397 c 0
 274 348 243 317 209 300 c 1
EndSplineSet
Validated: 1
EndChar

StartChar: uniE042
Encoding: 57410 57410 68
Width: 425
VWidth: 970
Flags: W
HStem: -1 30<76 203.806> 176 30<76 181.685> 544 30<76 191.33>
VStem: 45 31<29 176 206 544> 243 31<57.6475 135.445> 350 30<320.424 440.882>
LayerCount: 2
Fore
SplineSet
76 206 m 1
 169 209 260 235 309 284 c 0
 335 310 350 342 350 382 c 0
 350 421 335 450 309 474 c 0
 259 519 169 542 76 544 c 1
 76 206 l 1
76 29 m 1
 136 29 207 32 233 63 c 0
 240 71 243 80 243 95 c 0
 243 110 239 122 232 131 c 0
 206 165 138 175 76 176 c 1
 76 29 l 1
380 382 m 0
 380 270 284 215 191 191 c 1
 234 178 274 150 274 95 c 0
 274 74 268 57 256 43 c 0
 219 -1 137 -1 60 -1 c 0
 52 -1 45 6 45 14 c 2
 45 559 l 2
 45 567 52 574 60 574 c 0
 161 574 267 554 329 497 c 0
 360 468 380 430 380 382 c 0
EndSplineSet
Validated: 1
EndChar

StartChar: uniE062
Encoding: 57442 57442 69
Width: 425
VWidth: 995
Flags: W
HStem: 24 30<76 208.304> 278 30<76 141.328 180 305.989> 526 31<76 215.979>
VStem: 45 31<54 275 306 526> 243 31<403.125 503.244> 350 30<139.469 240.951>
LayerCount: 2
Fore
SplineSet
243 467 m 0
 243 502 223 512 190 519 c 0
 159 526 117 526 76 526 c 1
 76 306 l 1
 169 313 243 380 243 467 c 0
350 195 m 0
 350 272 271 278 193 278 c 0
 154 278 112 275 76 275 c 1
 76 54 l 1
 178 56 288 74 331 133 c 0
 343 150 350 170 350 195 c 0
194 308 m 2
 290 308 380 292 380 195 c 0
 380 164 372 137 356 115 c 0
 304 43 180 24 60 24 c 0
 52 24 45 31 45 39 c 2
 45 542 l 2
 45 550 52 557 60 557 c 2
 86 557 l 2
 173 557 274 555 274 467 c 0
 274 398 235 342 180 308 c 1
 194 308 l 2
EndSplineSet
Validated: 1
EndChar

StartChar: uniE023
Encoding: 57379 57379 70
Width: 409
VWidth: 970
Flags: W
HStem: 544 30<69 338>
VStem: 38 31<-0.919434 544> 322 29<463.026 501>
LayerCount: 2
Fore
SplineSet
69 544 m 1
 69 14 l 2
 69 6 60 -1 52 -1 c 0
 44 -1 38 6 38 14 c 2
 38 559 l 2
 38 567 44 574 52 574 c 2
 358 574 l 2
 367 574 375 565 372 555 c 2
 351 474 l 2
 349 467 343 463 336 463 c 0
 327 463 319 472 322 482 c 2
 338 544 l 1
 69 544 l 1
EndSplineSet
Validated: 1
EndChar

StartChar: uniE043
Encoding: 57411 57411 71
Width: 410
VWidth: 970
Flags: W
HStem: 558 31<69 342>
VStem: 38 31<377.35 558> 58 31<-0.979645 205.05> 342 30<477.046 558>
LayerCount: 2
Fore
SplineSet
342 558 m 1xd0
 69 558 l 1xd0
 89 15 l 2
 89 6 83 -1 74 -1 c 0
 66 -1 58 6 58 14 c 2xb0
 38 573 l 2
 38 582 43 589 52 589 c 2
 358 589 l 2
 366 589 372 582 372 574 c 2
 372 492 l 2
 372 484 366 477 358 477 c 0
 350 477 342 484 342 492 c 2
 342 558 l 1xd0
EndSplineSet
Validated: 1
EndChar

StartChar: uniE063
Encoding: 57443 57443 72
Width: 410
VWidth: 995
Flags: W
HStem: 488 69<342 372> 526 31<69 342>
VStem: 38 31<24.0806 526> 342 30<488.046 526>
LayerCount: 2
Fore
SplineSet
342 526 m 1x70
 69 526 l 1
 69 39 l 2
 69 31 60 24 52 24 c 0
 44 24 38 31 38 39 c 2
 38 542 l 2
 38 550 44 557 52 557 c 2x70
 358 557 l 2
 366 557 372 550 372 542 c 2
 372 503 l 2
 372 495 366 488 358 488 c 0xb0
 350 488 342 495 342 503 c 2
 342 526 l 1x70
EndSplineSet
Validated: 1
EndChar

StartChar: uniE024
Encoding: 57380 57380 73
Width: 500
VWidth: 970
Flags: W
HStem: 0 29<73 116 152 348 382 428> 545 28<126 374>
VStem: 38 35<-105.81 0> 90 36<411.923 545> 116 36<29 167.923> 348 34<29 162.75> 428 35<-105.81 0>
LayerCount: 2
Fore
SplineSet
152 29 m 1xee
 348 29 l 1
 374 545 l 1
 126 545 l 1xf6
 152 29 l 1xee
62 -106 m 0
 51 -113 38 -112 38 -102 c 2
 38 8 l 2
 38 17 50 29 62 29 c 2
 116 29 l 1xee
 90 553 l 2xf6
 90 562 104 573 116 573 c 2xee
 398 573 l 2
 404 573 410 570 410 564 c 2
 382 29 l 1
 452 29 l 2
 458 29 463 26 463 20 c 2
 463 -90 l 2
 463 -95 459 -102 452 -106 c 0
 441 -113 428 -112 428 -102 c 2
 428 0 l 1
 310 0 191 0 73 0 c 1
 73 -90 l 2
 73 -95 69 -102 62 -106 c 0
EndSplineSet
Validated: 1
EndChar

StartChar: uniE044
Encoding: 57412 57412 74
Width: 500
VWidth: 995
Flags: W
HStem: 25 29<73 118 153 348 383 428> 517 28<153 348>
VStem: 38 35<-80.8103 25> 118 35<54 517> 348 35<54 517> 428 35<-80.8103 25>
LayerCount: 2
Fore
SplineSet
153 54 m 1
 348 54 l 1
 348 517 l 1
 153 517 l 1
 153 54 l 1
62 -81 m 0
 51 -88 38 -87 38 -77 c 2
 38 33 l 2
 38 42 50 54 62 54 c 2
 118 54 l 1
 118 525 l 2
 118 534 130 545 142 545 c 2
 372 545 l 2
 378 545 383 543 383 537 c 2
 383 54 l 1
 452 54 l 2
 458 54 463 51 463 45 c 2
 463 -65 l 2
 463 -70 459 -77 452 -81 c 0
 441 -88 428 -87 428 -77 c 2
 428 25 l 1
 362 25 l 1
 359 24 356 24 354 25 c 1
 132 25 l 1
 129 24 126 24 124 25 c 1
 73 25 l 1
 73 -65 l 2
 73 -70 69 -77 62 -81 c 0
EndSplineSet
Validated: 1
EndChar

StartChar: uniE064
Encoding: 57444 57444 75
Width: 499
VWidth: 970
Flags: W
HStem: 0 29<78 118 153 348 383 424> 545 28<153 348>
VStem: 64 35<-105.764 -74.3846> 118 35<29 545> 348 35<29 545>
LayerCount: 2
Fore
SplineSet
153 29 m 1
 348 29 l 1
 348 545 l 1
 153 545 l 1
 153 29 l 1
88 -106 m 0
 78 -112 66 -112 64 -104 c 2
 38 6 l 1
 38 8 l 2
 38 17 50 29 62 29 c 2
 118 29 l 1
 118 553 l 2
 118 562 130 573 142 573 c 2
 372 573 l 2
 378 573 383 571 383 565 c 2
 383 29 l 1
 452 29 l 2
 459 29 464 24 462 17 c 2
 436 -93 l 2
 435 -100 422 -110 412 -110 c 0
 405 -110 398 -106 400 -99 c 2
 424 0 l 1
 362 0 l 1
 359 -1 356 -1 354 0 c 1
 132 0 l 1
 129 -1 126 -1 124 0 c 1
 78 0 l 1
 99 -88 l 2
 100 -94 96 -101 88 -106 c 0
EndSplineSet
Validated: 1
EndChar

StartChar: uniE025
Encoding: 57381 57381 76
Width: 513
VWidth: 970
Flags: W
HStem: -79 29<280.547 368.238> 369 29<246.417 344.801> 545 28<23.9544 138 173 444.323>
VStem: 138 35<4.18968 286.44 314 545> 216 36<-25.4574 35.7166> 432 36<31.8214 256.289>
LayerCount: 2
Fore
SplineSet
252 23 m 2
 252 -19 285 -50 322 -50 c 0
 342 -50 356 -45 368 -38 c 0
 410 -13 432 59 432 133 c 0
 432 204 419 262 390 308 c 0
 368 344 338 369 292 369 c 0
 273 369 257 363 244 355 c 0
 202 330 173 264 173 197 c 2
 173 20 l 2
 173 15 169 8 162 4 c 0
 151 -3 138 -2 138 8 c 0
 138 187 138 366 138 545 c 1
 32 545 l 2
 25 545 22 548 22 553 c 0
 22 562 37 573 48 573 c 2
 158 573 l 1
 161 574 164 574 166 573 c 1
 436 573 l 2
 443 573 446 570 446 565 c 0
 446 556 434 545 422 545 c 2
 173 545 l 1
 173 314 l 1
 199 356 244 398 308 398 c 0
 364 398 400 367 424 329 c 0
 447 292 458 244 464 198 c 0
 466 180 468 161 468 143 c 0
 468 51 441 -21 380 -58 c 0
 358 -72 334 -79 308 -79 c 0
 273 -79 245 -61 230 -36 c 0
 222 -23 216 -8 216 9 c 0
 216 21 219 30 228 36 c 0
 240 43 253 42 252 31 c 1
 252 23 l 2
EndSplineSet
Validated: 1
EndChar

StartChar: uniE045
Encoding: 57413 57413 77
Width: 532
VWidth: 970
Flags: W
HStem: -79 29<280.547 375.411> 275 30<215.269 339.871> 545 28<23.9544 138 173 444.323>
VStem: 138 35<4.18968 243.94 262 545> 216 36<-25.4574 35.7166> 452 35<28.6782 172.036>
LayerCount: 2
Fore
SplineSet
252 23 m 2
 252 -19 285 -50 322 -50 c 0
 348 -50 369 -43 386 -32 c 0
 423 -9 452 36 452 96 c 0
 452 191 382 256 304 272 c 0
 293 274 283 275 272 275 c 0
 246 275 224 269 208 259 c 0
 189 247 173 228 173 197 c 2
 173 20 l 2
 173 15 169 8 162 4 c 0
 151 -3 138 -2 138 8 c 0
 138 187 138 366 138 545 c 1
 32 545 l 2
 25 545 22 548 22 553 c 0
 22 562 37 573 48 573 c 2
 158 573 l 1
 161 574 164 574 166 573 c 1
 436 573 l 2
 443 573 446 570 446 565 c 0
 446 556 434 545 422 545 c 2
 173 545 l 1
 173 262 l 1
 180 268 186 274 194 279 c 0
 221 296 255 305 288 305 c 0
 301 305 312 304 324 301 c 0
 410 284 487 212 487 109 c 0
 487 37 449 -22 400 -52 c 0
 372 -69 341 -79 308 -79 c 0
 273 -79 245 -61 230 -36 c 0
 222 -23 216 -8 216 9 c 0
 216 21 219 30 228 36 c 0
 240 43 253 42 252 31 c 1
 252 23 l 2
EndSplineSet
Validated: 1
EndChar

StartChar: uniE065
Encoding: 57445 57445 78
Width: 519
VWidth: 1010
Flags: W
HStem: 25 29<265.175 373.191> 315 29<216.031 343.695> 532 28<23.9544 138 173 444.323>
VStem: 138 35<44.1897 283.809 301 532> 440 35<117.023 237.74>
LayerCount: 2
Fore
SplineSet
446 552 m 0
 446 543 434 532 422 532 c 2
 173 532 l 1
 173 301 l 1
 180 307 186 313 194 318 c 0
 222 336 256 344 290 344 c 0
 302 344 313 343 324 341 c 0
 377 332 427 307 454 263 c 0
 465 244 475 213 475 187 c 0
 475 134 447 82 396 51 c 0
 370 35 339 25 308 25 c 0
 275 25 244 35 220 54 c 0
 218 56 216 58 216 60 c 0
 216 69 231 80 242 80 c 0
 245 80 248 80 250 78 c 0
 271 62 297 54 322 54 c 0
 346 54 366 61 382 71 c 0
 414 91 440 129 440 175 c 0
 440 197 431 226 420 242 c 0
 396 281 351 304 304 312 c 0
 294 314 285 315 276 315 c 0
 248 315 222 307 206 297 c 0
 187 285 173 267 173 237 c 2
 173 60 l 2
 173 55 169 48 162 44 c 0
 151 37 138 38 138 48 c 0
 138 209 138 371 138 532 c 1
 32 532 l 2
 25 532 22 535 22 540 c 0
 22 549 37 560 48 560 c 2
 158 560 l 1
 161 561 164 561 166 560 c 1
 436 560 l 2
 443 560 446 557 446 552 c 0
EndSplineSet
Validated: 1
EndChar

StartChar: uniE026
Encoding: 57382 57382 79
Width: 460
VWidth: 995
Flags: W
HStem: 25 29<95 398.508> 202 28<95 355.051> 527 29<95 398.508>
VStem: 60 35<54 202 230 527>
LayerCount: 2
Fore
SplineSet
400 45 m 0
 400 36 387 25 375 25 c 2
 70 25 l 2
 64 25 60 27 60 33 c 2
 60 536 l 2
 60 545 73 556 85 556 c 2
 390 556 l 2
 397 556 400 552 400 547 c 0
 400 538 387 527 375 527 c 2
 95 527 l 1
 95 230 l 1
 347 230 l 2
 354 230 357 227 357 222 c 0
 357 214 344 202 333 202 c 2
 95 202 l 1
 95 54 l 1
 390 54 l 2
 397 54 400 50 400 45 c 0
EndSplineSet
Validated: 1
EndChar

StartChar: uniE046
Encoding: 57414 57414 80
Width: 460
VWidth: 970
Flags: W
HStem: 0 29<95 398.508> 272 29<95 291.291> 545 28<95 398.194>
VStem: 60 35<29 272 301 545>
LayerCount: 2
Fore
SplineSet
400 20 m 0
 400 11 387 0 375 0 c 2
 70 0 l 2
 64 0 60 2 60 8 c 2
 60 553 l 2
 60 562 73 573 85 573 c 2
 390 573 l 2
 397 573 400 570 400 565 c 0
 400 556 387 545 375 545 c 2
 95 545 l 1
 95 301 l 1
 283 301 l 2
 290 301 293 297 293 292 c 0
 293 284 280 272 269 272 c 2
 95 272 l 1
 95 29 l 1
 390 29 l 2
 397 29 400 25 400 20 c 0
EndSplineSet
Validated: 1
EndChar

StartChar: uniE066
Encoding: 57446 57446 81
Width: 460
VWidth: 970
Flags: W
HStem: 0 29<95 398.508> 368 29<95 355.291> 545 28<95 398.194>
VStem: 60 35<29 368 397 545>
LayerCount: 2
Fore
SplineSet
400 20 m 0
 400 11 387 0 375 0 c 2
 70 0 l 2
 64 0 60 2 60 8 c 2
 60 553 l 2
 60 562 73 573 85 573 c 2
 390 573 l 2
 397 573 400 570 400 565 c 0
 400 556 387 545 375 545 c 2
 95 545 l 1
 95 397 l 1
 347 397 l 2
 354 397 357 393 357 388 c 0
 357 380 344 368 333 368 c 2
 95 368 l 1
 95 29 l 1
 390 29 l 2
 397 29 400 25 400 20 c 0
EndSplineSet
Validated: 1
EndChar

StartChar: uniE027
Encoding: 57383 57383 82
Width: 530
VWidth: 970
Flags: W
VStem: 30 35<34.2565 192.382> 50 35<454.604 570.998> 248 35<30.1904 311 344 473.81> 446 35<451.77 568.764> 465 35<28.7294 186.808>
LayerCount: 2
Fore
SplineSet
345 330 m 1x70
 430 303 500 224 500 116 c 0
 500 82 493 48 476 14 c 0
 472 5 461 0 453 0 c 0
 446 0 440 6 444 14 c 0
 458 43 465 74 465 104 c 0
 465 217 381 299 283 311 c 1
 283 47 l 2
 283 42 279 34 272 30 c 0
 261 23 248 25 248 35 c 2
 248 313 l 1
 176 309 123 270 94 220 c 0
 76 190 65 154 65 116 c 0
 65 86 72 54 87 24 c 0
 90 18 86 9 77 4 c 0
 68 -2 57 -1 54 5 c 0
 38 38 30 72 30 105 c 0xa8
 30 211 102 296 185 326 c 1
 111 352 50 421 50 518 c 0
 50 544 51 573 78 573 c 0
 84 573 88 570 88 565 c 0
 88 554 85 542 85 531 c 0
 85 429 162 356 248 344 c 1
 248 458 l 2
 248 463 252 470 259 474 c 0
 270 481 283 479 283 469 c 2
 283 342 l 1
 314 344 341 354 363 367 c 0
 410 396 446 452 446 519 c 0
 446 531 443 540 443 549 c 0
 443 557 445 564 454 569 c 0
 464 575 477 576 478 567 c 0
 480 555 481 544 481 532 c 0
 481 448 425 362 345 330 c 1x70
EndSplineSet
Validated: 1
EndChar

StartChar: uniE047
Encoding: 57415 57415 83
Width: 527
VWidth: 970
Flags: W
VStem: 30 36<390.034 549.906> 47 35<4.23583 131.744> 246 35<30.1904 236 268 473.81> 441 39<1.84653 134.444 477.032 572.833> 461 36<387.209 545.065>
LayerCount: 2
Fore
SplineSet
480 59 m 0x30
 480 33 479 0 451 0 c 0
 445 0 441 3 441 8 c 0
 441 21 445 33 445 46 c 0
 445 148 367 224 281 236 c 1
 281 47 l 2
 281 42 277 34 270 30 c 0
 259 23 246 25 246 35 c 2
 246 238 l 1
 215 236 188 226 165 212 c 0
 118 183 82 126 82 60 c 0
 82 48 83 35 86 22 c 0
 87 16 83 9 75 4 c 0
 65 -2 53 -2 51 6 c 0
 48 20 47 34 47 48 c 0x70
 47 122 86 192 153 233 c 0
 163 239 173 245 184 249 c 1
 100 276 30 356 30 463 c 0
 30 495 37 527 52 559 c 0
 56 568 67 573 75 573 c 0
 83 573 90 568 85 559 c 0
 72 531 66 503 66 474 c 0
 66 362 149 280 246 268 c 1
 246 458 l 2
 246 463 250 470 257 474 c 0
 268 481 281 479 281 469 c 2
 281 266 l 1
 354 270 402 309 432 358 c 0
 450 388 461 424 461 462 c 0xa8
 461 491 455 521 441 550 c 0x30
 441 551 440 552 440 553 c 0
 440 562 456 574 467 574 c 0
 471 574 474 573 475 569 c 0
 490 538 497 506 497 474 c 0x28
 497 384 444 312 383 274 c 0
 370 266 357 259 343 254 c 1
 417 228 480 156 480 59 c 0x30
EndSplineSet
Validated: 1
EndChar

StartChar: uniE067
Encoding: 57447 57447 84
Width: 574
VWidth: 970
Flags: W
HStem: 377 31<220.537 269>
VStem: 30 36<68.8597 238.269> 75 35<513.525 568.765> 269 36<30.1904 376 408 568.81> 464 35<507.091 568.812> 509 35<67.721 232.349>
LayerCount: 2
Fore
SplineSet
108 25 m 0
 112 19 109 10 99 4 c 0
 90 -1 80 -2 76 3 c 0
 45 48 30 97 30 146 c 0
 30 246 87 324 155 366 c 0
 171 376 187 384 205 390 c 1
 138 415 86 473 75 552 c 0
 74 558 78 564 86 569 c 0
 96 575 109 575 110 566 c 0
 123 480 191 420 269 408 c 1
 269 553 l 2
 269 558 274 565 281 569 c 0
 292 576 305 575 305 565 c 2
 305 406 l 1
 335 408 362 417 384 431 c 0
 424 456 456 499 464 555 c 0
 465 560 470 565 476 569 c 0
 488 576 501 574 499 563 c 0
 490 501 453 445 397 410 c 0
 388 404 379 399 369 395 c 1
 429 377 477 337 507 288 c 0
 530 250 544 205 544 158 c 0
 544 109 529 58 496 11 c 0
 491 4 482 0 475 0 c 0
 464 0 461 7 467 17 c 0
 495 57 509 102 509 147 c 0
 509 190 496 231 474 268 c 0
 438 326 378 368 305 376 c 1
 305 47 l 2
 305 42 300 34 293 30 c 0
 282 23 269 25 269 35 c 2
 269 377 l 1
 184 373 126 326 94 267 c 0
 76 234 66 196 66 156 c 0
 66 112 78 67 108 25 c 0
EndSplineSet
Validated: 1
EndChar

StartChar: uniE028
Encoding: 57384 57384 85
Width: 410
VWidth: 970
Flags: W
HStem: -1 30<38.0044 195.859> 271 31<38.0175 161.48> 544 30<38.0044 130.629>
VStem: 236 31<352.307 454.844> 342 30<119.049 225.885>
CounterMasks: 1 e0
LayerCount: 2
Fore
SplineSet
202 300 m 1
 289 293 372 271 372 176 c 0
 372 145 363 118 348 96 c 0
 297 22 173 -1 52 -1 c 0
 44 -1 38 6 38 14 c 0
 38 22 44 29 52 29 c 0
 161 29 280 50 324 114 c 0
 336 131 342 151 342 176 c 0
 342 231 311 248 264 260 c 0
 224 270 172 271 120 271 c 2
 52 271 l 2
 44 271 38 279 38 287 c 0
 38 295 44 302 52 302 c 0
 115 302 180 315 212 343 c 0
 228 357 236 374 236 397 c 0
 236 483 151 544 52 544 c 0
 44 544 38 551 38 559 c 0
 38 567 44 574 52 574 c 0
 161 574 267 505 267 397 c 0
 267 348 236 317 202 300 c 1
EndSplineSet
Validated: 1
EndChar

StartChar: uniE048
Encoding: 57416 57416 86
Width: 410
VWidth: 995
Flags: W
HStem: 24 30<38.0044 195.923> 201 30<38.0044 173.345> 526 31<38.0175 232.683>
VStem: 236 31<83.1763 158.861> 342 30<344.883 459.453>
LayerCount: 2
Fore
SplineSet
372 407 m 0
 372 296 277 240 184 216 c 1
 227 203 267 175 267 120 c 0
 267 99 260 82 248 68 c 0
 211 24 129 24 52 24 c 0
 44 24 38 31 38 39 c 0
 38 47 44 54 52 54 c 0
 116 54 198 55 226 88 c 0
 233 96 236 105 236 120 c 0
 236 135 231 147 224 156 c 0
 196 193 119 201 52 201 c 0
 44 201 38 208 38 216 c 0
 38 224 44 231 52 231 c 0
 150 231 250 257 302 309 c 0
 328 335 342 367 342 407 c 0
 342 431 336 449 324 464 c 0
 279 520 156 526 52 526 c 0
 44 526 38 534 38 542 c 0
 38 550 44 557 52 557 c 0
 168 557 295 550 348 483 c 0
 364 463 372 437 372 407 c 0
EndSplineSet
Validated: 1
EndChar

StartChar: uniE068
Encoding: 57448 57448 87
Width: 410
VWidth: 985
Flags: W
HStem: 14 30<38.0044 201.974> 268 30<38.3448 130.629 172 297.856> 516 31<38.0175 209.475>
VStem: 236 31<393.313 493.168> 342 30<128.049 231.347>
LayerCount: 2
Fore
SplineSet
236 457 m 0
 236 516 163 516 98 516 c 2
 52 516 l 2
 44 516 38 524 38 532 c 0
 38 540 44 547 52 547 c 2
 78 547 l 2
 149 547 221 546 252 504 c 0
 261 491 267 475 267 457 c 0
 267 388 227 332 172 298 c 1
 186 298 l 2
 282 298 372 283 372 185 c 0
 372 154 364 127 348 105 c 0
 296 33 172 14 52 14 c 0
 44 14 38 21 38 29 c 0
 38 37 44 44 52 44 c 0
 159 44 279 61 324 123 c 0
 336 140 342 160 342 185 c 0
 342 263 263 268 182 268 c 0
 140 268 95 265 52 265 c 0
 44 265 38 272 38 280 c 0
 38 288 44 296 52 296 c 0
 151 296 236 365 236 457 c 0
EndSplineSet
Validated: 1
EndChar

StartChar: uniE029
Encoding: 57385 57385 88
Width: 460
VWidth: 995
Flags: W
VStem: 60 35<62 551.81> 365 35<29.1897 178 206 551.81>
LayerCount: 2
Fore
SplineSet
376 552 m 0
 387 559 400 557 400 547 c 0
 400 380 400 212 400 45 c 0
 400 40 396 33 389 29 c 0
 378 22 365 23 365 33 c 2
 365 178 l 1
 82 28 l 2
 72 22 60 24 60 33 c 2
 60 536 l 2
 60 541 64 548 71 552 c 0
 82 559 95 557 95 547 c 2
 95 62 l 1
 365 206 l 1
 365 536 l 2
 365 541 369 548 376 552 c 0
EndSplineSet
Validated: 1
EndChar

StartChar: uniE049
Encoding: 57417 57417 89
Width: 460
VWidth: 970
Flags: W
VStem: 60 35<45 568.81> 365 35<4.18968 242 274 568.81>
LayerCount: 2
Fore
SplineSet
376 569 m 0
 387 576 400 575 400 565 c 0
 400 383 400 202 400 20 c 0
 400 15 396 8 389 4 c 0
 378 -3 365 -2 365 8 c 2
 365 242 l 1
 88 7 l 2
 83 2 76 0 70 0 c 0
 64 0 60 2 60 8 c 2
 60 553 l 2
 60 558 64 565 71 569 c 0
 82 576 95 575 95 565 c 2
 95 45 l 1
 365 274 l 1
 365 553 l 2
 365 558 369 565 376 569 c 0
EndSplineSet
Validated: 1
EndChar

StartChar: uniE069
Encoding: 57449 57449 90
Width: 460
VWidth: 970
Flags: W
VStem: 60 35<64 568.81> 365 35<4.18968 414 462 568.81>
LayerCount: 2
Fore
SplineSet
376 569 m 0
 387 576 400 575 400 565 c 0
 400 383 400 202 400 20 c 0
 400 15 396 8 389 4 c 0
 378 -3 365 -2 365 8 c 2
 365 414 l 1
 92 12 l 2
 87 4 76 0 69 0 c 0
 64 0 60 2 60 8 c 2
 60 553 l 2
 60 558 64 565 71 569 c 0
 82 576 95 575 95 565 c 2
 95 64 l 1
 365 462 l 1
 365 553 l 2
 365 558 369 565 376 569 c 0
EndSplineSet
Validated: 1
EndChar

StartChar: uniE02A
Encoding: 57386 57386 91
Width: 412
VWidth: 970
Flags: W
HStem: -25 31<88.434 230.167>
VStem: 342 30<121.906 576.954>
LayerCount: 2
Fore
SplineSet
342 562 m 2
 342 570 350 577 358 577 c 0
 366 577 372 570 372 562 c 2
 372 194 l 2
 372 94 305 5 208 -19 c 0
 192 -23 176 -25 160 -25 c 0
 119 -25 78 -13 44 11 c 0
 40 14 38 19 38 24 c 0
 38 33 44 39 52 39 c 0
 55 39 59 38 62 36 c 0
 91 16 125 6 160 6 c 0
 174 6 188 8 202 11 c 0
 285 32 342 107 342 194 c 2
 342 562 l 2
EndSplineSet
Validated: 1
EndChar

StartChar: uniE04A
Encoding: 57418 57418 92
Width: 412
VWidth: 970
Flags: W
HStem: -65 31<117.283 238.173>
VStem: 342 30<99.1383 576.995>
LayerCount: 2
Fore
SplineSet
342 562 m 2
 342 570 349 577 357 577 c 0
 365 577 372 570 372 562 c 2
 372 194 l 2
 372 81 321 -40 208 -62 c 0
 198 -64 187 -65 177 -65 c 0
 120 -65 67 -34 39 17 c 0
 33 28 41 39 52 39 c 0
 58 39 63 36 66 31 c 0
 89 -10 131 -34 177 -34 c 0
 185 -34 194 -34 202 -32 c 0
 294 -14 342 87 342 194 c 2
 342 562 l 2
EndSplineSet
Validated: 1
EndChar

StartChar: uniE06A
Encoding: 57450 57450 93
Width: 413
VWidth: 970
Flags: W
HStem: -63 31<130.351 248.868>
VStem: 38 31<30.4792 113.977> 342 31<91.4215 576.98>
LayerCount: 2
Fore
SplineSet
188 -32 m 0
 294 -32 342 80 342 194 c 2
 342 562 l 2
 342 570 350 577 358 577 c 0
 366 577 373 570 373 562 c 2
 373 194 l 2
 373 78 324 -47 208 -62 c 0
 202 -63 194 -63 188 -63 c 0
 105 -63 38 4 38 88 c 0
 38 92 38 96 38 100 c 0
 39 108 46 114 54 114 c 0
 62 114 69 106 69 98 c 2
 69 88 l 2
 69 21 122 -32 188 -32 c 0
EndSplineSet
Validated: 1
EndChar

StartChar: uniE02B
Encoding: 57387 57387 94
Width: 414
VWidth: 970
Flags: W
VStem: 38 35<4.18968 159 228 568.81>
LayerCount: 2
Fore
SplineSet
348 522 m 2
 354 528 362 531 368 531 c 0
 380 531 380 519 372 511 c 2
 78 198 l 1
 374 12 l 2
 377 10 378 8 378 5 c 0
 378 -4 364 -15 353 -15 c 0
 350 -15 348 -14 346 -13 c 2
 73 159 l 1
 73 20 l 2
 73 15 69 8 62 4 c 0
 51 -3 38 -2 38 8 c 0
 38 190 38 371 38 553 c 0
 38 558 41 565 48 569 c 0
 59 576 73 575 73 565 c 2
 73 228 l 1
 348 522 l 2
EndSplineSet
Validated: 1
EndChar

StartChar: uniE04B
Encoding: 57419 57419 95
Width: 415
VWidth: 970
Flags: W
VStem: 39 35<4.18968 244 322 568.81>
LayerCount: 2
Fore
SplineSet
307 565 m 2
 313 571 319 574 325 574 c 0
 337 574 340 563 331 554 c 2
 79 292 l 1
 377 11 l 2
 379 9 380 7 380 5 c 0
 380 -4 365 -15 354 -15 c 0
 351 -15 348 -14 346 -12 c 2
 74 244 l 1
 74 20 l 2
 74 15 70 8 63 4 c 0
 52 -3 39 -2 39 8 c 2
 39 278 l 1
 38 280 38 281 39 283 c 1
 39 553 l 2
 39 558 43 565 50 569 c 0
 61 576 74 575 74 565 c 2
 74 322 l 1
 307 565 l 2
EndSplineSet
Validated: 1
EndChar

StartChar: uniE06B
Encoding: 57451 57451 96
Width: 413
VWidth: 995
Flags: W
HStem: 10 21G<351.5 358.5>
VStem: 38 35<29.1897 184 258 551.81>
LayerCount: 2
Fore
SplineSet
304 545 m 2
 310 552 317 556 324 556 c 0
 334 556 339 547 332 538 c 2
 78 223 l 1
 374 37 l 2
 377 35 378 33 378 30 c 0
 378 21 364 10 353 10 c 0
 350 10 348 11 346 12 c 2
 73 184 l 1
 73 45 l 2
 73 40 69 33 62 29 c 0
 51 22 38 23 38 33 c 0
 38 201 38 368 38 536 c 0
 38 541 41 548 48 552 c 0
 59 559 73 557 73 547 c 2
 73 258 l 1
 304 545 l 2
EndSplineSet
Validated: 1
EndChar

StartChar: uniE02C
Encoding: 57388 57388 97
Width: 500
VWidth: 995
Flags: W
HStem: 20 31<87.3861 160.014> 516 30<213 440>
VStem: 45 30<64.347 134.855> 183 30<75.3237 516> 440 30<24.0051 516>
LayerCount: 2
Fore
SplineSet
45 96 m 0
 45 110 49 136 65 136 c 0
 75 136 84 125 79 114 c 0
 76 108 75 102 75 96 c 0
 75 72 96 51 123 51 c 0
 153 51 183 80 183 120 c 2
 183 531 l 2
 183 539 190 546 198 546 c 2
 455 546 l 2
 463 546 470 539 470 531 c 2
 470 39 l 2
 470 31 463 24 455 24 c 0
 447 24 440 31 440 39 c 2
 440 516 l 1
 213 516 l 1
 213 120 l 2
 213 66 173 20 123 20 c 0
 76 20 45 57 45 96 c 0
EndSplineSet
Validated: 1
EndChar

StartChar: uniE04C
Encoding: 57420 57420 98
Width: 500
VWidth: 970
Flags: W
HStem: -5 31<87.3861 160.014> 544 30<239 440>
VStem: 45 30<39.347 109.855> 183 30<50.3237 215.885> 440 30<-0.994896 544>
LayerCount: 2
Fore
SplineSet
45 71 m 0
 45 85 49 111 65 111 c 0
 75 111 84 100 79 89 c 0
 76 83 75 77 75 71 c 0
 75 47 96 26 123 26 c 0
 153 26 183 55 183 95 c 2
 183 96 l 1
 210 560 l 2
 210 568 217 574 225 574 c 2
 455 574 l 2
 463 574 470 567 470 559 c 2
 470 14 l 2
 470 6 463 -1 455 -1 c 0
 447 -1 440 6 440 14 c 2
 440 544 l 1
 239 544 l 1
 213 95 l 1
 213 41 173 -5 123 -5 c 0
 76 -5 45 32 45 71 c 0
EndSplineSet
Validated: 1
EndChar

StartChar: uniE06C
Encoding: 57452 57452 99
Width: 513
VWidth: 970
Flags: W
HStem: -18 31<66.6277 161.074> 544 30<226 452>
VStem: 196 30<49.5 544> 452 31<-0.979675 544>
LayerCount: 2
Fore
SplineSet
483 14 m 2
 483 6 476 -1 468 -1 c 0
 460 -1 452 6 452 14 c 2
 452 544 l 1
 226 544 l 1
 226 95 l 2
 226 29 171 -18 113 -18 c 0
 92 -18 71 -12 52 1 c 0
 48 4 45 9 45 14 c 0
 45 23 53 30 61 30 c 0
 64 30 66 29 69 27 c 0
 83 18 99 13 114 13 c 0
 157 13 196 47 196 95 c 2
 196 559 l 2
 196 567 203 574 211 574 c 2
 468 574 l 2
 476 574 483 567 483 559 c 2
 483 14 l 2
EndSplineSet
Validated: 1
EndChar

StartChar: uniE02D
Encoding: 57389 57389 100
Width: 630
VWidth: 995
Flags: W
HStem: 21 29<97.3464 160.384 476.218 540.381> 192 29<476 530.625> 517 28<219 441>
VStem: 45 36<63.4102 130.418> 184 35<70.8047 517> 441 35<45.4524 192 217 517> 565 35<69.7076 161.963>
LayerCount: 2
Fore
SplineSet
81 102 m 0
 81 73 104 50 134 50 c 0
 143 50 150 52 156 56 c 0
 169 64 184 84 184 114 c 2
 184 525 l 2
 184 534 197 545 209 545 c 2
 466 545 l 2
 472 545 476 543 476 537 c 2
 476 217 l 1
 486 220 494 221 503 221 c 2
 510 221 l 1
 562 217 600 176 600 123 c 0
 600 70 550 17 488 17 c 0
 477 17 441 21 441 33 c 0
 441 194 441 356 441 517 c 1
 219 517 l 1
 219 126 l 2
 219 76 177 21 117 21 c 0
 87 21 67 36 56 54 c 0
 50 65 45 77 45 91 c 0
 45 110 54 134 76 134 c 0
 82 134 86 131 86 126 c 0
 86 118 81 111 81 102 c 0
476 50 m 1
 485 47 492 45 500 45 c 0
 514 45 527 50 535 55 c 0
 550 64 565 84 565 114 c 0
 565 156 529 192 489 192 c 0
 485 192 480 192 476 191 c 1
 476 50 l 1
EndSplineSet
Validated: 1
EndChar

StartChar: uniE04D
Encoding: 57421 57421 101
Width: 630
VWidth: 970
Flags: W
HStem: -4 29<97.3464 160.384 476.328 539.565> 182 26<476 522.513> 545 28<245 441>
VStem: 45 36<38.4102 105.418> 184 35<45.8047 210.296> 441 35<23.0886 182 208 545> 565 35<49.5594 147.141>
LayerCount: 2
Fore
SplineSet
81 77 m 0
 81 48 104 25 134 25 c 0
 143 25 150 27 156 31 c 0
 169 39 184 59 184 89 c 2
 184 90 l 1
 211 554 l 2
 212 563 224 573 236 573 c 2
 466 573 l 2
 472 573 476 571 476 565 c 2
 476 208 l 1
 483 209 489 210 496 210 c 0
 555 210 600 163 600 108 c 2
 600 101 l 1
 597 46 546 -6 482 -6 c 0
 470 -6 458 -4 447 0 c 1
 446 0 l 1
 443 1 441 4 441 8 c 0
 441 187 441 366 441 545 c 1
 245 545 l 1
 219 101 l 1
 219 51 177 -4 117 -4 c 0
 87 -4 67 11 56 29 c 0
 50 40 45 52 45 66 c 0
 45 85 54 109 76 109 c 0
 82 109 86 106 86 101 c 0
 86 93 81 86 81 77 c 0
476 26 m 1
 483 24 490 23 497 23 c 0
 511 23 523 27 532 33 c 0
 547 43 563 61 565 90 c 0
 565 92 565 94 565 96 c 0
 565 134 539 168 504 178 c 0
 494 181 485 183 476 182 c 1
 476 26 l 1
EndSplineSet
Validated: 1
EndChar

StartChar: uniE06D
Encoding: 57453 57453 102
Width: 640
VWidth: 970
Flags: W
HStem: -16 29<64.6587 164.61> -6 29<488.321 546.349> 182 28<488 536.935> 545 28<231 452>
VStem: 196 35<44.8142 545> 452 36<23.0359 182 209 545> 576 36<49.5594 147.141>
LayerCount: 2
Fore
SplineSet
231 101 m 2x7e
 231 41 176 -16 108 -16 c 0
 87 -16 67 -11 49 1 c 0
 46 3 45 5 45 8 c 0
 45 17 60 29 71 29 c 0
 73 29 75 28 77 27 c 0
 93 17 109 13 123 13 c 0xbe
 138 13 151 17 161 23 c 0
 179 34 196 56 196 89 c 2
 196 553 l 2
 196 562 208 573 220 573 c 2
 477 573 l 2
 483 573 488 571 488 565 c 2
 488 209 l 1
 495 210 502 210 508 210 c 0
 567 210 612 163 612 108 c 2
 612 101 l 1
 609 46 558 -6 494 -6 c 0
 483 -6 452 -5 452 8 c 2
 452 545 l 1
 231 545 l 1
 231 101 l 2x7e
488 26 m 1
 495 24 502 23 508 23 c 0x7e
 522 23 535 27 544 33 c 0
 559 43 574 61 576 90 c 0
 576 92 576 94 576 96 c 0
 576 142 540 182 488 182 c 1
 488 26 l 1
EndSplineSet
Validated: 1
EndChar

StartChar: uniE02E
Encoding: 57390 57390 103
Width: 540
VWidth: 970
Flags: W
VStem: 60 31<-0.979675 483 565 573.98> 450 30<-0.994896 483 565 573.995>
LayerCount: 2
Fore
SplineSet
465 574 m 0
 473 574 480 567 480 559 c 2
 480 14 l 2
 480 6 473 -1 465 -1 c 0
 457 -1 450 6 450 14 c 2
 450 483 l 1
 284 89 l 2
 282 84 276 80 270 80 c 0
 264 80 258 84 256 89 c 2
 91 483 l 1
 91 14 l 2
 91 6 83 -1 75 -1 c 0
 67 -1 60 6 60 14 c 2
 60 559 l 2
 60 567 67 574 75 574 c 0
 81 574 87 570 89 565 c 2
 270 135 l 1
 451 565 l 2
 453 570 459 574 465 574 c 0
EndSplineSet
Validated: 1
EndChar

StartChar: uniE04E
Encoding: 57422 57422 104
Width: 540
VWidth: 970
Flags: W
VStem: 60 31<-0.979675 525> 450 30<-0.994896 525>
LayerCount: 2
Fore
SplineSet
455 570 m 2
 458 573 462 574 465 574 c 0
 473 574 480 568 480 559 c 2
 480 14 l 2
 480 6 473 -1 465 -1 c 0
 457 -1 450 6 450 14 c 2
 450 525 l 1
 280 371 l 2
 274 366 266 366 260 371 c 2
 91 525 l 1
 91 14 l 2
 91 6 83 -1 75 -1 c 0
 67 -1 60 6 60 14 c 2
 60 559 l 2
 60 568 67 574 75 574 c 0
 78 574 82 573 85 570 c 2
 270 403 l 1
 455 570 l 2
EndSplineSet
Validated: 1
EndChar

StartChar: uniE06E
Encoding: 57454 57454 105
Width: 540
VWidth: 995
Flags: W
VStem: 60 31<24.0203 455 537 545.98> 450 30<24.0051 455 537 545.995>
LayerCount: 2
Fore
SplineSet
465 546 m 0
 473 546 480 539 480 531 c 2
 480 39 l 2
 480 31 473 24 465 24 c 0
 457 24 450 31 450 39 c 2
 450 455 l 1
 284 60 l 2
 282 54 276 50 270 50 c 0
 264 50 258 54 256 60 c 2
 91 455 l 1
 91 39 l 2
 91 31 83 24 75 24 c 0
 67 24 60 31 60 39 c 2
 60 531 l 2
 60 539 67 546 75 546 c 0
 81 546 87 543 89 537 c 2
 270 105 l 1
 451 537 l 2
 453 543 459 546 465 546 c 0
EndSplineSet
Validated: 1
EndChar

StartChar: uniE02F
Encoding: 57391 57391 106
Width: 460
VWidth: 970
Flags: W
HStem: 368 29<95 365>
VStem: 60 35<4.18968 368 397 568.81> 365 35<4.18968 368 397 568.81>
LayerCount: 2
Fore
SplineSet
389 4 m 0
 378 -3 365 -2 365 8 c 2
 365 368 l 1
 95 368 l 1
 95 20 l 2
 95 15 91 8 84 4 c 0
 73 -3 60 -2 60 8 c 2
 60 553 l 2
 60 558 64 565 71 569 c 0
 82 576 95 575 95 565 c 2
 95 397 l 1
 365 397 l 1
 365 553 l 2
 365 558 369 565 376 569 c 0
 387 576 400 575 400 565 c 2
 400 20 l 2
 400 15 396 8 389 4 c 0
EndSplineSet
Validated: 1
EndChar

StartChar: uniE04F
Encoding: 57423 57423 107
Width: 460
VWidth: 995
Flags: W
HStem: 180 29<95 365>
VStem: 60 35<29.1897 180 209 530.81> 365 35<29.1897 180 209 530.81>
LayerCount: 2
Fore
SplineSet
389 29 m 0
 378 22 365 23 365 33 c 2
 365 180 l 1
 95 180 l 1
 95 45 l 2
 95 40 91 33 84 29 c 0
 73 22 60 23 60 33 c 2
 60 514 l 2
 60 519 64 527 71 531 c 0
 82 538 95 536 95 526 c 2
 95 209 l 1
 365 209 l 1
 365 514 l 2
 365 519 369 527 376 531 c 0
 387 538 400 536 400 526 c 2
 400 45 l 2
 400 40 396 33 389 29 c 0
EndSplineSet
Validated: 1
EndChar

StartChar: uniE06F
Encoding: 57455 57455 108
Width: 477
VWidth: 970
Flags: W
HStem: 177 28<113 382>
VStem: 77 36<4.18968 177 205 568.81> 382 35<4.18968 177 205 568.81>
LayerCount: 2
Fore
SplineSet
60 185 m 0
 60 192 69 200 77 204 c 1
 77 553 l 2
 77 558 82 565 89 569 c 0
 100 576 113 575 113 565 c 2
 113 205 l 1
 382 205 l 1
 382 553 l 2
 382 558 386 565 393 569 c 0
 404 576 417 575 417 565 c 2
 417 20 l 2
 417 15 413 8 406 4 c 0
 395 -3 382 -2 382 8 c 2
 382 177 l 1
 113 177 l 1
 113 20 l 2
 113 15 108 8 101 4 c 0
 90 -3 77 -2 77 8 c 2
 77 177 l 1
 70 177 l 2
 63 177 60 180 60 185 c 0
EndSplineSet
Validated: 1
EndChar

StartChar: uniE030
Encoding: 57392 57392 109
Width: 626
VWidth: 970
Flags: W
HStem: 368 29<95 365 400 425.354>
VStem: 60 35<4.18968 368 397 568.81> 365 35<29 363 397 568.81> 531 35<123.09 266.199>
LayerCount: 2
Fore
SplineSet
400 29 m 1
 421 32 439 41 455 51 c 0
 497 77 529 125 531 185 c 1
 531 190 l 2
 531 280 472 343 400 363 c 1
 400 29 l 1
400 396 m 1
 492 382 566 308 566 201 c 2
 566 196 l 1
 563 101 486 10 381 0 c 0
 374 -2 367 0 365 5 c 1
 365 126 365 247 365 368 c 1
 95 368 l 1
 95 20 l 2
 95 15 91 8 84 4 c 0
 73 -3 60 -2 60 8 c 2
 60 553 l 2
 60 558 64 565 71 569 c 0
 82 576 95 575 95 565 c 2
 95 397 l 1
 365 397 l 1
 365 553 l 2
 365 558 369 565 376 569 c 0
 387 576 400 575 400 565 c 2
 400 396 l 1
EndSplineSet
Validated: 1
EndChar

StartChar: uniE050
Encoding: 57424 57424 110
Width: 563
VWidth: 995
Flags: W
HStem: 22 29<390.5 444.208> 180 29<95 365 400 442.633>
VStem: 60 35<29.1897 180 209 530.81> 365 35<51 180 211 530.81> 467 36<67.8236 159.033>
LayerCount: 2
Fore
SplineSet
400 52 m 5
 405 51 409 51 413 51 c 4
 424 51 433 53 440 58 c 4
 454 67 467 85 467 111 c 4
 467 147 440 183 400 183 c 5
 400 52 l 5
396 22 m 4
 385 22 365 22 365 34 c 4
 365 35 365 35 365 36 c 5
 365 180 l 5
 95 180 l 5
 95 45 l 6
 95 40 91 33 84 29 c 4
 73 22 60 23 60 33 c 6
 60 514 l 6
 60 519 64 527 71 531 c 4
 82 538 95 536 95 526 c 6
 95 209 l 5
 365 209 l 5
 365 514 l 6
 365 519 369 527 376 531 c 4
 387 538 400 536 400 526 c 6
 400 211 l 5
 404 211 408 212 412 212 c 4
 462 212 503 174 503 124 c 4
 503 91 486 58 453 38 c 4
 435 27 415 22 396 22 c 4
EndSplineSet
Validated: 1
EndChar

StartChar: uniE070
Encoding: 57456 57456 111
Width: 580
VWidth: 970
Flags: W
HStem: -1 28<417 453.623> 177 28<113 382 417 448.217>
VStem: 77 36<4.18968 177 205 568.81> 382 35<27 177 206 568.81> 485 35<51.8509 145.12>
LayerCount: 2
Fore
SplineSet
417 27 m 1
 422 27 l 2
 435 27 446 31 454 36 c 0
 468 45 483 63 485 90 c 1
 485 95 l 2
 485 139 452 171 417 177 c 1
 417 27 l 1
520 100 m 1
 517 49 468 -1 407 -1 c 0
 402 -1 397 -1 393 0 c 0
 387 0 382 2 382 8 c 2
 382 177 l 1
 113 177 l 1
 113 20 l 2
 113 15 108 8 101 4 c 0
 90 -3 77 -2 77 8 c 2
 77 177 l 1
 70 177 l 2
 63 177 60 180 60 185 c 0
 60 192 69 200 77 204 c 1
 77 553 l 2
 77 558 82 565 89 569 c 0
 100 576 113 575 113 565 c 2
 113 205 l 1
 382 205 l 1
 382 553 l 2
 382 558 386 565 393 569 c 0
 404 576 417 575 417 565 c 2
 417 206 l 1
 421 206 l 2
 476 206 520 165 520 108 c 2
 520 100 l 1
EndSplineSet
Validated: 1
EndChar

StartChar: uniE031
Encoding: 57393 57393 112
Width: 514
VWidth: 970
Flags: W
HStem: -4 31<187.692 329.178> 541 31<192.158 319.422>
VStem: 30 31<174.025 371.715> 454 30<177.112 369.714>
LayerCount: 2
Fore
SplineSet
257 541 m 0
 142 541 61 407 61 270 c 0
 61 136 139 27 257 27 c 0
 375 27 454 136 454 270 c 0
 454 406 371 541 257 541 c 0
257 572 m 0
 362 572 436 481 467 384 c 0
 479 346 484 307 484 270 c 0
 484 126 397 -4 257 -4 c 0
 117 -4 30 126 30 270 c 0
 30 307 36 346 48 384 c 0
 79 481 152 572 257 572 c 0
EndSplineSet
Validated: 1
EndChar

StartChar: uniE051
Encoding: 57425 57425 113
Width: 519
VWidth: 985
Flags: W
HStem: 10 30<186.904 320.422> 529 30<198.208 331.975>
VStem: 30 31<183.385 364.306> 458 31<199.099 387.716>
LayerCount: 2
Fore
SplineSet
264 41 m 0
 375 45 458 162 458 296 c 0
 458 423 379 529 264 529 c 0
 150 529 61 404 61 272 c 0
 61 145 142 40 257 40 c 0
 259 40 262 41 264 41 c 0
30 272 m 0
 30 420 130 559 264 559 c 0
 401 559 489 434 489 296 c 0
 489 264 484 231 474 198 c 0
 445 100 369 14 265 10 c 1
 257 10 l 2
 121 10 30 134 30 272 c 0
EndSplineSet
Validated: 1
EndChar

StartChar: uniE071
Encoding: 57457 57457 114
Width: 507
VWidth: 985
Flags: W
HStem: 10 30<189.027 317.088> 528 31<182.857 323.436>
VStem: 30 31<197.895 386.35> 446 31<197.895 386.556>
LayerCount: 2
Fore
SplineSet
61 294 m 0
 61 160 143 40 253 40 c 0
 363 40 446 160 446 294 c 0
 446 422 367 528 253 528 c 0
 139 528 61 422 61 294 c 0
30 294 m 0
 30 433 117 559 253 559 c 0
 390 559 477 434 477 294 c 0
 477 262 472 230 463 198 c 0
 434 99 359 10 253 10 c 0
 147 10 73 99 44 198 c 0
 35 230 30 262 30 294 c 0
EndSplineSet
Validated: 1
EndChar

StartChar: uniE032
Encoding: 57394 57394 115
Width: 503
VWidth: 970
Flags: W
HStem: 544 30<91 413>
VStem: 60 31<-0.979675 544> 413 30<-0.994896 544>
LayerCount: 2
Fore
SplineSet
413 544 m 1
 91 544 l 1
 91 14 l 2
 91 6 83 -1 75 -1 c 0
 67 -1 60 6 60 14 c 2
 60 559 l 2
 60 567 67 574 75 574 c 2
 428 574 l 2
 436 574 443 567 443 559 c 2
 443 14 l 2
 443 6 436 -1 428 -1 c 0
 420 -1 413 6 413 14 c 2
 413 544 l 1
EndSplineSet
Validated: 1
EndChar

StartChar: uniE052
Encoding: 57426 57426 116
Width: 503
VWidth: 985
Flags: W
HStem: 538 30<91 413>
VStem: 60 31<14.0203 538> 413 30<14.0051 538>
LayerCount: 2
Fore
SplineSet
413 538 m 1
 91 538 l 1
 91 29 l 2
 91 21 83 14 75 14 c 0
 67 14 60 21 60 29 c 2
 60 553 l 2
 60 561 67 568 75 568 c 2
 428 568 l 2
 436 568 443 561 443 553 c 2
 443 29 l 2
 443 21 436 14 428 14 c 0
 420 14 413 21 413 29 c 2
 413 538 l 1
EndSplineSet
Validated: 1
EndChar

StartChar: uniE072
Encoding: 57458 57458 117
Width: 503
VWidth: 970
Flags: W
HStem: 544 30<91 412>
VStem: 60 31<376.333 544> 81 31<-0.979645 191.333> 391 31<-0.979645 191.333> 412 31<376.333 544>
LayerCount: 2
Fore
SplineSet
112 15 m 2xa0
 112 6 106 -1 97 -1 c 0
 89 -1 81 5 81 13 c 2xa0
 60 558 l 2
 60 567 66 574 75 574 c 2
 428 574 l 2
 437 574 443 567 443 558 c 2xc8
 422 13 l 2
 422 5 415 -1 407 -1 c 0
 398 -1 391 6 391 15 c 2x90
 412 544 l 1
 91 544 l 1xc8
 112 15 l 2xa0
EndSplineSet
Validated: 1
EndChar

StartChar: uniE033
Encoding: 57395 57395 118
Width: 443
VWidth: 980
Flags: W
HStem: 9 21G<48 56> 186 30<69 165.444> 554 30<69 246.771>
VStem: 38 31<9.08057 186 216 554> 360 31<358.12 480.067>
LayerCount: 2
Fore
SplineSet
342 301 m 0
 285 235 185 190 69 186 c 1
 69 24 l 2
 69 16 60 9 52 9 c 0
 44 9 38 16 38 24 c 2
 38 569 l 2
 38 577 44 584 52 584 c 0
 179 584 324 583 370 495 c 0
 384 470 391 444 391 419 c 0
 391 376 372 335 342 301 c 0
360 419 m 0
 360 551 204 554 69 554 c 1
 69 216 l 1
 178 220 270 263 320 321 c 0
 346 351 360 385 360 419 c 0
EndSplineSet
Validated: 1
EndChar

StartChar: uniE053
Encoding: 57427 57427 119
Width: 427
VWidth: 995
Flags: W
HStem: 201 30<69 184.981> 526 31<69 220.859>
VStem: 38 31<24.0806 201 231 526> 344 31<331.947 443.558>
LayerCount: 2
Fore
SplineSet
52 24 m 0
 44 24 38 31 38 39 c 2
 38 542 l 2
 38 550 44 557 52 557 c 0
 197 557 354 539 372 409 c 0
 373 402 375 395 375 388 c 0
 375 326 336 279 280 249 c 0
 222 218 146 203 69 201 c 1
 69 39 l 2
 69 31 60 24 52 24 c 0
69 231 m 1
 143 233 215 248 266 276 c 0
 315 303 344 338 344 387 c 0
 344 393 343 399 342 405 c 0
 326 511 192 524 69 526 c 1
 69 231 l 1
EndSplineSet
Validated: 1
EndChar

StartChar: uniE073
Encoding: 57459 57459 120
Width: 421
VWidth: 970
Flags: W
HStem: 163 31<70.1312 274.518> 171 31<69 158.36 162.016 288.198> 544 30<69 159.607>
VStem: 38 31<-0.919434 171 199.209 544> 338 31<254.895 391.207>
LayerCount: 2
Fore
SplineSet
369 320 m 0x78
 369 257 337 199 274 177 c 0
 247 168 203 163 160 163 c 0xb8
 126 163 95 166 69 171 c 1
 69 14 l 2
 69 6 60 -1 52 -1 c 0
 44 -1 38 6 38 14 c 2
 38 559 l 2
 38 567 44 574 52 574 c 0
 263 574 369 437 369 320 c 0x78
160 194 m 0
 201 194 244 198 264 205 c 0
 313 222 338 266 338 320 c 0
 338 416 255 538 69 544 c 1
 69 202 l 1x78
 91 197 125 194 160 194 c 0
EndSplineSet
Validated: 1
EndChar

StartChar: uniE034
Encoding: 57396 57396 121
Width: 528
VWidth: 970
Flags: W
HStem: -5 31<226.056 367.611> 546 30<212.204 347.771>
VStem: 45 31<199.267 391.598> 453 30<368.005 442.195>
LayerCount: 2
Fore
SplineSet
296 -5 m 0
 154 -5 45 135 45 296 c 0
 45 429 121 558 253 575 c 0
 262 576 271 576 280 576 c 0
 387 576 477 493 483 384 c 0
 483 375 477 368 468 368 c 0
 460 368 453 374 453 382 c 0
 448 475 371 546 280 546 c 0
 273 546 265 545 257 544 c 0
 146 530 76 419 76 296 c 0
 76 147 176 26 296 26 c 0
 347 26 385 44 412 74 c 0
 415 77 419 79 423 79 c 0
 431 79 439 73 439 64 c 0
 439 60 438 57 435 54 c 0
 401 18 357 -5 296 -5 c 0
EndSplineSet
Validated: 1
EndChar

StartChar: uniE054
Encoding: 57428 57428 122
Width: 520
VWidth: 995
Flags: W
HStem: 24 30<230.92 389.753> 520 31<208.32 350.604>
VStem: 45 31<209.91 378.421>
LayerCount: 2
Fore
SplineSet
475 417 m 0
 479 406 471 396 461 396 c 0
 454 396 449 400 447 406 c 0
 421 475 354 520 281 520 c 2
 268 520 l 1
 155 511 76 411 76 297 c 0
 76 273 79 248 86 224 c 0
 112 139 182 74 269 58 c 0
 283 55 296 54 310 54 c 0
 361 54 412 71 452 104 c 0
 455 106 458 107 461 107 c 0
 469 107 476 101 476 93 c 0
 476 88 474 84 471 81 c 0
 425 44 368 24 310 24 c 0
 294 24 279 25 264 28 c 0
 165 46 86 120 57 216 c 0
 49 243 45 270 45 297 c 0
 45 425 134 540 265 550 c 0
 270 550 276 551 281 551 c 0
 367 551 444 498 475 417 c 0
EndSplineSet
Validated: 1
EndChar

StartChar: uniE074
Encoding: 57460 57460 123
Width: 511
VWidth: 970
Flags: W
HStem: -2 31<252.674 400.651> 545 30<207.835 356.66>
VStem: 45 31<220.576 402.071>
LayerCount: 2
Fore
SplineSet
76 312 m 0
 76 153 193 29 336 29 c 0
 375 29 413 45 440 73 c 0
 443 76 447 78 451 78 c 0
 459 78 466 72 466 63 c 0
 466 59 465 55 462 52 c 0
 429 17 384 -2 336 -2 c 0
 180 -2 60 129 46 285 c 0
 45 294 45 303 45 312 c 0
 45 405 86 497 169 545 c 0
 205 565 243 575 282 575 c 0
 351 575 418 544 463 486 c 0
 465 483 466 480 466 477 c 0
 466 469 460 462 451 462 c 0
 446 462 442 464 439 468 c 0
 400 518 342 545 282 545 c 0
 150 545 76 428 76 312 c 0
EndSplineSet
Validated: 1
EndChar

StartChar: uniE035
Encoding: 57397 57397 124
Width: 447
VWidth: 995
Flags: W
HStem: 527 29<31.4918 206 241 415.291>
VStem: 206 35<29.1897 527>
LayerCount: 2
Fore
SplineSet
417 547 m 0
 417 539 404 527 393 527 c 2
 241 527 l 1
 241 45 l 2
 241 40 237 33 230 29 c 0
 219 22 206 23 206 33 c 2
 206 527 l 1
 40 527 l 2
 33 527 30 531 30 536 c 0
 30 545 43 556 55 556 c 0
 172 556 290 556 407 556 c 0
 414 556 417 552 417 547 c 0
EndSplineSet
Validated: 1
EndChar

StartChar: uniE055
Encoding: 57429 57429 125
Width: 483
VWidth: 970
Flags: W
HStem: 545 28<31.8064 224 259 451.623>
VStem: 224 35<4.18968 545>
LayerCount: 2
Fore
SplineSet
453 564 m 0
 453 555 439 545 428 545 c 2
 259 545 l 1
 259 20 l 2
 259 15 255 8 248 4 c 0
 237 -3 224 -2 224 8 c 2
 224 545 l 1
 40 545 l 2
 33 545 30 548 30 553 c 0
 30 562 43 573 55 573 c 2
 245 573 l 1
 248 574 251 574 253 573 c 1
 442 573 l 2
 449 573 453 569 453 564 c 0
EndSplineSet
Validated: 1
EndChar

StartChar: uniE075
Encoding: 57461 57461 126
Width: 447
VWidth: 970
Flags: W
HStem: 545 28<31.8064 206 242 415.051>
VStem: 206 36<388.375 545> 230 35<4.18968 164.625>
LayerCount: 2
Fore
SplineSet
417 565 m 0xc0
 417 557 404 545 393 545 c 2
 242 545 l 1xc0
 265 20 l 2
 265 15 261 8 254 4 c 0
 243 -3 230 -1 230 8 c 2xa0
 206 545 l 1
 40 545 l 2
 33 545 30 548 30 553 c 0
 30 562 43 573 55 573 c 0
 172 573 290 573 407 573 c 0
 414 573 417 570 417 565 c 0xc0
EndSplineSet
Validated: 1
EndChar

StartChar: uniE036
Encoding: 57398 57398 127
Width: 509
VWidth: 970
Flags: W
HStem: 273 29<224.538 367.715> 545 28<23.9544 138 173 444.323>
VStem: 138 35<4.18968 241.376 259 545> 430 35<4.18968 219.319>
LayerCount: 2
Fore
SplineSet
173 259 m 1
 206 286 255 302 304 302 c 0
 311 302 316 301 322 301 c 0
 375 297 428 278 452 240 c 0
 460 228 465 213 465 197 c 2
 465 20 l 2
 465 15 461 8 454 4 c 0
 443 -3 430 -2 430 8 c 2
 430 185 l 2
 430 198 426 210 420 220 c 0
 401 251 353 269 306 272 c 0
 301 272 295 273 290 273 c 0
 255 273 224 264 204 252 c 0
 186 241 173 225 173 197 c 2
 173 20 l 2
 173 15 169 8 162 4 c 0
 151 -3 138 -2 138 8 c 0
 138 187 138 366 138 545 c 1
 32 545 l 2
 25 545 22 548 22 553 c 0
 22 562 37 573 48 573 c 2
 158 573 l 1
 161 574 164 574 166 573 c 1
 436 573 l 2
 443 573 446 570 446 565 c 0
 446 556 434 545 422 545 c 2
 173 545 l 1
 173 259 l 1
EndSplineSet
Validated: 1
EndChar

StartChar: uniE056
Encoding: 57430 57430 128
Width: 509
VWidth: 970
Flags: W
HStem: 273 29<224.538 367.715> 545 28<23.9544 138 173 312.896>
VStem: 138 35<4.18968 241.376 259 545> 430 35<4.18968 219.319>
LayerCount: 2
Fore
SplineSet
173 259 m 1
 206 286 255 302 304 302 c 0
 311 302 316 301 322 301 c 0
 375 297 428 278 452 240 c 0
 460 228 465 213 465 197 c 2
 465 20 l 2
 465 15 461 8 454 4 c 0
 443 -3 430 -2 430 8 c 2
 430 185 l 2
 430 198 426 210 420 220 c 0
 401 251 353 269 306 272 c 0
 301 272 295 273 290 273 c 0
 255 273 224 264 204 252 c 0
 186 241 173 225 173 197 c 2
 173 20 l 2
 173 15 169 8 162 4 c 0
 151 -3 138 -2 138 8 c 0
 138 187 138 366 138 545 c 1
 32 545 l 2
 25 545 22 548 22 553 c 0
 22 562 37 573 48 573 c 2
 158 573 l 1
 161 574 164 574 166 573 c 1
 304 573 l 2
 311 573 314 569 314 564 c 0
 314 554 301 545 290 545 c 2
 173 545 l 1
 173 259 l 1
EndSplineSet
Validated: 1
EndChar

StartChar: uniE076
Encoding: 57462 57462 129
Width: 509
VWidth: 985
Flags: W
HStem: 383 30<249.183 348.505> 507 28<23.9544 138 173 444.323>
VStem: 138 35<19.1897 300.683 328 507> 430 35<19.1897 290.921>
LayerCount: 2
Fore
SplineSet
430 200 m 2
 430 287 384 377 306 383 c 1
 296 383 l 2
 275 383 258 378 244 369 c 0
 202 342 173 280 173 212 c 2
 173 35 l 2
 173 30 169 23 162 19 c 0
 151 12 138 13 138 23 c 0
 138 184 138 346 138 507 c 1
 32 507 l 2
 25 507 22 510 22 515 c 0
 22 524 37 535 48 535 c 2
 158 535 l 1
 161 536 164 536 166 535 c 1
 436 535 l 2
 443 535 446 532 446 527 c 0
 446 518 434 507 422 507 c 2
 173 507 l 1
 173 328 l 1
 199 370 248 413 312 413 c 0
 316 413 320 412 324 412 c 0
 415 405 465 309 465 212 c 2
 465 35 l 2
 465 30 461 23 454 19 c 0
 443 12 430 13 430 23 c 2
 430 200 l 2
EndSplineSet
Validated: 1
EndChar

StartChar: uniE037
Encoding: 57399 57399 130
Width: 441
VWidth: 970
Flags: W
LayerCount: 2
Fore
SplineSet
34 547 m 2
 32 549 31 551 31 553 c 0
 31 562 45 573 56 573 c 0
 59 573 61 572 63 571 c 1
 293 400 l 1
 380 560 l 2
 385 568 395 573 403 573 c 0
 411 573 416 567 412 558 c 2
 112 13 l 2
 107 5 97 0 89 0 c 0
 80 0 77 7 81 15 c 2
 275 368 l 1
 273 368 271 369 270 370 c 2
 34 547 l 2
EndSplineSet
Validated: 1
EndChar

StartChar: uniE057
Encoding: 57431 57431 131
Width: 442
VWidth: 970
Flags: W
LayerCount: 2
Fore
SplineSet
34 548 m 2
 33 549 33 551 33 553 c 0
 33 562 47 574 58 574 c 0
 61 574 65 573 67 570 c 2
 249 318 l 1
 382 560 l 2
 387 568 397 573 405 573 c 0
 413 573 418 567 414 558 c 2
 114 13 l 2
 109 5 98 0 90 0 c 0
 81 0 79 7 83 15 c 2
 228 281 l 1
 34 548 l 2
EndSplineSet
Validated: 1
EndChar

StartChar: uniE077
Encoding: 57463 57463 132
Width: 441
VWidth: 995
Flags: W
LayerCount: 2
Fore
SplineSet
33 525 m 2
 32 527 31 528 31 530 c 0
 31 539 45 551 56 551 c 0
 59 551 62 550 64 548 c 2
 280 318 l 1
 380 536 l 2
 384 545 395 550 403 550 c 0
 410 550 416 545 412 537 c 2
 300 291 l 2
 300 289 298 287 297 285 c 2
 185 40 l 2
 181 31 170 25 161 25 c 0
 154 25 148 31 152 39 c 2
 263 280 l 1
 33 525 l 2
EndSplineSet
Validated: 1
EndChar

StartChar: uniE038
Encoding: 57400 57400 133
Width: 531
VWidth: 970
Flags: W
HStem: 95 30<190.678 248> 449 28<168.884 248 283 356.249>
VStem: 30 36<234.849 370.971> 248 35<4.18968 95 125 448 478 568.81> 466 35<232.335 362.884>
LayerCount: 2
Fore
SplineSet
248 449 m 1
 147 447 66 409 66 308 c 0
 66 279 74 249 91 222 c 0
 122 172 180 133 248 125 c 1
 248 449 l 1
283 124 m 1
 384 129 466 202 466 295 c 0
 466 321 459 347 443 373 c 0
 410 425 348 444 283 448 c 1
 283 124 l 1
30 296 m 0
 30 415 137 472 248 477 c 1
 248 553 l 2
 248 558 252 565 259 569 c 0
 270 576 283 575 283 565 c 2
 283 478 l 1
 358 477 437 458 476 394 c 0
 493 367 501 337 501 307 c 0
 501 241 462 175 395 134 c 0
 362 114 324 100 283 96 c 1
 283 20 l 2
 283 15 279 8 272 4 c 0
 261 -3 248 -2 248 8 c 2
 248 95 l 1
 162 98 94 143 58 201 c 0
 40 230 30 262 30 296 c 0
EndSplineSet
Validated: 1
EndChar

StartChar: uniE058
Encoding: 57432 57432 134
Width: 520
VWidth: 970
Flags: W
HStem: 93 29<278 367.948> 96 33<198.191 243> 444 33<278 325.375> 451 29<148.593 243>
VStem: 30 36<246.738 378.388> 243 35<4.18968 93 129 444 480 568.81> 455 35<194.334 326.723>
LayerCount: 2
Fore
SplineSet
301 122 m 0xae
 389 122 455 168 455 256 c 0
 455 285 446 314 430 341 c 0
 400 390 344 429 278 444 c 1
 278 123 l 1
 286 122 293 122 301 122 c 0xae
220 451 m 0x5e
 132 451 66 405 66 317 c 0
 66 288 75 260 91 233 c 0
 121 184 177 145 243 129 c 1
 243 450 l 1
 235 451 228 451 220 451 c 0x5e
490 268 m 0
 490 157 394 93 286 93 c 2
 278 93 l 1xae
 278 20 l 2
 278 15 274 8 267 4 c 0
 256 -3 243 -2 243 8 c 2
 243 96 l 1
 160 109 94 154 58 212 c 0
 41 240 30 272 30 305 c 0
 30 369 68 421 111 448 c 0
 148 471 190 480 232 480 c 2
 243 480 l 1x5e
 243 553 l 2
 243 558 247 565 254 569 c 0
 265 576 278 575 278 565 c 2
 278 477 l 1x2e
 361 464 427 419 463 361 c 0
 480 333 490 301 490 268 c 0
EndSplineSet
Validated: 1
EndChar

StartChar: uniE078
Encoding: 57464 57464 135
Width: 520
VWidth: 970
Flags: W
HStem: 93 29<278 367.948> 96 33<198.191 243> 444 33<278 325.375> 451 29<148.593 243>
VStem: 30 36<246.738 378.388> 243 35<4.18968 93 129 444 480 568.81> 455 35<194.334 326.723>
LayerCount: 2
Fore
SplineSet
301 122 m 0xae
 389 122 455 168 455 256 c 0
 455 285 446 314 430 341 c 0
 400 390 344 429 278 444 c 1
 278 123 l 1
 286 122 293 122 301 122 c 0xae
220 451 m 0x5e
 132 451 66 405 66 317 c 0
 66 288 75 260 91 233 c 0
 121 184 177 145 243 129 c 1
 243 450 l 1
 235 451 228 451 220 451 c 0x5e
490 268 m 0
 490 157 394 93 286 93 c 2
 278 93 l 1xae
 278 20 l 2
 278 15 274 8 267 4 c 0
 256 -3 243 -2 243 8 c 2
 243 96 l 1
 160 109 94 154 58 212 c 0
 41 240 30 272 30 305 c 0
 30 369 68 421 111 448 c 0
 148 471 190 480 232 480 c 2
 243 480 l 1x5e
 243 553 l 2
 243 558 247 565 254 569 c 0
 265 576 278 575 278 565 c 2
 278 477 l 1x2e
 361 464 427 419 463 361 c 0
 480 333 490 301 490 268 c 0
EndSplineSet
Validated: 1
EndChar

StartChar: uniE039
Encoding: 57401 57401 136
Width: 477
VWidth: 970
Flags: W
LayerCount: 2
Fore
SplineSet
56 569 m 0
 65 575 76 575 79 569 c 2
 241 276 l 1
 399 560 l 2
 404 568 415 573 423 573 c 0
 432 573 435 566 431 558 c 2
 258 246 l 1
 381 24 l 2
 384 18 380 10 371 4 c 0
 362 -2 351 -2 348 4 c 2
 236 206 l 1
 129 13 l 2
 124 5 114 0 106 0 c 0
 98 0 93 6 97 15 c 2
 219 236 l 1
 46 549 l 2
 43 555 47 563 56 569 c 0
EndSplineSet
Validated: 1
EndChar

StartChar: uniE059
Encoding: 57433 57433 137
Width: 476
VWidth: 970
Flags: W
LayerCount: 2
Fore
SplineSet
107 569 m 0
 116 575 127 575 130 569 c 2
 242 367 l 1
 349 560 l 2
 354 568 364 573 372 573 c 0
 381 573 384 566 380 558 c 2
 258 338 l 1
 432 24 l 2
 435 18 430 10 421 4 c 0
 412 -2 401 -2 398 4 c 2
 236 297 l 1
 78 13 l 2
 73 5 63 0 55 0 c 0
 46 0 43 7 47 15 c 2
 220 326 l 1
 96 549 l 2
 93 555 98 563 107 569 c 0
EndSplineSet
Validated: 1
EndChar

StartChar: uniE079
Encoding: 57465 57465 138
Width: 476
VWidth: 970
Flags: W
LayerCount: 2
Fore
SplineSet
107 527 m 0
 116 533 127 533 130 527 c 2
 242 340 l 1
 349 518 l 2
 354 526 364 531 372 531 c 0
 381 531 384 524 380 515 c 2
 259 313 l 1
 432 24 l 2
 435 18 430 10 421 4 c 0
 412 -2 402 -2 399 4 c 2
 236 275 l 1
 78 13 l 2
 73 5 63 0 55 0 c 0
 46 0 43 7 47 15 c 2
 220 302 l 1
 97 506 l 2
 94 512 98 521 107 527 c 0
EndSplineSet
Validated: 1
EndChar

StartChar: uniE03A
Encoding: 57402 57402 139
Width: 464
VWidth: 970
Flags: W
HStem: 0 29<80 290 326 390>
VStem: 45 35<29 568.81> 290 36<29 568.81>
LayerCount: 2
Fore
SplineSet
302 569 m 0
 313 576 326 575 326 565 c 2
 326 29 l 1
 417 29 l 2
 424 29 428 25 427 18 c 2
 403 -92 l 2
 402 -97 398 -102 392 -106 c 0
 380 -114 367 -111 369 -100 c 2
 390 0 l 1
 305 0 l 1
 302 -1 298 -1 296 0 c 1
 55 0 l 2
 49 0 45 2 45 8 c 2
 45 553 l 2
 45 558 49 565 56 569 c 0
 67 576 80 575 80 565 c 2
 80 29 l 1
 290 29 l 1
 290 553 l 2
 290 558 295 565 302 569 c 0
EndSplineSet
Validated: 1
EndChar

StartChar: uniE05A
Encoding: 57434 57434 140
Width: 464
VWidth: 985
Flags: W
HStem: 15 29<80 290 326 390>
VStem: 45 35<44 535.81> 290 36<44 535.81>
LayerCount: 2
Fore
SplineSet
302 536 m 0
 313 543 326 542 326 532 c 2
 326 44 l 1
 417 44 l 2
 424 44 428 40 427 33 c 2
 403 -77 l 2
 402 -82 398 -87 392 -91 c 0
 380 -99 367 -96 369 -85 c 2
 390 15 l 1
 305 15 l 1
 302 14 298 14 296 15 c 1
 55 15 l 2
 49 15 45 17 45 23 c 2
 45 520 l 2
 45 525 49 532 56 536 c 0
 67 543 80 542 80 532 c 2
 80 44 l 1
 290 44 l 1
 290 520 l 2
 290 525 295 532 302 536 c 0
EndSplineSet
Validated: 1
EndChar

StartChar: uniE07A
Encoding: 57466 57466 141
Width: 482
VWidth: 970
Flags: W
HStem: 0 29<80 338 373 410>
VStem: 45 35<29 568.81> 338 35<29 568.81> 410 35<-105.81 0>
LayerCount: 2
Fore
SplineSet
350 569 m 0
 361 576 373 575 373 565 c 2
 373 29 l 1
 435 29 l 2
 441 29 445 26 445 20 c 2
 445 -90 l 2
 445 -95 441 -102 434 -106 c 0
 423 -113 410 -112 410 -102 c 2
 410 0 l 1
 353 0 l 1
 350 -1 346 -1 344 0 c 1
 55 0 l 2
 49 0 45 2 45 8 c 2
 45 553 l 2
 45 558 49 565 56 569 c 0
 67 576 80 575 80 565 c 2
 80 29 l 1
 338 29 l 1
 338 553 l 2
 338 558 343 565 350 569 c 0
EndSplineSet
Validated: 1
EndChar

StartChar: uniE03B
Encoding: 57403 57403 142
Width: 430
VWidth: 970
Flags: W
HStem: 187 30<186.219 296.79> 187 1<236.954 237>
VStem: 45 35<316.689 568.81> 350 35<4.18968 225 241.929 568.81>
LayerCount: 2
Fore
SplineSet
251 217 m 0xb0
 290 217 326 234 350 255 c 1
 350 553 l 2
 350 558 354 565 361 569 c 0
 372 576 385 575 385 565 c 0
 385 383 385 202 385 20 c 0
 385 15 381 8 374 4 c 0
 363 -3 350 -2 350 8 c 2
 350 225 l 1
 317 202 243 187 237 187 c 0xb0
 236 187 236 188 237 188 c 1x70
 136 188 45 263 45 376 c 2
 45 553 l 2
 45 558 49 565 56 569 c 0
 67 576 80 575 80 565 c 2
 80 388 l 2
 80 286 165 217 251 217 c 0xb0
EndSplineSet
Validated: 1
EndChar

StartChar: uniE05B
Encoding: 57435 57435 143
Width: 430
VWidth: 995
Flags: W
HStem: 225 29<176.147 297.05>
VStem: 45 35<341.534 551.81> 350 35<29.1897 273 291.624 551.81>
LayerCount: 2
Fore
SplineSet
240 254 m 0
 289 254 326 278 350 310 c 1
 350 536 l 2
 350 541 354 548 361 552 c 0
 372 559 385 557 385 547 c 0
 385 380 385 212 385 45 c 0
 385 40 381 33 374 29 c 0
 363 22 350 23 350 33 c 2
 350 273 l 1
 342 266 333 259 324 253 c 0
 293 234 258 225 226 225 c 0
 225 225 224 225 223 225 c 0
 130 225 45 296 45 401 c 2
 45 536 l 2
 45 541 49 548 56 552 c 0
 67 559 80 557 80 547 c 2
 80 413 l 2
 80 318 160 254 240 254 c 0
EndSplineSet
Validated: 1
EndChar

StartChar: uniE07B
Encoding: 57467 57467 144
Width: 454
VWidth: 970
Flags: W
HStem: 284 29<181.443 305.608>
VStem: 45 36<400.993 538.016> 375 35<4.18968 341 360.414 568.81>
LayerCount: 2
Fore
SplineSet
254 313 m 0
 311 315 348 342 375 381 c 1
 375 553 l 2
 375 558 379 565 386 569 c 0
 397 576 410 575 410 565 c 2
 410 390 l 1
 411 388 411 387 410 385 c 1
 410 20 l 2
 410 15 406 8 399 4 c 0
 388 -3 375 -2 375 8 c 2
 375 341 l 1
 342 311 291 285 241 284 c 0
 238 284 235 284 232 284 c 0
 167 284 106 314 70 373 c 0
 53 400 45 430 45 461 c 0
 45 496 55 531 77 562 c 0
 82 569 91 573 98 573 c 0
 108 573 113 566 106 557 c 0
 89 533 81 503 81 473 c 0
 81 445 88 417 104 392 c 0
 139 338 195 313 248 313 c 0
 250 313 252 313 254 313 c 0
EndSplineSet
Validated: 1
EndChar

StartChar: uniE03C
Encoding: 57404 57404 145
Width: 460
VWidth: 970
Flags: W
HStem: 0 29<96 214 248 364>
VStem: 60 36<29 190.667> 81 36<386.333 568.811> 212 36<-105.81 -0.09375> 343 36<383.333 568.81> 364 36<29 201.667>
LayerCount: 2
Fore
SplineSet
93 569 m 0xb0
 104 576 117 575 117 565 c 2xb0
 96 29 l 1
 364 29 l 1xd4
 343 553 l 2
 343 558 348 565 355 569 c 0
 366 576 379 575 379 565 c 2x98
 400 20 l 2
 400 11 387 0 375 0 c 2
 248 0 l 1
 248 -90 l 2
 248 -95 243 -102 236 -106 c 0
 225 -113 212 -112 212 -102 c 2
 212 -6 l 2
 212 -4 213 -2 214 0 c 1
 70 0 l 2
 64 0 60 3 60 9 c 2xd4
 81 554 l 2
 81 559 86 565 93 569 c 0xb0
EndSplineSet
Validated: 1
EndChar

StartChar: uniE05C
Encoding: 57436 57436 146
Width: 460
VWidth: 970
Flags: W
HStem: 0 29<95 214 248 365>
VStem: 60 35<29 526.81> 212 36<-105.81 -0.09375> 365 35<29 568.81>
CounterMasks: 1 70
LayerCount: 2
Fore
SplineSet
71 527 m 0
 82 534 95 532 95 522 c 2
 95 29 l 1
 365 29 l 1
 365 553 l 2
 365 558 369 565 376 569 c 0
 387 576 400 575 400 565 c 2
 400 20 l 2
 400 11 387 0 375 0 c 2
 248 0 l 1
 248 -90 l 2
 248 -95 243 -102 236 -106 c 0
 225 -113 212 -112 212 -102 c 2
 212 -6 l 2
 212 -4 213 -2 214 0 c 1
 70 0 l 2
 64 0 60 2 60 8 c 2
 60 511 l 2
 60 516 64 523 71 527 c 0
EndSplineSet
Validated: 1
EndChar

StartChar: uniE07C
Encoding: 57468 57468 147
Width: 460
VWidth: 970
Flags: W
HStem: 0 29<95 214 248 365>
VStem: 60 35<29 568.81> 212 36<-105.81 -0.09375> 365 35<29 526.81>
CounterMasks: 1 70
LayerCount: 2
Fore
SplineSet
71 569 m 0
 82 576 95 575 95 565 c 2
 95 29 l 1
 365 29 l 1
 365 511 l 2
 365 516 369 523 376 527 c 0
 387 534 400 532 400 522 c 2
 400 20 l 2
 400 11 387 0 375 0 c 2
 248 0 l 1
 248 -90 l 2
 248 -95 243 -102 236 -106 c 0
 225 -113 212 -112 212 -102 c 2
 212 -6 l 2
 212 -4 213 -2 214 0 c 1
 70 0 l 2
 64 0 60 2 60 8 c 2
 60 553 l 2
 60 558 64 565 71 569 c 0
EndSplineSet
Validated: 1
EndChar

StartChar: uniE03D
Encoding: 57405 57405 148
Width: 545
VWidth: 995
Flags: W
HStem: 25 29<95 255 290 450>
VStem: 60 35<54 540.81> 255 35<54 416.81> 450 35<54 540.81>
CounterMasks: 1 70
LayerCount: 2
Fore
SplineSet
71 541 m 0
 82 548 95 547 95 537 c 2
 95 54 l 1
 255 54 l 1
 255 401 l 2
 255 406 259 413 266 417 c 0
 277 424 290 423 290 413 c 2
 290 54 l 1
 450 54 l 1
 450 525 l 2
 450 530 454 537 461 541 c 0
 472 548 485 547 485 537 c 2
 485 45 l 2
 485 36 472 25 460 25 c 2
 270 25 l 1
 267 24 263 24 261 25 c 1
 70 25 l 2
 64 25 60 27 60 33 c 2
 60 525 l 2
 60 530 64 537 71 541 c 0
EndSplineSet
Validated: 1
EndChar

StartChar: uniE05D
Encoding: 57437 57437 149
Width: 545
VWidth: 970
Flags: W
HStem: 0 29<95 255 290 450>
VStem: 60 35<29 568.81> 255 35<29 568.81> 450 35<29 568.81>
CounterMasks: 1 70
LayerCount: 2
Fore
SplineSet
71 569 m 0
 82 576 95 575 95 565 c 2
 95 29 l 1
 255 29 l 1
 255 553 l 2
 255 558 259 565 266 569 c 0
 277 576 290 575 290 565 c 2
 290 29 l 1
 450 29 l 1
 450 553 l 2
 450 558 454 565 461 569 c 0
 472 576 485 575 485 565 c 2
 485 20 l 2
 485 11 472 0 460 0 c 2
 270 0 l 1
 267 -1 263 -1 261 0 c 1
 70 0 l 2
 64 0 60 2 60 8 c 2
 60 553 l 2
 60 558 64 565 71 569 c 0
EndSplineSet
Validated: 1
EndChar

StartChar: uniE07D
Encoding: 57469 57469 150
Width: 545
VWidth: 970
Flags: W
HStem: 0 29<95 255 290 450>
VStem: 60 35<29 568.81> 255 35<29 391.81> 450 35<29 568.81>
CounterMasks: 1 70
LayerCount: 2
Fore
SplineSet
71 569 m 0
 82 576 95 575 95 565 c 2
 95 29 l 1
 255 29 l 1
 255 376 l 2
 255 381 259 388 266 392 c 0
 277 399 290 398 290 388 c 2
 290 29 l 1
 450 29 l 1
 450 553 l 2
 450 558 454 565 461 569 c 0
 472 576 485 575 485 565 c 2
 485 20 l 2
 485 11 472 0 460 0 c 2
 270 0 l 1
 267 -1 263 -1 261 0 c 1
 70 0 l 2
 64 0 60 2 60 8 c 2
 60 553 l 2
 60 558 64 565 71 569 c 0
EndSplineSet
Validated: 1
EndChar

StartChar: one
Encoding: 49 49 151
Width: 305
VWidth: 980
Flags: W
HStem: 9 21G<186 194> 564 20G<188 193>
VStem: 175 30<9.0051 542>
LayerCount: 2
Fore
SplineSet
175 24 m 2
 175 542 l 1
 63 475 l 2
 61 474 58 473 56 473 c 0
 48 473 40 480 40 488 c 0
 40 494 43 498 47 501 c 2
 182 582 l 2
 184 583 187 584 189 584 c 0
 197 584 205 577 205 569 c 2
 205 24 l 2
 205 16 198 9 190 9 c 0
 182 9 175 16 175 24 c 2
EndSplineSet
Validated: 1
AlternateSubs2: "'rand' Randomize in lookup 0-1" uniE081 uniE091 uniE0A1 uniE0B1
EndChar

StartChar: uniE080
Encoding: 57472 57472 152
Width: 545
VWidth: 995
Flags: W
HStem: 24 30<216.025 330.125> 526 31<213.837 331.528>
VStem: 90 31<184.742 396.517> 425 30<185.381 394.619>
LayerCount: 2
Fore
SplineSet
273 54 m 0
 306 54 333 66 355 87 c 0
 400 129 425 209 425 290 c 0
 425 371 400 451 355 493 c 0
 333 514 306 526 273 526 c 0
 240 526 212 514 190 493 c 0
 145 451 121 371 121 290 c 0
 121 209 145 129 190 87 c 0
 212 66 240 54 273 54 c 0
273 24 m 0
 142 24 90 168 90 290 c 0
 90 376 115 464 169 515 c 0
 196 541 232 557 273 557 c 0
 314 557 349 541 376 515 c 0
 430 464 455 376 455 290 c 0
 455 204 430 116 376 65 c 0
 349 39 314 24 273 24 c 0
EndSplineSet
Validated: 1
EndChar

StartChar: uniE090
Encoding: 57488 57488 153
Width: 560
VWidth: 980
Flags: W
HStem: 9 30<220.248 339.149> 533 30<220.248 339.149>
VStem: 90 31<174.808 397.192> 439 31<178.558 393.442>
LayerCount: 2
Fore
SplineSet
280 39 m 0
 315 39 343 52 366 74 c 0
 413 118 439 201 439 286 c 0
 439 371 413 454 366 498 c 0
 343 520 315 533 280 533 c 0
 245 533 216 520 193 498 c 0
 146 454 121 371 121 286 c 0
 121 201 146 118 193 74 c 0
 216 52 245 39 280 39 c 0
280 9 m 0
 237 9 200 25 172 52 c 0
 116 105 90 196 90 286 c 0
 90 376 116 467 172 520 c 0
 200 547 237 563 280 563 c 0
 323 563 359 547 387 520 c 0
 443 467 470 376 470 286 c 0
 470 196 443 105 387 52 c 0
 359 25 323 9 280 9 c 0
EndSplineSet
Validated: 1
EndChar

StartChar: uniE0A0
Encoding: 57504 57504 154
Width: 531
VWidth: 980
Flags: W
HStem: 9 30<213.596 317.835> 554 30<213.596 317.835>
VStem: 90 31<177.243 416.327> 411 30<181.129 412.464>
LayerCount: 2
Fore
SplineSet
266 39 m 0
 297 39 322 52 343 75 c 0
 386 121 411 208 411 297 c 0
 411 386 386 472 343 518 c 0
 322 541 297 554 266 554 c 0
 235 554 209 541 188 518 c 0
 145 472 121 386 121 297 c 0
 121 208 145 121 188 75 c 0
 209 52 235 39 266 39 c 0
266 9 m 0
 226 9 191 26 165 54 c 0
 113 109 90 204 90 297 c 0
 90 390 113 484 165 539 c 0
 191 567 226 584 266 584 c 0
 306 584 340 567 366 539 c 0
 418 484 441 390 441 297 c 0
 441 204 418 109 366 54 c 0
 340 26 306 9 266 9 c 0
EndSplineSet
Validated: 1
EndChar

StartChar: uniE0B0
Encoding: 57520 57520 155
Width: 506
VWidth: 995
Flags: W
HStem: 24 30<204.172 301.828> 526 31<201.657 304.343>
VStem: 90 31<174.898 405.567> 386 30<180.106 400.323>
LayerCount: 2
Fore
SplineSet
253 54 m 0
 281 54 304 66 324 87 c 0
 364 129 386 209 386 290 c 0
 386 371 364 452 324 494 c 0
 304 515 281 526 253 526 c 0
 225 526 202 515 182 494 c 0
 142 452 121 371 121 290 c 0
 121 209 142 129 182 87 c 0
 202 66 225 54 253 54 c 0
253 24 m 0
 216 24 184 40 160 66 c 0
 112 117 90 204 90 290 c 0
 90 376 112 464 160 515 c 0
 184 541 216 557 253 557 c 0
 290 557 322 541 346 515 c 0
 394 464 416 376 416 290 c 0
 416 204 394 117 346 66 c 0
 322 40 290 24 253 24 c 0
EndSplineSet
Validated: 1
EndChar

StartChar: uni0430
Encoding: 1072 1072 156
Width: 375
VWidth: 1022
Flags: W
HStem: 137 29<95 280> 409 29<138.978 226.276>
VStem: 60 35<12.1897 137 166 338.988> 280 35<12.1897 137 166 335.301>
LayerCount: 2
Fore
SplineSet
195 438 m 0
 314 438 315 292 315 173 c 0
 315 171 315 169 315 167 c 0
 315 121 315 74 315 28 c 0
 315 23 311 16 304 12 c 0
 293 5 280 6 280 16 c 2
 280 137 l 1
 95 137 l 1
 95 28 l 2
 95 23 91 16 84 12 c 0
 73 5 60 6 60 16 c 2
 60 145 l 2
 60 232 61 324 94 381 c 0
 112 411 149 438 195 438 c 0
95 166 m 1
 280 166 l 1
 280 245 276 325 248 371 c 0
 233 396 211 409 180 409 c 0
 148 409 138 399 125 378 c 0
 97 328 95 245 95 166 c 1
EndSplineSet
Validated: 1
AlternateSubs2: "'rand' Randomize in lookup 0-1" uniE0C0 uniE0E0 uniE100 uniE120
EndChar

StartChar: uni0431
Encoding: 1073 1073 157
Width: 344
VWidth: 1022
Flags: W
HStem: 8 29<80 169.437> 279 30<80 156.34> 409 29<80 288.766>
VStem: 45 35<37 279 309 409> 265 35<97.4605 201.493>
LayerCount: 2
Fore
SplineSet
209 63 m 0
 239 78 265 101 265 145 c 0
 265 227 176 272 80 279 c 1
 80 37 l 1
 128 38 176 47 209 63 c 0
45 418 m 2
 45 428 58 438 70 438 c 2
 290 438 l 2
 297 438 299 435 299 431 c 0
 299 425 294 416 289 413 c 0
 284 410 279 409 275 409 c 2
 80 409 l 1
 80 309 l 1
 191 306 300 258 300 157 c 0
 300 99 259 61 217 40 c 0
 169 16 111 8 55 8 c 0
 50 8 45 10 45 16 c 2
 45 418 l 2
EndSplineSet
Validated: 1
AlternateSubs2: "'rand' Randomize in lookup 0-1" uniE0C1 uniE0E1 uniE101 uniE121
EndChar

StartChar: uni0432
Encoding: 1074 1074 158
Width: 341
VWidth: 1022
Flags: W
HStem: 7 31<76 172.201> 209 30<76 119.188 153 238.988> 408 31<76 169.816>
VStem: 45 31<38 208 239 408> 185 31<304.465 392.503> 265 31<101.338 187.898>
LayerCount: 2
Fore
SplineSet
60 439 m 0
 130 439 216 437 216 366 c 0
 216 315 191 268 153 239 c 1
 220 238 296 228 296 151 c 0
 296 115 280 87 257 65 c 0
 211 22 134 7 60 7 c 0
 52 7 45 14 45 22 c 2
 45 424 l 2
 45 432 52 439 60 439 c 0
76 208 m 1
 76 38 l 1
 141 40 203 56 237 87 c 0
 255 104 265 124 265 151 c 0
 265 199 220 209 144 209 c 0
 122 209 99 208 76 208 c 1
185 366 m 0
 185 407 121 408 76 408 c 1
 76 239 l 1
 138 247 185 301 185 366 c 0
EndSplineSet
Validated: 1
AlternateSubs2: "'rand' Randomize in lookup 0-1" uniE0C2 uniE0E2 uniE102 uniE122
EndChar

StartChar: uni0433
Encoding: 1075 1075 159
Width: 341
VWidth: 1022
Flags: W
HStem: 7 21G<55 63> 351 88<265 296> 408 31<76 265>
VStem: 45 31<7.08057 408> 265 31<351.081 408>
LayerCount: 2
Fore
SplineSet
45 22 m 2xb8
 45 424 l 2
 45 432 51 439 59 439 c 2xb8
 279 439 l 2
 287 439 296 432 296 424 c 2
 296 366 l 2
 296 358 287 351 279 351 c 0xd8
 271 351 265 358 265 366 c 0
 265 380 265 394 265 408 c 1
 76 408 l 1
 76 22 l 2
 76 14 67 7 59 7 c 0
 51 7 45 14 45 22 c 2xb8
EndSplineSet
Validated: 1
AlternateSubs2: "'rand' Randomize in lookup 0-1" uniE0C3 uniE0E3 uniE103 uniE123
EndChar

StartChar: uni0434
Encoding: 1076 1076 160
Width: 394
VWidth: 1022
Flags: W
HStem: 8 29<73 98 133 262 297 320> 409 29<133 262>
VStem: 38 35<-73.8103 8> 98 35<37 409> 262 35<37 409> 320 35<-73.8103 8>
LayerCount: 2
Fore
SplineSet
62 -74 m 0
 51 -81 38 -80 38 -70 c 2
 38 16 l 2
 38 25 50 37 62 37 c 2
 98 37 l 1
 98 164 98 291 98 418 c 0
 98 427 110 438 122 438 c 2
 286 438 l 2
 292 438 297 435 297 429 c 2
 297 37 l 1
 346 37 l 2
 352 37 356 34 356 28 c 2
 355 -58 l 2
 355 -63 351 -70 344 -74 c 0
 333 -81 320 -80 320 -70 c 2
 320 8 l 1
 73 8 l 1
 73 -58 l 2
 73 -63 69 -70 62 -74 c 0
133 37 m 1
 262 37 l 1
 262 409 l 1
 133 409 l 1
 133 285 133 161 133 37 c 1
EndSplineSet
Validated: 1
AlternateSubs2: "'rand' Randomize in lookup 0-1" uniE0C4 uniE0E4 uniE104 uniE124
EndChar

StartChar: uni0435
Encoding: 1077 1077 161
Width: 375
VWidth: 1022
Flags: W
HStem: 8 29<95 313.508> 137 29<95 233.508> 409 29<95 313.508>
VStem: 60 35<37 137 166 409>
LayerCount: 2
Fore
SplineSet
315 28 m 0
 315 19 302 8 290 8 c 2
 70 8 l 2
 64 8 60 10 60 16 c 2
 60 418 l 2
 60 427 73 438 85 438 c 2
 305 438 l 2
 312 438 315 434 315 429 c 0
 315 420 302 409 290 409 c 2
 95 409 l 1
 95 328 95 247 95 166 c 1
 138 166 182 165 225 165 c 0
 232 165 235 162 235 157 c 0
 235 148 222 137 210 137 c 2
 95 137 l 1
 95 37 l 1
 305 37 l 2
 312 37 315 33 315 28 c 0
EndSplineSet
Validated: 1
AlternateSubs2: "'rand' Randomize in lookup 0-1" uniE0C6 uniE0E6 uniE106 uniE126
EndChar

StartChar: uni0436
Encoding: 1078 1078 162
Width: 490
VWidth: 1022
Flags: W
HStem: 8 21G<93 101.5> 8 21G<93 101.5> 418 20G<107.5 116.5> 418 20G<107.5 116.5>
VStem: 50 36<247.666 390.927> 86 35<9.36728 68.988> 228 35<32.1897 123 157 361.81> 369 35<12.2358 60.5165> 405 35<243.816 385.506>
LayerCount: 2
Fore
SplineSet
175 136 m 1xa780
 107 159 50 225 50 312 c 0
 50 350 62 390 89 427 c 0
 94 434 104 438 111 438 c 0
 122 438 123 429 118 420 c 0
 96 391 86 358 86 324 c 0xab80
 86 234 150 169 228 157 c 1
 228 220 228 283 228 346 c 0
 228 351 232 358 239 362 c 0
 250 369 263 368 263 358 c 2
 263 155 l 1
 322 159 361 190 384 233 c 0
 397 257 405 283 405 312 c 0
 405 341 397 372 380 400 c 0
 377 405 373 408 370 413 c 0
 367 419 372 428 381 434 c 0
 390 439 399 439 403 434 c 0
 428 400 440 362 440 324 c 0
 440 235 384 169 316 142 c 1
 359 123 396 83 404 30 c 0
 405 24 401 17 393 12 c 0
 383 6 371 7 369 15 c 0
 359 71 315 112 263 123 c 1
 263 98 263 73 263 48 c 0
 263 43 259 36 252 32 c 0
 241 25 228 26 228 36 c 0
 228 66 228 96 228 126 c 1
 208 124 191 118 176 109 c 0
 150 93 128 64 121 26 c 0
 119 17 107 8 96 8 c 0
 90 8 86 11 86 16 c 0
 86 64 133 115 175 136 c 1xa780
EndSplineSet
Validated: 1
AlternateSubs2: "'rand' Randomize in lookup 0-1" uniE0C7 uniE0E7 uniE107 uniE127
EndChar

StartChar: uni0437
Encoding: 1079 1079 163
Width: 330
VWidth: 1022
Flags: W
HStem: 8 29<39.9492 163.767> 210 28<40.3151 117.73 142 224.275> 409 29<39.4329 157.322>
VStem: 178 35<301.161 393.374> 256 36<95.3495 187.537>
LayerCount: 2
Fore
SplineSet
146 238 m 2
 219 238 292 231 292 157 c 0
 292 112 267 74 226 49 c 0
 176 18 110 8 48 8 c 0
 41 8 38 11 38 16 c 0
 38 25 51 37 62 37 c 0
 121 37 179 48 214 70 c 0
 240 86 256 108 256 145 c 0
 256 205 194 210 130 210 c 0
 102 210 74 208 48 208 c 0
 41 208 38 212 38 217 c 0
 38 226 50 237 62 237 c 0
 85 237 104 243 120 253 c 0
 151 272 178 311 178 360 c 0
 178 407 118 409 66 409 c 0
 60 409 54 409 48 409 c 0
 41 409 38 413 38 418 c 0
 38 427 50 438 62 438 c 2
 64 438 l 2
 129 438 213 437 213 372 c 0
 213 320 187 270 142 238 c 1
 146 238 l 2
EndSplineSet
Validated: 1
AlternateSubs2: "'rand' Randomize in lookup 0-1" uniE0C8 uniE0E8 uniE108 uniE128
EndChar

StartChar: uni0438
Encoding: 1080 1080 164
Width: 371
VWidth: 1022
Flags: W
HStem: 7 21G<71 78 291 299> 419 20G<71 79 292 299>
VStem: 60 31<82 438.98> 280 31<7.02032 364>
LayerCount: 2
Fore
SplineSet
280 22 m 2
 280 364 l 1
 89 15 l 2
 86 10 81 7 75 7 c 0
 67 7 60 14 60 22 c 2
 60 424 l 2
 60 432 67 439 75 439 c 0
 83 439 91 432 91 424 c 0
 91 310 91 196 91 82 c 1
 282 431 l 2
 285 436 289 439 295 439 c 0
 303 439 311 432 311 424 c 2
 311 22 l 2
 311 14 303 7 295 7 c 0
 287 7 280 14 280 22 c 2
EndSplineSet
Validated: 1
AlternateSubs2: "'rand' Randomize in lookup 0-1" uniE0C9 uniE0E9 uniE109 uniE129
EndChar

StartChar: uni043A
Encoding: 1082 1082 165
Width: 329
VWidth: 1022
Flags: W
VStem: 38 35<12.1897 240 319 433.81>
LayerCount: 2
Fore
SplineSet
292 434 m 4
 296 428 290 419 280 413 c 6
 80 295 l 5
 290 18 l 6
 294 12 291 3 282 -3 c 4
 273 -8 262 -8 258 -3 c 6
 73 240 l 5
 73 28 l 6
 73 23 69 16 62 12 c 4
 51 5 38 6 38 16 c 6
 38 418 l 6
 38 423 41 430 48 434 c 4
 59 441 73 439 73 429 c 6
 73 319 l 5
 270 434 l 6
 279 439 289 440 292 434 c 4
EndSplineSet
Validated: 1
AlternateSubs2: "'rand' Randomize in lookup 0-1" uniE0CB uniE0EB uniE10B uniE12B
EndChar

StartChar: uni043B
Encoding: 1083 1083 166
Width: 472
VWidth: 1022
Flags: W
HStem: 3 30<79.5052 133.476> 409 29<176 324>
VStem: 38 36<36.6838 91.7088> 140 36<37.8799 409> 324 35<12.1897 409>
LayerCount: 2
Fore
SplineSet
176 85 m 2
 176 48 143 3 96 3 c 0
 66 3 38 24 38 56 c 0
 38 74 47 94 66 94 c 0
 72 94 76 90 76 85 c 0
 76 80 74 73 74 68 c 0
 74 45 90 33 107 33 c 0
 123 33 140 45 140 73 c 2
 140 418 l 2
 140 427 154 438 166 438 c 2
 350 438 l 2
 356 438 359 435 359 429 c 2
 359 28 l 2
 359 23 355 16 348 12 c 0
 337 5 324 6 324 16 c 2
 324 409 l 1
 176 409 l 1
 176 85 l 2
EndSplineSet
Validated: 1
AlternateSubs2: "'rand' Randomize in lookup 0-1" uniE0CC uniE0EC uniE10C uniE12C
EndChar

StartChar: uni043C
Encoding: 1084 1084 167
Width: 439
VWidth: 1022
Flags: W
HStem: 418 20G<365 372> 418 20G<365 372>
VStem: 60 35<12.1897 348> 343 35<12.1897 359>
LayerCount: 2
Fore
SplineSet
345 424 m 2x70
 349 432 361 438 369 438 c 0xb0
 375 438 379 435 379 429 c 2
 378 28 l 2
 378 23 374 16 367 12 c 0
 356 5 343 6 343 16 c 2
 343 359 l 1
 235 151 l 2
 231 143 220 137 212 137 c 0
 208 137 205 138 203 141 c 2
 95 348 l 1
 95 28 l 2
 95 23 91 16 84 12 c 0
 73 5 60 6 60 16 c 2
 60 418 l 2
 60 423 64 430 71 434 c 0
 80 440 91 439 94 433 c 2
 222 188 l 1
 345 424 l 2x70
EndSplineSet
Validated: 1
AlternateSubs2: "'rand' Randomize in lookup 0-1" uniE0CE uniE0EE uniE10E uniE12E
EndChar

StartChar: uni043D
Encoding: 1085 1085 168
Width: 375
VWidth: 1022
Flags: W
HStem: 137 29<95 280>
VStem: 60 35<12.1897 137 166 433.81> 280 35<12.1897 137 166 433.81>
LayerCount: 2
Fore
SplineSet
304 12 m 0
 293 5 280 6 280 16 c 2
 280 137 l 1
 95 137 l 1
 95 28 l 2
 95 23 91 16 84 12 c 0
 73 5 60 6 60 16 c 2
 60 418 l 2
 60 423 64 430 71 434 c 0
 82 441 95 439 95 429 c 2
 95 166 l 1
 280 166 l 1
 280 250 280 334 280 418 c 0
 280 423 284 430 291 434 c 0
 302 441 315 439 315 429 c 2
 315 28 l 2
 315 23 311 16 304 12 c 0
EndSplineSet
Validated: 1
AlternateSubs2: "'rand' Randomize in lookup 0-1" uniE0CF uniE0EF uniE10F uniE12F
EndChar

StartChar: uni043E
Encoding: 1086 1086 169
Width: 378
VWidth: 1022
Flags: W
HStem: 8 29<145.837 243.659> 409 29<133.941 232.163>
VStem: 30 35<134.051 319.741> 313 35<125.317 313.795>
LayerCount: 2
Fore
SplineSet
182 8 m 0
 80 8 30 114 30 216 c 0
 30 304 63 382 122 417 c 0
 144 431 170 438 196 438 c 0
 298 438 348 331 348 229 c 0
 348 139 316 65 256 29 c 0
 234 15 208 8 182 8 c 0
65 229 m 0
 65 138 110 37 196 37 c 0
 215 37 230 41 243 49 c 0
 286 77 313 146 313 217 c 0
 313 308 268 409 182 409 c 0
 163 409 148 404 135 396 c 0
 118 385 101 368 89 342 c 0
 74 310 65 270 65 229 c 0
EndSplineSet
Validated: 1
AlternateSubs2: "'rand' Randomize in lookup 0-1" uniE0D1 uniE0F1 uniE111 uniE131
EndChar

StartChar: uni043F
Encoding: 1087 1087 170
Width: 375
VWidth: 1022
Flags: W
HStem: 409 29<95 280>
VStem: 60 35<12.1897 409> 280 35<12.1897 409>
LayerCount: 2
Fore
SplineSet
84 12 m 0
 73 5 60 6 60 16 c 2
 60 418 l 2
 60 427 73 438 85 438 c 2
 305 438 l 2
 311 438 315 435 315 429 c 2
 315 28 l 2
 315 23 311 16 304 12 c 0
 293 5 280 6 280 16 c 2
 280 409 l 1
 95 409 l 1
 95 28 l 2
 95 23 91 16 84 12 c 0
EndSplineSet
Validated: 1
AlternateSubs2: "'rand' Randomize in lookup 0-1" uniE0D2 uniE0F2 uniE112 uniE132
EndChar

StartChar: uni0440
Encoding: 1088 1088 171
Width: 340
VWidth: 1022
Flags: W
HStem: 7 21G<48 56> 137 31<69 156.557> 408 31<69 159.565>
VStem: 38 31<7.08057 137 168 408> 258 30<240.966 337.536>
LayerCount: 2
Fore
SplineSet
69 168 m 1
 156 172 258 205 258 289 c 2
 258 294 l 1
 254 376 156 404 69 408 c 1
 69 168 l 1
288 289 m 0
 288 185 173 141 69 137 c 1
 69 22 l 2
 69 14 60 7 52 7 c 0
 44 7 38 14 38 22 c 2
 38 423 l 2
 38 431 44 439 52 439 c 0
 162 439 284 401 288 295 c 0
 288 293 288 291 288 289 c 0
EndSplineSet
Validated: 1
AlternateSubs2: "'rand' Randomize in lookup 0-1" uniE0D3 uniE0F3 uniE113 uniE133
EndChar

StartChar: uni0441
Encoding: 1089 1089 172
Width: 438
VWidth: 1022
Flags: W
HStem: 8 29<219.77 332.022> 412 28<182.809 293.936>
VStem: 60 35<163.476 314.886>
LayerCount: 2
Fore
SplineSet
60 231 m 2
 60 331 131 440 252 440 c 0
 303 440 350 416 378 377 c 0
 379 376 379 374 379 372 c 0
 379 363 365 352 354 352 c 0
 350 352 347 353 345 356 c 0
 318 392 277 412 237 412 c 0
 209 412 187 403 170 392 c 0
 127 366 95 309 95 243 c 0
 95 239 96 234 96 230 c 0
 102 123 188 37 287 37 c 0
 315 37 335 47 350 62 c 0
 356 68 363 70 369 70 c 0
 382 70 381 58 373 50 c 0
 350 27 310 8 272 8 c 0
 154 8 67 104 60 217 c 1
 60 231 l 2
EndSplineSet
Validated: 1
AlternateSubs2: "'rand' Randomize in lookup 0-1" uniE0D4 uniE0F4 uniE114 uniE134
EndChar

StartChar: uni0442
Encoding: 1090 1090 173
Width: 314
VWidth: 1022
Flags: W
HStem: 409 29<31.4918 140 175 282.291>
VStem: 140 35<12.1897 409>
LayerCount: 2
Fore
SplineSet
284 429 m 0
 284 421 271 409 260 409 c 2
 175 409 l 1
 175 28 l 2
 175 23 171 16 164 12 c 0
 153 5 140 6 140 16 c 2
 140 409 l 1
 40 409 l 2
 33 409 30 413 30 418 c 0
 30 427 43 438 55 438 c 2
 274 438 l 2
 281 438 284 434 284 429 c 0
EndSplineSet
Validated: 1
AlternateSubs2: "'rand' Randomize in lookup 0-1" uniE0D5 uniE0F5 uniE115 uniE135
EndChar

StartChar: uni0443
Encoding: 1091 1091 174
Width: 345
VWidth: 1022
Flags: W
HStem: 8 21G<129 137.5> 8 21G<129 137.5> 418 20G<302.5 311> 418 20G<302.5 311>
VStem: 33 286
LayerCount: 2
Fore
SplineSet
43 434 m 0xa8
 52 440 63 439 66 433 c 2
 190 188 l 1
 285 422 l 2
 289 429 297 438 308 438 c 0
 314 438 319 434 319 429 c 0
 319 428 319 427 318 425 c 2
 156 23 l 2
 152 16 143 8 132 8 c 0
 126 8 122 11 122 16 c 0
 122 17 122 19 123 21 c 2
 171 141 l 1
 33 414 l 2
 30 420 34 429 43 434 c 0xa8
EndSplineSet
Validated: 1
AlternateSubs2: "'rand' Randomize in lookup 0-1" uniE0D7 uniE0F7 uniE117 uniE137
EndChar

StartChar: uni0444
Encoding: 1092 1092 175
Width: 378
VWidth: 1022
Flags: W
HStem: 80 30<131.234 172 207 254.027> 337 27<126.234 172 207 240.401>
VStem: 30 35<170.341 281.688> 172 35<12.1897 81.6323 110 335 364.193 433.81> 313 35<163.113 275.318>
LayerCount: 2
Fore
SplineSet
30 217 m 0
 30 290 93 354 172 364 c 1
 172 418 l 2
 172 423 176 430 183 434 c 0
 194 441 207 439 207 429 c 2
 207 366 l 1
 281 362 348 310 348 229 c 0
 348 180 322 134 276 106 c 0
 255 93 231 84 207 81 c 1
 207 28 l 2
 207 23 203 16 196 12 c 0
 185 5 172 6 172 16 c 2
 172 80 l 1
 97 84 30 135 30 217 c 0
172 337 m 1
 150 335 131 329 116 319 c 0
 88 302 65 271 65 229 c 0
 65 168 115 121 172 110 c 1
 172 337 l 1
207 109 m 1
 268 115 313 153 313 217 c 0
 313 278 264 324 207 335 c 1
 207 109 l 1
EndSplineSet
Validated: 1
AlternateSubs2: "'rand' Randomize in lookup 0-1" uniE0D8 uniE0F8 uniE118 uniE138
EndChar

StartChar: uni0445
Encoding: 1093 1093 176
Width: 344
VWidth: 1022
Flags: W
HStem: 8 21G<50.5 59> 8 21G<50.5 59> 418 20G<286 294.5> 418 20G<286 294.5>
VStem: 47 251
LayerCount: 2
Fore
SplineSet
56 434 m 0xa8
 65 440 76 439 79 433 c 2
 175 258 l 1
 267 424 l 2
 272 432 282 438 290 438 c 0
 299 438 302 431 298 423 c 2
 192 228 l 1
 299 32 l 2
 302 26 298 18 289 12 c 0
 280 6 269 6 266 12 c 2
 170 188 l 1
 78 21 l 2
 73 13 63 8 55 8 c 0
 46 8 43 15 47 23 c 2
 153 217 l 1
 46 414 l 2
 43 420 47 428 56 434 c 0xa8
EndSplineSet
Validated: 1
AlternateSubs2: "'rand' Randomize in lookup 0-1" uniE0D9 uniE0F9 uniE119 uniE139
EndChar

StartChar: uni0446
Encoding: 1094 1094 177
Width: 369
VWidth: 1022
Flags: W
HStem: 8 29<80 225 260 297>
VStem: 45 35<37 433.81> 225 35<37 433.81> 297 35<-73.8103 8>
LayerCount: 2
Fore
SplineSet
236 434 m 0
 247 441 260 439 260 429 c 2
 260 37 l 1
 321 37 l 2
 327 37 332 34 332 28 c 2
 332 -58 l 2
 332 -63 328 -70 321 -74 c 0
 310 -81 297 -80 297 -70 c 2
 297 8 l 1
 55 8 l 2
 49 8 45 10 45 16 c 2
 45 418 l 2
 45 423 49 430 56 434 c 0
 67 441 80 439 80 429 c 2
 80 37 l 1
 225 37 l 1
 225 164 225 291 225 418 c 0
 225 423 229 430 236 434 c 0
EndSplineSet
Validated: 1
AlternateSubs2: "'rand' Randomize in lookup 0-1" uniE0DA uniE0FA uniE11A uniE13A
EndChar

StartChar: uni0447
Encoding: 1095 1095 178
Width: 345
VWidth: 1022
Flags: W
HStem: 230 29<140.104 239.155>
VStem: 45 35<313.713 433.81> 265 35<12.1897 259 276.695 433.81>
LayerCount: 2
Fore
SplineSet
194 259 m 2
 225 259 250 274 265 293 c 1
 265 418 l 2
 265 423 269 430 276 434 c 0
 287 441 300 439 300 429 c 2
 300 28 l 2
 300 23 296 16 289 12 c 0
 278 5 265 6 265 16 c 0
 265 97 265 178 265 259 c 1
 242 242 207 230 179 230 c 2
 178 230 l 2
 109 230 45 282 45 360 c 2
 45 418 l 2
 45 423 49 430 56 434 c 0
 67 441 80 439 80 429 c 2
 80 372 l 2
 80 305 137 259 193 259 c 2
 194 259 l 2
EndSplineSet
Validated: 1
AlternateSubs2: "'rand' Randomize in lookup 0-1" uniE0DB uniE0FB uniE11B uniE13B
EndChar

StartChar: uni0448
Encoding: 1096 1096 179
Width: 438
VWidth: 1022
Flags: W
HStem: 8 29<95 202 237 343>
VStem: 60 35<37 433.81> 202 35<37 375.81> 343 35<37 433.81>
LayerCount: 2
Fore
SplineSet
71 434 m 0
 82 441 95 439 95 429 c 2
 95 37 l 1
 202 37 l 1
 202 360 l 2
 202 365 206 372 213 376 c 0
 224 383 237 382 237 372 c 2
 237 37 l 1
 343 37 l 1
 343 418 l 2
 343 423 348 430 355 434 c 0
 366 441 378 439 378 429 c 2
 378 28 l 2
 378 19 366 8 354 8 c 2
 70 8 l 2
 64 8 60 10 60 16 c 2
 60 418 l 2
 60 423 64 430 71 434 c 0
EndSplineSet
Validated: 1
AlternateSubs2: "'rand' Randomize in lookup 0-1" uniE0DD uniE0FD uniE11D uniE13D
EndChar

StartChar: uni0458
Encoding: 1112 1112 180
Width: 326
VWidth: 1022
Flags: W
HStem: -44 29<94.933 178.393>
VStem: 38 36<1.79221 76.5399> 250 36<67.8863 436.81>
LayerCount: 2
Fore
SplineSet
74 42 m 0
 74 5 106 -15 134 -15 c 0
 150 -15 168 -10 182 -1 c 0
 215 19 250 67 250 148 c 2
 250 421 l 2
 250 426 255 433 262 437 c 0
 273 444 286 443 286 433 c 2
 286 160 l 2
 286 75 248 12 194 -21 c 0
 170 -36 145 -44 122 -44 c 0
 81 -44 38 -17 38 30 c 0
 38 58 54 80 74 93 c 0
 79 96 84 98 87 98 c 0
 93 98 96 94 96 88 c 0
 96 83 94 77 88 73 c 0
 79 69 74 55 74 42 c 0
EndSplineSet
Validated: 1
AlternateSubs2: "'rand' Randomize in lookup 0-1" uniE0CA uniE0EA uniE10A uniE12A
EndChar

StartChar: uni0459
Encoding: 1113 1113 181
Width: 510
VWidth: 1022
Flags: W
HStem: 3 30<87.3191 141.082 367.273 412.956> 142 27<367 404.579> 409 29<184 332>
VStem: 45 36<37.9454 91.247> 148 36<37.8799 409> 332 35<30.0066 142 169 409> 430 35<41.4052 120.295>
LayerCount: 2
Fore
SplineSet
184 85 m 2
 184 48 150 3 103 3 c 0
 73 3 45 24 45 56 c 0
 45 73 55 94 73 94 c 0
 79 94 84 90 84 85 c 0
 84 80 81 73 81 68 c 0
 81 46 98 33 115 33 c 0
 131 33 148 45 148 73 c 2
 148 418 l 2
 148 427 161 438 173 438 c 2
 357 438 l 2
 363 438 367 435 367 429 c 2
 367 169 l 1
 374 170 380 171 386 171 c 0
 432 171 465 134 465 92 c 2
 465 84 l 1
 462 43 421 1 371 1 c 0
 359 1 332 3 332 17 c 2
 332 409 l 1
 184 409 l 1
 184 85 l 2
430 80 m 0
 430 113 401 139 375 142 c 1
 367 142 l 1
 367 33 l 1
 373 31 380 30 385 30 c 0
 395 30 402 33 408 36 c 0
 417 42 427 54 429 74 c 0
 429 76 430 78 430 80 c 0
EndSplineSet
Validated: 1
AlternateSubs2: "'rand' Randomize in lookup 0-1" uniE0CD uniE0ED uniE10D uniE12D
EndChar

StartChar: uni045A
Encoding: 1114 1114 182
Width: 427
VWidth: 1022
Flags: W
HStem: 6 29<300 326.717> 137 29<80 265>
VStem: 45 35<12.1897 137 166 433.81> 265 35<35 137 167 433.81> 346 36<42.1816 120.563>
LayerCount: 2
Fore
SplineSet
291 6 m 0
 281 6 265 6 265 16 c 2
 265 137 l 1
 80 137 l 1
 80 28 l 2
 80 23 76 16 69 12 c 0
 58 5 45 6 45 16 c 2
 45 418 l 2
 45 423 49 430 56 434 c 0
 67 441 80 439 80 429 c 2
 80 166 l 1
 265 166 l 1
 265 418 l 2
 265 423 269 430 276 434 c 0
 287 441 300 439 300 429 c 2
 300 167 l 1
 305 167 l 2
 348 167 382 136 382 92 c 0
 382 90 381 87 381 84 c 0
 378 45 340 6 291 6 c 0
300 35 m 1
 312 34 321 36 327 40 c 0
 335 45 344 56 346 74 c 0
 346 76 346 78 346 80 c 0
 346 111 323 132 300 137 c 1
 300 35 l 1
EndSplineSet
Validated: 1
AlternateSubs2: "'rand' Randomize in lookup 0-1" uniE0D0 uniE0F0 uniE110 uniE130
EndChar

StartChar: uni045F
Encoding: 1119 1119 183
Width: 405
VWidth: 1022
Flags: W
HStem: 8 29<73 148 183 258>
VStem: 38 35<37 433.81> 148 35<-73.8103 8> 258 35<37 433.81>
CounterMasks: 1 70
LayerCount: 2
Fore
SplineSet
48 434 m 0
 59 441 73 439 73 429 c 2
 73 37 l 1
 258 37 l 1
 258 418 l 2
 258 423 261 430 268 434 c 0
 279 441 293 439 293 429 c 2
 293 28 l 2
 293 19 280 8 268 8 c 2
 183 8 l 1
 183 -14 183 -36 183 -58 c 0
 183 -63 179 -70 172 -74 c 0
 161 -81 148 -80 148 -70 c 0
 148 -44 148 -18 148 8 c 1
 48 8 l 2
 42 8 38 10 38 16 c 2
 38 418 l 2
 38 423 41 430 48 434 c 0
EndSplineSet
Validated: 1
AlternateSubs2: "'rand' Randomize in lookup 0-1" uniE0DC uniE0FC uniE11C uniE13C
EndChar

StartChar: uni045B
Encoding: 1115 1115 184
Width: 403
VWidth: 1022
Flags: W
HStem: 280 29<185.499 270.844> 409 29<23.6975 104 139 338.567>
VStem: 104 35<12.1897 231.008 256 409> 324 35<12.1897 220.703>
LayerCount: 2
Fore
SplineSet
324 145 m 2
 324 209 290 276 232 280 c 0
 230 280 228 280 226 280 c 0
 189 280 172 261 158 234 c 0
 146 213 139 186 139 157 c 0
 139 114 139 71 139 28 c 0
 139 23 135 16 128 12 c 0
 117 5 104 6 104 16 c 0
 104 147 104 278 104 409 c 1
 32 409 l 2
 25 409 22 413 22 418 c 0
 22 427 37 438 48 438 c 2
 330 438 l 2
 337 438 340 434 340 429 c 0
 340 420 328 409 316 409 c 2
 139 409 l 1
 139 358 139 307 139 256 c 1
 158 283 197 309 240 309 c 2
 250 309 l 1
 320 303 359 231 359 157 c 2
 359 28 l 2
 359 23 355 16 348 12 c 0
 337 5 324 6 324 16 c 2
 324 145 l 2
EndSplineSet
Validated: 1
AlternateSubs2: "'rand' Randomize in lookup 0-1" uniE0D6 uniE0F6 uniE116 uniE136
EndChar

StartChar: uni0452
Encoding: 1106 1106 185
Width: 403
VWidth: 1022
Flags: W
HStem: -7 29<199.706 281.934> 280 29<185.499 270.844> 409 29<23.6975 104 139 338.567>
VStem: 104 35<12.1897 231.008 256 409> 324 35<74.3441 221.675>
LayerCount: 2
Fore
SplineSet
324 145 m 0
 324 209 290 276 232 280 c 0
 230 280 228 280 226 280 c 0
 189 280 172 261 158 234 c 0
 146 213 139 186 139 157 c 0
 139 114 139 71 139 28 c 0
 139 23 135 16 128 12 c 0
 117 5 104 6 104 16 c 2
 104 409 l 1
 32 409 l 2
 25 409 22 413 22 418 c 0
 22 427 37 438 48 438 c 0
 142 438 236 438 330 438 c 0
 337 438 340 434 340 429 c 0
 340 420 328 409 316 409 c 2
 139 409 l 1
 139 358 139 307 139 256 c 1
 158 283 197 309 240 309 c 2
 250 309 l 1
 320 303 359 231 359 157 c 0
 359 74 314 2 236 -7 c 1
 226 -7 l 2
 202 -7 182 2 166 16 c 0
 164 17 164 19 164 21 c 0
 164 30 177 42 188 42 c 0
 191 42 194 41 196 39 c 0
 209 27 227 22 242 22 c 2
 246 22 l 1
 298 26 324 87 324 145 c 0
EndSplineSet
Validated: 1
AlternateSubs2: "'rand' Randomize in lookup 0-1" uniE0C5 uniE0E5 uniE105 uniE125
EndChar

StartChar: uniE0C0
Encoding: 57536 57536 186
Width: 375
VWidth: 1022
Flags: W
HStem: 208 29<95 279> 409 29<140.833 224.605>
VStem: 60 35<12.1897 208 237 339.961> 280 35<12.1897 208 237 335.579>
LayerCount: 2
Fore
SplineSet
195 438 m 0
 293 438 315 324 315 229 c 2
 315 28 l 2
 315 23 311 16 304 12 c 0
 293 5 280 6 280 16 c 0
 280 80 280 144 280 208 c 1
 95 208 l 1
 95 148 95 88 95 28 c 0
 95 23 91 16 84 12 c 0
 73 5 60 6 60 16 c 2
 60 217 l 2
 60 304 78 384 136 421 c 0
 154 432 175 438 195 438 c 0
279 237 m 1
 276 314 256 409 180 409 c 0
 166 409 156 406 149 401 c 0
 111 378 97 301 95 237 c 1
 279 237 l 1
EndSplineSet
Validated: 1
EndChar

StartChar: uniE0C1
Encoding: 57537 57537 187
Width: 358
VWidth: 1022
Flags: W
HStem: 7 30<76 210.984> 207 30<76 177.892> 408 31<76 312.98>
VStem: 45 31<37 207 237 408> 276 30<79.3248 147.222>
LayerCount: 2
Fore
SplineSet
76 207 m 1
 76 37 l 1
 146 37 242 44 267 87 c 0
 273 97 276 107 276 115 c 0
 276 121 274 126 272 131 c 0
 267 144 254 157 234 169 c 0
 198 191 140 205 76 207 c 1
60 439 m 2
 298 439 l 2
 306 439 313 432 313 424 c 0
 313 416 306 408 298 408 c 2
 76 408 l 1
 76 237 l 1
 144 235 207 221 250 195 c 0
 273 181 291 164 300 142 c 0
 303 133 306 124 306 115 c 0
 306 101 301 86 293 72 c 0
 258 11 159 7 71 7 c 2
 60 7 l 2
 52 7 45 14 45 22 c 0
 45 156 45 290 45 424 c 0
 45 432 52 439 60 439 c 2
EndSplineSet
Validated: 1
EndChar

StartChar: uniE0C2
Encoding: 57538 57538 188
Width: 345
VWidth: 1022
Flags: W
HStem: 8 29<80 169.907> 279 30<80 157.467> 409 29<80 164.719>
VStem: 45 35<37 279 309 409> 185 35<327.313 393.295> 265 35<96.7507 203.101>
LayerCount: 2
Fore
SplineSet
45 418 m 2
 45 429 61 438 70 438 c 2
 71 438 l 2
 137 438 220 438 220 372 c 0
 220 332 195 312 163 298 c 1
 214 285 258 259 282 221 c 0
 293 203 300 181 300 157 c 0
 300 112 275 74 234 49 c 0
 184 18 117 8 55 8 c 0
 49 8 45 10 45 16 c 2
 45 418 l 2
221 70 m 0
 247 86 265 108 265 145 c 0
 265 166 259 185 249 201 c 0
 220 248 152 274 80 279 c 1
 80 37 l 1
 135 38 188 50 221 70 c 0
80 309 m 1
 126 309 185 315 185 360 c 0
 185 406 128 409 80 409 c 1
 80 309 l 1
EndSplineSet
Validated: 1
EndChar

StartChar: uniE0C3
Encoding: 57539 57539 189
Width: 325
VWidth: 1022
Flags: W
HStem: 7 21G<48 56> 408 31<69 287.977>
VStem: 38 31<7.08057 408>
LayerCount: 2
Fore
SplineSet
38 22 m 2
 38 424 l 2
 38 432 44 439 52 439 c 2
 272 439 l 2
 280 439 288 432 288 424 c 0
 288 416 280 408 272 408 c 2
 69 408 l 1
 69 22 l 2
 69 14 60 7 52 7 c 0
 44 7 38 14 38 22 c 2
EndSplineSet
Validated: 1
EndChar

StartChar: uniE0C4
Encoding: 57540 57540 190
Width: 394
VWidth: 1022
Flags: W
HStem: 8 28<73 78 113 282 317 320> 409 29<113 282>
VStem: 38 35<-73.8103 8> 78 35<36 409> 282 35<36 409> 320 36<-73.8103 8>
LayerCount: 2
Fore
SplineSet
62 -74 m 0
 51 -81 38 -80 38 -70 c 2
 38 16 l 2
 38 25 50 36 62 36 c 2
 78 36 l 1
 78 418 l 2
 78 427 90 438 102 438 c 2
 306 438 l 2
 312 438 317 435 317 429 c 0
 317 298 317 167 317 36 c 1
 346 36 l 2
 352 36 356 34 356 28 c 2
 356 -58 l 2
 356 -63 351 -70 344 -74 c 0
 333 -81 320 -80 320 -70 c 2
 320 8 l 1
 73 8 l 1
 73 -58 l 2
 73 -63 69 -70 62 -74 c 0
113 36 m 1
 282 36 l 1
 282 409 l 1
 113 409 l 1
 113 36 l 1
EndSplineSet
Validated: 1
EndChar

StartChar: uniE0C5
Encoding: 57541 57541 191
Width: 403
VWidth: 1022
Flags: W
HStem: -7 29<199.706 281.934> 280 29<185.499 270.844> 409 29<23.6975 104 139 240.303>
VStem: 104 35<12.1897 231.008 256 409> 324 35<74.3441 221.675>
LayerCount: 2
Fore
SplineSet
324 145 m 0
 324 209 290 276 232 280 c 0
 230 280 228 280 226 280 c 0
 189 280 172 261 158 234 c 0
 146 213 139 186 139 157 c 0
 139 114 139 71 139 28 c 0
 139 23 135 16 128 12 c 0
 117 5 104 6 104 16 c 0
 104 147 104 278 104 409 c 1
 32 409 l 2
 25 409 22 413 22 418 c 0
 22 427 37 438 48 438 c 2
 230 438 l 2
 237 438 242 434 242 429 c 0
 242 420 227 409 216 409 c 2
 139 409 l 1
 139 358 139 307 139 256 c 1
 158 283 197 309 240 309 c 2
 250 309 l 1
 320 303 359 231 359 157 c 0
 359 74 314 2 236 -7 c 1
 226 -7 l 2
 202 -7 182 2 166 16 c 0
 164 17 164 19 164 21 c 0
 164 30 177 42 188 42 c 0
 191 42 194 41 196 39 c 0
 209 27 227 22 242 22 c 2
 246 22 l 1
 298 26 324 87 324 145 c 0
EndSplineSet
Validated: 1
EndChar

StartChar: uniE0C6
Encoding: 57542 57542 192
Width: 375
VWidth: 1022
Flags: W
HStem: 8 28<95 313.194> 280 29<95 233.508> 409 29<95 313.508>
VStem: 60 35<36 280 309 409>
LayerCount: 2
Fore
SplineSet
315 28 m 0
 315 19 302 8 290 8 c 2
 70 8 l 2
 64 8 60 10 60 16 c 2
 60 418 l 2
 60 427 73 438 85 438 c 2
 305 438 l 2
 312 438 315 434 315 429 c 0
 315 420 302 409 290 409 c 2
 95 409 l 1
 95 309 l 1
 225 309 l 2
 232 309 235 305 235 300 c 0
 235 291 222 280 210 280 c 2
 95 280 l 1
 95 36 l 1
 305 36 l 2
 312 36 315 33 315 28 c 0
EndSplineSet
Validated: 1
EndChar

StartChar: uniE0C7
Encoding: 57543 57543 193
Width: 433
VWidth: 1022
Flags: W
HStem: 418 20G<78 86> 418 20G<78 86 360.5 368>
VStem: 30 36<266.582 403.578> 57 35<12.2351 85.3151> 199 35<32.1897 147 181 433.81> 341 35<12.2351 80.6085 412.463 437.424> 367 36<260.683 399.347>
LayerCount: 2
Fore
SplineSet
286 166 m 1x6a
 334 145 376 96 376 29 c 0
 376 23 371 17 364 12 c 0
 353 5 341 7 341 17 c 0
 341 86 290 136 234 147 c 1
 234 114 234 81 234 48 c 0
 234 43 230 36 223 32 c 0
 212 25 199 26 199 36 c 2
 199 149 l 1
 180 147 162 142 148 133 c 0
 117 114 92 77 92 29 c 0
 92 23 88 17 81 12 c 0
 70 5 57 7 57 17 c 0x5c
 57 75 93 132 148 160 c 1
 84 183 30 244 30 327 c 0
 30 359 39 393 60 425 c 0
 65 433 74 438 82 438 c 0xa8
 90 438 96 430 90 422 c 0
 74 396 66 368 66 339 c 0
 66 255 128 192 199 181 c 1
 199 260 199 339 199 418 c 0
 199 423 203 430 210 434 c 0
 221 441 234 439 234 429 c 2
 234 179 l 1
 290 183 326 211 348 252 c 0
 360 274 367 300 367 327 c 0
 367 355 360 384 343 411 c 0
 341 413 340 415 340 417 c 0
 340 427 355 439 366 439 c 0
 370 439 373 437 375 434 c 0
 394 404 403 371 403 339 c 0
 403 255 349 194 286 166 c 1x6a
EndSplineSet
Validated: 1
EndChar

StartChar: uniE0C8
Encoding: 57544 57544 194
Width: 325
VWidth: 1022
Flags: W
HStem: 7 30<38.0044 161.5> 279 31<38.0175 144.4> 408 31<38.0175 161.611>
VStem: 178 30<335.882 391.836> 258 30<102.447 201.353>
LayerCount: 2
Fore
SplineSet
52 439 m 0
 122 439 208 437 208 366 c 0
 208 329 183 307 156 296 c 1
 221 277 288 231 288 151 c 0
 288 115 273 87 250 65 c 0
 204 22 126 7 52 7 c 0
 44 7 38 14 38 22 c 0
 38 30 44 37 52 37 c 0
 122 37 194 53 230 87 c 0
 248 104 258 124 258 151 c 0
 258 179 246 202 228 221 c 0
 192 259 123 279 52 279 c 0
 44 279 38 286 38 294 c 0
 38 302 44 310 52 310 c 0
 98 310 151 317 170 343 c 0
 174 349 178 356 178 366 c 0
 178 375 174 381 170 386 c 0
 152 408 97 408 54 408 c 2
 52 408 l 2
 44 408 38 416 38 424 c 0
 38 432 44 439 52 439 c 0
EndSplineSet
Validated: 1
EndChar

StartChar: uniE0C9
Encoding: 57545 57545 195
Width: 375
VWidth: 1022
Flags: W
HStem: 8 21G<67 73.5> 8 21G<67 73.5>
VStem: 60 35<63 433.81> 280 35<12.1897 239 279 433.81>
LayerCount: 2
Fore
SplineSet
291 434 m 0xb0
 302 441 315 439 315 429 c 2
 315 28 l 2
 315 23 311 16 304 12 c 0
 293 5 280 6 280 16 c 2
 280 239 l 1
 91 18 l 2
 85 12 77 8 70 8 c 0
 64 8 60 10 60 16 c 2
 60 418 l 2
 60 423 64 430 71 434 c 0
 82 441 95 439 95 429 c 2
 95 63 l 1
 280 279 l 1
 280 418 l 2
 280 423 284 430 291 434 c 0xb0
EndSplineSet
Validated: 1
EndChar

StartChar: uniE0CA
Encoding: 57546 57546 196
Width: 328
VWidth: 1022
Flags: W
HStem: -7 31<102.886 199.714> 422 20G<269 277>
VStem: 39 29<59.7051 97.971> 258 30<88.9587 441.995>
LayerCount: 2
Fore
SplineSet
288 154 m 2
 288 76 239 -7 151 -7 c 0
 99 -7 54 27 39 78 c 0
 36 88 43 98 53 98 c 0
 60 98 66 93 68 87 c 0
 79 49 113 24 151 24 c 2
 161 24 l 1
 218 31 258 88 258 154 c 2
 258 427 l 2
 258 435 265 442 273 442 c 0
 281 442 288 435 288 427 c 2
 288 154 l 2
EndSplineSet
Validated: 1
EndChar

StartChar: uniE0CB
Encoding: 57547 57547 197
Width: 329
VWidth: 1022
Flags: W
VStem: 38 35<12.1897 179 256 433.81>
LayerCount: 2
Fore
SplineSet
264 430 m 2
 274 439 288 440 292 434 c 0
 295 429 292 422 286 417 c 2
 78 227 l 1
 290 19 l 2
 292 17 293 15 293 13 c 0
 293 4 280 -7 269 -7 c 0
 266 -7 262 -6 260 -4 c 2
 73 179 l 1
 73 28 l 2
 73 23 69 16 62 12 c 0
 51 5 38 6 38 16 c 2
 38 418 l 2
 38 423 41 430 48 434 c 0
 59 441 73 439 73 429 c 2
 73 256 l 1
 264 430 l 2
EndSplineSet
Validated: 1
EndChar

StartChar: uniE0CC
Encoding: 57548 57548 198
Width: 407
VWidth: 1022
Flags: W
HStem: -1 31<77.7409 148.478> 7 21G<357 365> 408 31<174 346>
VStem: 162 31<44.0068 199.4> 346 31<7.02032 408>
LayerCount: 2
Fore
SplineSet
112 30 m 0xb8
 138 30 162 49 162 79 c 1
 142 423 l 2
 141 432 149 439 158 439 c 2
 361 439 l 2
 369 439 377 432 377 424 c 2
 377 22 l 2
 377 14 369 7 361 7 c 0x78
 353 7 346 14 346 22 c 2
 346 408 l 1
 174 408 l 1
 193 80 l 1
 193 79 l 2
 193 30 152 -1 112 -1 c 0
 88 -1 64 10 48 33 c 0
 46 36 45 39 45 42 c 0
 45 50 51 57 60 57 c 0
 65 57 70 55 73 51 c 0
 83 36 97 30 112 30 c 0xb8
EndSplineSet
Validated: 1
EndChar

StartChar: uniE0CD
Encoding: 57549 57549 199
Width: 508
VWidth: 1022
Flags: W
HStem: 0 29<87.509 152.856 381.273 426.003> 142 27<381 418.481> 409 29<179 346>
VStem: 142 239<296.6 437.721> 162 36<35.9626 193.4> 346 35<30.0066 142 169 409> 444 35<41.4052 122.585>
LayerCount: 2
Fore
SplineSet
444 80 m 0xe6
 444 114 416 139 389 142 c 1
 381 142 l 1
 381 33 l 1
 387 31 394 30 399 30 c 0
 409 30 416 33 422 36 c 0
 431 42 442 54 444 74 c 0
 444 76 444 78 444 80 c 0xe6
126 29 m 1
 146 32 162 43 162 70 c 0
 162 71 162 72 162 73 c 2xee
 142 417 l 1
 142 418 l 2
 142 427 155 438 167 438 c 2
 371 438 l 2
 377 438 381 435 381 429 c 2xf2
 381 169 l 1
 390 171 399 171 407 170 c 0
 449 166 479 133 479 92 c 2
 479 84 l 1
 476 43 435 1 385 1 c 0
 373 1 346 3 346 17 c 2
 346 409 l 1
 179 409 l 1
 198 86 l 1
 198 85 l 2xee
 198 44 161 3 115 0 c 1
 107 0 l 2
 83 0 61 10 46 31 c 0
 45 32 45 33 45 35 c 0
 45 44 59 57 70 57 c 0
 73 57 77 56 79 53 c 0
 91 36 108 29 122 29 c 2
 126 29 l 1
EndSplineSet
Validated: 1
EndChar

StartChar: uniE0CE
Encoding: 57550 57550 200
Width: 434
VWidth: 1022
Flags: W
HStem: 7 21G<71 79 355 363> 419 20G<71 77.5 356.5 363>
VStem: 60 31<7.02032 375> 343 31<7.02032 375>
LayerCount: 2
Fore
SplineSet
60 22 m 2
 60 424 l 2
 60 432 67 439 75 439 c 0
 80 439 85 436 88 432 c 2
 217 249 l 1
 346 432 l 2
 349 436 354 439 359 439 c 0
 367 439 374 432 374 424 c 2
 374 22 l 2
 374 14 367 7 359 7 c 0
 351 7 343 14 343 22 c 2
 343 375 l 1
 229 214 l 2
 223 206 211 206 205 214 c 2
 91 375 l 1
 91 22 l 2
 91 14 83 7 75 7 c 0
 67 7 60 14 60 22 c 2
EndSplineSet
Validated: 1
EndChar

StartChar: uniE0CF
Encoding: 57551 57551 201
Width: 375
VWidth: 1022
Flags: W
HStem: 208 29<95 280>
VStem: 60 35<12.1897 208 237 433.81> 280 35<12.1897 208 237 433.81>
LayerCount: 2
Fore
SplineSet
304 12 m 0
 293 5 280 6 280 16 c 2
 280 208 l 1
 95 208 l 1
 95 148 95 88 95 28 c 0
 95 23 91 16 84 12 c 0
 73 5 60 6 60 16 c 2
 60 418 l 2
 60 423 64 430 71 434 c 0
 82 441 95 439 95 429 c 0
 95 365 95 301 95 237 c 1
 280 237 l 1
 280 418 l 2
 280 423 284 430 291 434 c 0
 302 441 315 439 315 429 c 2
 315 28 l 2
 315 23 311 16 304 12 c 0
EndSplineSet
Validated: 1
EndChar

StartChar: uniE0D0
Encoding: 57552 57552 202
Width: 457
VWidth: 1022
Flags: W
HStem: 8 21G<285.5 322.5> 8 21G<285.5 322.5> 208 29<95 280>
VStem: 60 35<12.1897 208 237 433.81> 280 35<40 197 237 433.81> 361 36<69.3043 170.105>
LayerCount: 2
Fore
SplineSet
396 120 m 0xbc
 393 69 351 19 294 8 c 0
 292 8 290 8 288 8 c 0
 283 9 280 11 280 16 c 2
 280 208 l 1
 95 208 l 1
 95 148 95 88 95 28 c 0
 95 23 91 16 84 12 c 0
 73 5 60 6 60 16 c 2
 60 418 l 2
 60 423 64 430 71 434 c 0
 82 441 95 439 95 429 c 0
 95 365 95 301 95 237 c 1
 280 237 l 1
 280 418 l 2
 280 423 284 430 291 434 c 0
 302 441 315 439 315 429 c 2
 315 235 l 1
 364 221 397 178 397 128 c 0
 397 125 396 123 396 120 c 0xbc
315 40 m 1
 318 41 321 43 324 45 c 0
 342 56 359 79 361 110 c 0
 361 112 361 114 361 116 c 0
 361 150 343 180 315 197 c 1
 315 40 l 1
EndSplineSet
Validated: 1
EndChar

StartChar: uniE0D1
Encoding: 57553 57553 203
Width: 400
VWidth: 1022
Flags: W
HStem: 5 30<147.969 252.101> 406 31<140.454 259.633>
VStem: 30 31<145.82 312.652> 340 30<146.495 310.392>
LayerCount: 2
Fore
SplineSet
200 5 m 0
 121 5 67 74 44 145 c 0
 35 174 30 203 30 232 c 0
 30 339 94 437 200 437 c 0
 306 437 370 339 370 232 c 0
 370 203 365 174 356 145 c 0
 333 74 279 5 200 5 c 0
200 35 m 0
 281 35 340 133 340 232 c 0
 340 329 283 406 200 406 c 0
 117 406 61 329 61 232 c 0
 61 133 119 35 200 35 c 0
EndSplineSet
Validated: 1
EndChar

StartChar: uniE0D2
Encoding: 57554 57554 204
Width: 370
VWidth: 1022
Flags: W
HStem: 7 21G<71 79 291 299> 392 31<91 280>
VStem: 60 31<7.02032 392> 280 30<7.0051 392>
LayerCount: 2
Fore
SplineSet
75 7 m 0
 67 7 60 14 60 22 c 2
 60 408 l 2
 60 416 67 423 75 423 c 2
 295 423 l 2
 303 423 310 416 310 408 c 2
 310 22 l 2
 310 14 303 7 295 7 c 0
 287 7 280 14 280 22 c 2
 280 392 l 1
 91 392 l 1
 91 22 l 2
 91 14 83 7 75 7 c 0
EndSplineSet
Validated: 1
EndChar

StartChar: uniE0D3
Encoding: 57555 57555 205
Width: 345
VWidth: 1022
Flags: W
HStem: 280 29<73 219.206> 409 29<73 218.643>
VStem: 38 35<12.1897 280 309 409> 258 35<329.627 384.581>
LayerCount: 2
Fore
SplineSet
252 373 m 0
 230 408 136 409 73 409 c 1
 73 309 l 1
 132 309 209 309 242 330 c 0
 253 336 258 343 258 360 c 0
 258 365 255 369 252 373 c 0
293 369 m 0
 293 342 275 320 256 309 c 0
 231 294 201 289 170 285 c 0
 139 281 106 280 73 280 c 1
 73 28 l 2
 73 23 69 16 62 12 c 0
 51 5 38 6 38 16 c 2
 38 418 l 2
 38 427 50 438 62 438 c 2
 66 438 l 2
 75 438 84 438 93 438 c 0
 167 438 260 436 286 394 c 0
 291 386 293 378 293 369 c 0
EndSplineSet
Validated: 1
EndChar

StartChar: uniE0D4
Encoding: 57556 57556 206
Width: 447
VWidth: 1022
Flags: W
HStem: 5 31<189.032 314.625> 410 31<189.965 313.969>
VStem: 60 30<148.667 304.436>
LayerCount: 2
Fore
SplineSet
371 351 m 0
 366 351 362 353 359 357 c 0
 333 391 294 410 252 410 c 0
 245 410 239 410 232 409 c 0
 147 396 90 318 90 228 c 0
 90 129 152 49 232 37 c 0
 239 36 245 36 252 36 c 0
 294 36 333 55 359 89 c 0
 362 93 366 95 371 95 c 0
 380 95 387 87 387 79 c 0
 387 76 386 73 384 70 c 0
 352 29 303 5 252 5 c 0
 160 5 99 71 73 146 c 0
 64 173 60 200 60 227 c 0
 60 329 123 423 227 439 c 0
 235 440 244 441 252 441 c 0
 303 441 351 417 383 376 c 0
 385 373 387 370 387 367 c 0
 387 359 380 351 371 351 c 0
EndSplineSet
Validated: 1
EndChar

StartChar: uniE0D5
Encoding: 57557 57557 207
Width: 350
VWidth: 1022
Flags: W
HStem: 409 29<31.4918 158 193 318.291>
VStem: 158 35<12.1897 409>
LayerCount: 2
Fore
SplineSet
320 429 m 0
 320 421 307 409 296 409 c 2
 193 409 l 1
 193 282 193 155 193 28 c 0
 193 23 188 16 181 12 c 0
 170 5 158 6 158 16 c 0
 158 147 158 278 158 409 c 1
 40 409 l 2
 33 409 30 413 30 418 c 0
 30 427 43 438 55 438 c 2
 310 438 l 2
 317 438 320 434 320 429 c 0
EndSplineSet
Validated: 1
EndChar

StartChar: uniE0D6
Encoding: 57558 57558 208
Width: 403
VWidth: 1022
Flags: W
HStem: 280 29<185.499 270.844> 409 29<23.6975 104 139 240.303>
VStem: 104 35<12.1897 231.008 256 409> 324 35<12.1897 220.703>
LayerCount: 2
Fore
SplineSet
324 145 m 2
 324 209 290 276 232 280 c 0
 230 280 228 280 226 280 c 0
 189 280 172 261 158 234 c 0
 146 213 139 186 139 157 c 0
 139 114 139 71 139 28 c 0
 139 23 135 16 128 12 c 0
 117 5 104 6 104 16 c 2
 104 409 l 1
 32 409 l 2
 25 409 22 413 22 418 c 0
 22 427 37 438 48 438 c 0
 109 438 169 438 230 438 c 0
 237 438 242 434 242 429 c 0
 242 420 227 409 216 409 c 2
 139 409 l 1
 139 358 139 307 139 256 c 1
 158 283 197 309 240 309 c 2
 250 309 l 1
 320 303 359 231 359 157 c 2
 359 28 l 2
 359 23 355 16 348 12 c 0
 337 5 324 6 324 16 c 2
 324 145 l 2
EndSplineSet
Validated: 1
EndChar

StartChar: uniE0D7
Encoding: 57559 57559 209
Width: 345
VWidth: 1022
Flags: W
HStem: 8 21G<129 137.5> 8 21G<129 137.5> 418 20G<302.5 311> 419 20G<51.5 58.5 302.5 311>
VStem: 32 287<417 429>
LayerCount: 2
Fore
SplineSet
34 412 m 2xa8
 33 414 32 415 32 417 c 0
 32 426 46 439 57 439 c 0x98
 60 439 64 438 66 435 c 2
 217 256 l 1
 285 422 l 2
 289 429 297 438 308 438 c 0
 314 438 319 434 319 429 c 0
 319 428 319 427 318 425 c 2
 237 225 l 1
 237 223 l 1
 156 23 l 2
 152 16 143 8 132 8 c 0
 126 8 122 11 122 16 c 0
 122 17 122 19 123 21 c 2
 201 215 l 1
 34 412 l 2xa8
EndSplineSet
Validated: 1
EndChar

StartChar: uniE0D8
Encoding: 57560 57560 210
Width: 414
VWidth: 1022
Flags: W
HStem: 79 30<126.193 189 225 290.625> 335 31<137.747 189 225 272.071>
VStem: 30 35<160.655 271.019> 189 36<12.1897 79 109 335 366 433.81> 349 35<154.037 264.302>
CounterMasks: 1 38
LayerCount: 2
Fore
SplineSet
384 218 m 0
 384 131 306 85 225 80 c 1
 225 28 l 2
 225 23 220 16 213 12 c 0
 202 5 189 6 189 16 c 2
 189 79 l 1
 135 80 78 95 49 141 c 0
 36 161 30 183 30 206 c 0
 30 255 58 305 110 337 c 0
 134 352 161 361 189 365 c 1
 189 418 l 2
 189 423 194 430 201 434 c 0
 212 441 225 439 225 429 c 2
 225 366 l 1
 288 363 337 330 363 288 c 0
 376 267 384 243 384 218 c 0
189 337 m 1
 120 332 65 283 65 217 c 0
 65 198 70 179 82 161 c 0
 104 125 145 112 189 109 c 1
 189 337 l 1
225 335 m 1
 225 108 l 1
 276 110 313 121 333 153 c 0
 343 169 349 187 349 206 c 0
 349 227 342 248 330 267 c 0
 309 302 271 328 225 335 c 1
EndSplineSet
Validated: 1
EndChar

StartChar: uniE0D9
Encoding: 57561 57561 211
Width: 344
VWidth: 1022
Flags: W
HStem: 8 21G<50.5 59> 8 21G<50.5 59>
VStem: 47 251
LayerCount: 2
Fore
SplineSet
56 402 m 0xa0
 65 408 76 408 79 402 c 2
 176 239 l 1
 267 393 l 2
 272 401 282 406 290 406 c 0
 299 406 302 399 298 390 c 2
 192 212 l 1
 299 32 l 2
 302 26 298 18 289 12 c 0
 280 6 269 6 266 12 c 2
 169 174 l 1
 78 21 l 2
 73 13 63 8 55 8 c 0
 46 8 43 15 47 23 c 2
 153 201 l 1
 46 382 l 2
 43 388 47 396 56 402 c 0xa0
EndSplineSet
Validated: 1
EndChar

StartChar: uniE0DA
Encoding: 57562 57562 212
Width: 369
VWidth: 1037
Flags: W
HStem: 23 28<80 225 260 297>
VStem: 45 35<51 412.81> 225 35<51 412.81> 297 35<-58.8103 23>
LayerCount: 2
Fore
SplineSet
236 413 m 0
 247 420 260 419 260 409 c 2
 260 51 l 1
 321 51 l 2
 327 51 332 49 332 43 c 2
 332 -43 l 2
 332 -48 328 -55 321 -59 c 0
 310 -66 297 -65 297 -55 c 2
 297 23 l 1
 55 23 l 2
 49 23 45 25 45 31 c 2
 45 397 l 2
 45 402 49 409 56 413 c 0
 67 420 80 419 80 409 c 2
 80 51 l 1
 225 51 l 1
 225 397 l 2
 225 402 229 409 236 413 c 0
EndSplineSet
Validated: 1
EndChar

StartChar: uniE0DB
Encoding: 57563 57563 213
Width: 353
VWidth: 1022
Flags: W
HStem: 199 28<179.424 273> 418 20G<62 79> 418 20G<62 79>
VStem: 45 35<316.431 428.953> 273 35<12.1897 204 228.046 433.81>
LayerCount: 2
Fore
SplineSet
45 374 m 0xb8
 45 399 48 438 76 438 c 0xd8
 82 438 87 434 87 429 c 0
 87 428 86 427 86 426 c 0
 82 413 80 400 80 386 c 0
 80 308 139 250 199 233 c 0
 213 229 227 227 241 227 c 0
 252 227 262 229 273 231 c 1
 273 418 l 2
 273 423 277 430 284 434 c 0
 295 441 308 439 308 429 c 2
 308 28 l 2
 308 23 304 16 297 12 c 0
 286 5 273 6 273 16 c 2
 273 204 l 1
 257 200 241 199 226 199 c 0
 209 199 192 201 176 205 c 0
 120 221 73 262 53 322 c 0
 47 339 45 356 45 374 c 0xb8
EndSplineSet
Validated: 1
EndChar

StartChar: uniE0DC
Encoding: 57564 57564 214
Width: 375
VWidth: 1037
Flags: W
HStem: 23 28<95 170 205 280>
VStem: 60 35<51 416.81> 170 35<-58.8103 23> 280 35<51 416.81>
CounterMasks: 1 70
LayerCount: 2
Fore
SplineSet
71 417 m 0
 82 424 95 423 95 413 c 2
 95 51 l 1
 280 51 l 1
 280 401 l 2
 280 406 284 413 291 417 c 0
 302 424 315 423 315 413 c 2
 315 43 l 2
 315 34 302 23 290 23 c 2
 205 23 l 1
 205 1 205 -21 205 -43 c 0
 205 -48 201 -55 194 -59 c 0
 183 -66 170 -65 170 -55 c 0
 170 -29 170 -3 170 23 c 1
 70 23 l 2
 64 23 60 25 60 31 c 2
 60 401 l 2
 60 406 64 413 71 417 c 0
EndSplineSet
Validated: 1
EndChar

StartChar: uniE0DD
Encoding: 57565 57565 215
Width: 439
VWidth: 1022
Flags: W
HStem: 8 28<95 202 237 343>
VStem: 60 35<36 433.81> 202 35<36 232.81> 343 36<36 433.81>
LayerCount: 2
Fore
SplineSet
71 434 m 0
 82 441 95 439 95 429 c 2
 95 36 l 1
 202 36 l 1
 202 217 l 2
 202 222 206 229 213 233 c 0
 224 240 237 239 237 229 c 2
 237 36 l 1
 343 36 l 1
 343 418 l 2
 343 423 348 430 355 434 c 0
 366 441 379 439 379 429 c 2
 379 28 l 2
 379 19 366 8 354 8 c 2
 70 8 l 2
 64 8 60 10 60 16 c 2
 60 418 l 2
 60 423 64 430 71 434 c 0
EndSplineSet
Validated: 1
EndChar

StartChar: uniE0E0
Encoding: 57568 57568 216
Width: 375
VWidth: 1037
Flags: W
HStem: 152 28<95 280> 392 29<139.28 224.265>
VStem: 60 35<27.1897 152 180 317.437> 280 35<27.1897 152 180 318.375>
LayerCount: 2
Fore
SplineSet
195 421 m 0
 308 421 315 281 315 172 c 2
 315 43 l 2
 315 38 311 31 304 27 c 0
 293 20 280 21 280 31 c 2
 280 152 l 1
 95 152 l 1
 95 43 l 2
 95 38 91 31 84 27 c 0
 73 20 60 21 60 31 c 2
 60 160 l 2
 60 261 70 365 135 405 c 0
 153 416 174 421 195 421 c 0
95 180 m 1
 280 180 l 1
 279 246 272 313 247 353 c 0
 231 378 209 392 180 392 c 0
 152 392 141 382 129 365 c 0
 101 323 95 250 95 180 c 1
EndSplineSet
Validated: 1
EndChar

StartChar: uniE0E1
Encoding: 57569 57569 217
Width: 358
VWidth: 1022
Flags: W
HStem: 7 31<76 164.806> 246 30<103.184 220.635> 408 31<76 294.98>
VStem: 45 31<38 222.375 250 408> 282 31<111.454 194.813>
LayerCount: 2
Fore
SplineSet
282 150 m 0
 282 204 223 246 159 246 c 2
 158 246 l 2
 124 246 93 232 76 204 c 1
 76 38 l 1
 144 41 226 66 263 106 c 0
 275 120 282 134 282 150 c 0
159 276 m 0
 240 276 313 225 313 150 c 0
 313 94 263 62 222 42 c 0
 172 19 111 7 60 7 c 0
 52 7 45 14 45 22 c 2
 45 424 l 2
 45 432 52 439 60 439 c 2
 280 439 l 2
 288 439 295 432 295 424 c 0
 295 416 288 408 280 408 c 2
 76 408 l 1
 76 250 l 1
 99 268 129 276 159 276 c 0
EndSplineSet
Validated: 1
EndChar

StartChar: uniE0E2
Encoding: 57570 57570 218
Width: 345
VWidth: 1022
Flags: W
HStem: 8 29<80 181.683> 208 29<80 147.768> 418 20G<63 98.5> 418 20G<63 98.5>
VStem: 45 35<37 208 237 407> 185 35<265.329 356.92> 265 35<84.2101 174.531>
LayerCount: 2
Fore
SplineSet
168 235 m 1xee
 228 230 300 214 300 142 c 0
 300 64 226 30 164 18 c 0
 129 11 91 8 55 8 c 0
 49 8 45 10 45 16 c 2
 45 418 l 6xde
 45 429 56 438 70 438 c 4
 127 438 179 413 204 372 c 0
 214 356 220 336 220 315 c 0
 220 283 201 255 168 235 c 1xee
80 37 m 1
 155 37 229 49 256 95 c 0
 261 104 265 116 265 131 c 0
 265 206 172 208 92 208 c 0
 88 208 84 208 80 208 c 1
 80 37 l 1
159 257 m 0
 174 266 185 279 185 303 c 0
 185 361 135 398 80 407 c 1
 80 237 l 1
 112 238 141 246 159 257 c 0
EndSplineSet
Validated: 1
EndChar

StartChar: uniE0E3
Encoding: 57571 57571 219
Width: 329
VWidth: 1022
Flags: W
HStem: 409 29<73 254>
VStem: 38 35<12.1897 409>
LayerCount: 2
Fore
SplineSet
62 12 m 0
 51 5 38 6 38 16 c 2
 38 418 l 2
 38 427 50 438 62 438 c 2
 282 438 l 2
 289 438 294 433 292 426 c 2
 276 369 l 2
 274 361 263 352 252 352 c 0
 245 352 240 356 242 363 c 2
 254 409 l 1
 73 409 l 1
 73 28 l 2
 73 23 69 16 62 12 c 0
EndSplineSet
Validated: 1
EndChar

StartChar: uniE0E4
Encoding: 57572 57572 220
Width: 394
VWidth: 1022
Flags: W
HStem: 8 28<73 96 132 262 296 320> 409 29<114 280>
VStem: 38 35<-73.8103 8> 78 36<268.833 409> 96 36<36 181.056> 262 34<36 173.55> 320 36<-73.8103 8>
LayerCount: 2
Fore
SplineSet
62 -74 m 0xf6
 51 -81 38 -80 38 -70 c 2
 38 16 l 2
 38 25 50 36 62 36 c 2
 96 36 l 1xee
 78 417 l 2
 78 426 90 438 102 438 c 2
 306 438 l 2
 312 438 316 435 316 429 c 2
 296 36 l 1
 346 36 l 2
 352 36 356 34 356 28 c 2
 356 -58 l 2
 356 -63 351 -70 344 -74 c 0
 333 -81 320 -80 320 -70 c 2
 320 8 l 1
 73 8 l 1
 73 -58 l 2
 73 -63 69 -70 62 -74 c 0xf6
132 36 m 1
 262 36 l 1
 280 409 l 1
 114 409 l 1xf6
 132 36 l 1
EndSplineSet
Validated: 1
EndChar

StartChar: uniE0E5
Encoding: 57573 57573 221
Width: 406
VWidth: 1022
Flags: W
HStem: -55 29<214.853 287.111> 281 29<185.172 266.148> 409 29<23.6975 104 139 338.567>
VStem: 104 35<12.1897 231.344 257 409> 164 35<-12.0805 31.9062> 326 36<26.469 208.939>
LayerCount: 2
Fore
SplineSet
199 26 m 0
 199 -4 223 -26 248 -26 c 0
 262 -26 272 -23 280 -18 c 0
 308 -1 326 55 326 106 c 0
 326 158 316 202 294 236 c 0
 279 261 258 277 232 280 c 0
 229 280 225 281 222 281 c 0
 209 281 199 277 190 272 c 0
 161 253 139 206 139 157 c 0
 139 114 139 71 139 28 c 0
 139 23 135 16 128 12 c 0
 117 5 104 6 104 16 c 0
 104 147 104 278 104 409 c 1
 32 409 l 2
 25 409 22 413 22 418 c 0
 22 427 37 438 48 438 c 2
 330 438 l 2
 337 438 340 434 340 429 c 0
 340 420 328 409 316 409 c 2
 139 409 l 1
 139 257 l 1
 158 284 197 310 238 310 c 0
 321 310 348 231 358 158 c 0
 360 144 362 130 362 117 c 0
 362 88 357 61 348 36 c 0
 333 -7 295 -55 234 -55 c 0
 195 -55 164 -26 164 14 c 0
 164 17 164 20 164 23 c 0
 165 28 170 34 176 38 c 0
 188 45 201 43 200 32 c 0
 200 30 199 28 199 26 c 0
EndSplineSet
Validated: 1
EndChar

StartChar: uniE0E6
Encoding: 57574 57574 222
Width: 375
VWidth: 1037
Flags: W
HStem: 23 28<95 313.194> 152 28<95 281.194> 392 29<95 313.508>
VStem: 60 35<51 152 180 392>
LayerCount: 2
Fore
SplineSet
315 43 m 0
 315 34 302 23 290 23 c 2
 70 23 l 2
 64 23 60 25 60 31 c 2
 60 401 l 2
 60 410 73 421 85 421 c 2
 305 421 l 2
 312 421 315 417 315 412 c 0
 315 403 302 392 290 392 c 2
 95 392 l 1
 95 180 l 1
 273 180 l 2
 280 180 283 177 283 172 c 0
 283 163 270 152 258 152 c 2
 95 152 l 1
 95 51 l 1
 305 51 l 2
 312 51 315 48 315 43 c 0
EndSplineSet
Validated: 1
EndChar

StartChar: uniE0E7
Encoding: 57575 57575 223
Width: 414
VWidth: 1022
Flags: W
HStem: 8 21G<336.5 345> 8 21G<336.5 345> 418 20G<60 75> 418 20G<60 75>
VStem: 30 36<23.711 165.115> 45 36<335.573 436.276> 189 36<32.1897 237 270 361.81> 334 35<332.654 433.765> 349 35<25.8082 157.446>
LayerCount: 2
Fore
SplineSet
275 257 m 1xa7
 335 235 384 177 384 100 c 0
 384 74 378 48 365 22 c 0
 361 14 349 8 341 8 c 0
 332 8 329 14 333 22 c 0
 344 43 349 66 349 88 c 0
 349 166 291 226 225 237 c 1
 225 174 225 111 225 48 c 0
 225 43 220 36 213 32 c 0
 202 25 189 26 189 36 c 2
 189 239 l 1
 139 235 105 209 85 174 c 0
 72 153 66 127 66 100 c 0
 66 78 70 55 82 32 c 0
 85 26 81 17 72 12 c 0
 63 6 52 6 49 12 c 0
 36 37 30 62 30 88 c 0xaa80
 30 166 79 226 138 251 c 1
 88 273 45 323 45 391 c 0
 45 413 48 438 72 438 c 0
 78 438 83 435 83 430 c 0
 83 421 81 412 81 403 c 0
 81 333 133 281 189 270 c 1
 189 346 l 2
 189 351 194 358 201 362 c 0
 212 369 225 368 225 358 c 0
 225 328 225 298 225 268 c 1
 245 270 262 276 276 285 c 0
 308 305 334 343 334 391 c 0
 334 401 332 409 332 416 c 0
 332 423 334 429 342 434 c 0
 352 440 364 439 366 431 c 0
 368 422 369 412 369 403 c 0
 369 349 340 296 289 264 c 0
 285 261 280 259 275 257 c 1xa7
EndSplineSet
Validated: 1
EndChar

StartChar: uniE0E8
Encoding: 57576 57576 224
Width: 325
VWidth: 1022
Flags: W
HStem: 7 30<38.0044 172.413> 208 30<38.0044 132.851> 408 31<38.0175 119.21>
VStem: 178 30<272.613 354.481> 258 30<93.4686 174.717>
LayerCount: 2
Fore
SplineSet
164 234 m 1
 227 227 288 208 288 137 c 0
 288 114 282 94 270 77 c 0
 232 23 140 7 52 7 c 0
 44 7 38 14 38 22 c 0
 38 30 44 37 52 37 c 0
 128 37 213 50 244 94 c 0
 252 105 258 120 258 137 c 0
 258 153 253 163 246 172 c 0
 216 208 132 208 62 208 c 2
 52 208 l 2
 44 208 38 215 38 223 c 0
 38 231 44 238 52 238 c 0
 96 238 141 250 162 271 c 0
 172 281 178 293 178 309 c 0
 178 366 120 408 52 408 c 0
 44 408 38 416 38 424 c 0
 38 432 44 439 52 439 c 0
 130 439 208 389 208 309 c 0
 208 285 198 264 182 249 c 0
 177 244 171 238 164 234 c 1
EndSplineSet
Validated: 1
EndChar

StartChar: uniE0E9
Encoding: 57577 57577 225
Width: 375
VWidth: 1037
Flags: W
VStem: 60 35<60 416.81> 280 35<27.1897 129 156 416.81>
LayerCount: 2
Fore
SplineSet
291 417 m 0
 302 424 315 423 315 413 c 2
 315 43 l 2
 315 38 311 31 304 27 c 0
 293 20 280 21 280 31 c 2
 280 129 l 1
 82 26 l 2
 72 21 60 22 60 31 c 2
 60 401 l 2
 60 406 64 413 71 417 c 0
 82 424 95 423 95 413 c 2
 95 60 l 1
 280 156 l 1
 280 401 l 2
 280 406 284 413 291 417 c 0
EndSplineSet
Validated: 1
EndChar

StartChar: uniE0EA
Encoding: 57578 57578 226
Width: 333
VWidth: 1022
Flags: W
HStem: -10 29<80.1491 189.225>
VStem: 258 35<88.4641 436.81>
LayerCount: 2
Fore
SplineSet
293 160 m 2
 293 77 223 -10 123 -10 c 0
 93 -10 66 -1 42 14 c 0
 39 16 38 18 38 21 c 0
 38 30 52 41 63 41 c 0
 66 41 68 40 70 39 c 0
 91 25 115 19 138 19 c 0
 161 19 184 26 199 36 c 0
 232 57 258 98 258 148 c 2
 258 421 l 2
 258 426 262 433 269 437 c 0
 280 444 293 443 293 433 c 2
 293 160 l 2
EndSplineSet
Validated: 1
EndChar

StartChar: uniE0EB
Encoding: 57579 57579 227
Width: 329
VWidth: 1022
Flags: W
VStem: 38 35<12.1897 118 189 433.81>
LayerCount: 2
Fore
SplineSet
262 397 m 2
 268 403 276 406 282 406 c 0
 294 406 297 396 288 387 c 2
 78 158 l 1
 288 20 l 2
 291 18 293 15 293 12 c 0
 293 3 279 -7 268 -7 c 0
 265 -7 262 -6 260 -5 c 2
 73 118 l 1
 73 88 73 58 73 28 c 0
 73 23 69 16 62 12 c 0
 51 5 38 6 38 16 c 2
 38 418 l 2
 38 423 41 430 48 434 c 0
 59 441 73 439 73 429 c 0
 73 349 73 269 73 189 c 1
 262 397 l 2
EndSplineSet
Validated: 1
EndChar

StartChar: uniE0EC
Encoding: 57580 57580 228
Width: 397
VWidth: 1037
Flags: W
HStem: 18 30<87.3191 141.082> 384 29<184 332>
VStem: 45 36<52.9454 106.247> 148 36<52.8799 384> 332 35<27.1897 384>
LayerCount: 2
Fore
SplineSet
184 100 m 2
 184 63 150 18 103 18 c 0
 73 18 45 39 45 71 c 0
 45 88 55 109 73 109 c 0
 79 109 84 105 84 100 c 0
 84 95 81 88 81 83 c 0
 81 61 98 48 115 48 c 0
 131 48 148 60 148 88 c 2
 148 393 l 2
 148 402 161 413 173 413 c 2
 357 413 l 2
 363 413 367 411 367 405 c 2
 367 43 l 2
 367 38 363 31 356 27 c 0
 345 20 332 21 332 31 c 2
 332 384 l 1
 184 384 l 1
 184 100 l 2
EndSplineSet
Validated: 1
EndChar

StartChar: uniE0ED
Encoding: 57581 57581 229
Width: 495
VWidth: 1037
Flags: W
HStem: 18 30<87.3191 141.082 367.451 416.127> 146 27<367 407.761> 384 29<184 332>
VStem: 45 36<52.9454 106.247> 148 36<52.8799 384> 332 35<43.2043 146 173 384> 429 36<52.7681 129.609>
LayerCount: 2
Fore
SplineSet
184 100 m 2
 184 63 150 18 103 18 c 0
 73 18 45 39 45 71 c 0
 45 88 55 109 73 109 c 0
 79 109 84 105 84 100 c 0
 84 95 81 88 81 83 c 0
 81 61 98 48 115 48 c 0
 131 48 148 60 148 88 c 2
 148 393 l 2
 148 402 161 413 173 413 c 2
 357 413 l 2
 363 413 367 411 367 405 c 2
 367 173 l 1
 375 175 384 175 391 175 c 0
 433 174 465 142 465 101 c 0
 465 59 423 14 374 14 c 0
 363 14 332 18 332 32 c 2
 332 384 l 1
 184 384 l 1
 184 100 l 2
429 89 m 0
 429 123 401 144 375 146 c 1
 367 146 l 1
 367 48 l 1
 374 45 382 43 388 43 c 0
 397 43 405 46 410 49 c 0
 419 55 429 67 429 89 c 0
EndSplineSet
Validated: 1
EndChar

StartChar: uniE0EE
Encoding: 57582 57582 230
Width: 439
VWidth: 1022
Flags: W
HStem: 418 20G<364.5 372> 418 20G<364.5 372>
VStem: 60 35<12.1897 330 433 433.81> 343 36<12.1897 341>
LayerCount: 2
Fore
SplineSet
379 429 m 2xb0
 379 28 l 2
 379 23 374 16 367 12 c 0
 356 5 343 6 343 16 c 2
 343 341 l 1
 236 80 l 2
 234 76 231 72 226 69 c 0
 217 63 205 63 202 70 c 2
 95 330 l 1
 95 28 l 2
 95 23 91 16 84 12 c 0
 73 5 60 6 60 16 c 2
 60 418 l 2x70
 60 423 64 430 71 434 c 0
 80 440 92 440 95 433 c 2
 222 124 l 1
 344 422 l 2
 348 431 360 438 369 438 c 0
 375 438 379 435 379 429 c 2xb0
EndSplineSet
Validated: 1
EndChar

StartChar: uniE0EF
Encoding: 57583 57583 231
Width: 375
VWidth: 1022
Flags: W
HStem: 280 29<95 280>
VStem: 60 35<12.1897 280 309 433.81> 280 35<12.1897 280 309 433.81>
LayerCount: 2
Fore
SplineSet
304 12 m 0
 293 5 280 6 280 16 c 2
 280 280 l 1
 95 280 l 1
 95 196 95 112 95 28 c 0
 95 23 91 16 84 12 c 0
 73 5 60 6 60 16 c 2
 60 418 l 2
 60 423 64 430 71 434 c 0
 82 441 95 439 95 429 c 0
 95 389 95 349 95 309 c 1
 280 309 l 1
 280 418 l 2
 280 423 284 430 291 434 c 0
 302 441 315 439 315 429 c 2
 315 28 l 2
 315 23 311 16 304 12 c 0
EndSplineSet
Validated: 1
EndChar

StartChar: uniE0F0
Encoding: 57584 57584 232
Width: 504
VWidth: 1022
Flags: W
HStem: 8 21G<285.5 333.5> 8 21G<285.5 333.5> 280 29<95 280 315 337.771>
VStem: 60 35<12.1897 280 309 433.81> 280 35<37 276 309 433.81> 409 35<96.1564 215.229>
LayerCount: 2
Fore
SplineSet
444 156 m 1xbc
 441 83 376 11 291 8 c 0
 290 8 289 8 288 8 c 0
 283 9 280 11 280 16 c 0
 280 104 280 192 280 280 c 1
 95 280 l 1
 95 196 95 112 95 28 c 0
 95 23 91 16 84 12 c 0
 73 5 60 6 60 16 c 2
 60 418 l 2
 60 423 64 430 71 434 c 0
 82 441 95 439 95 429 c 0
 95 389 95 349 95 309 c 1
 280 309 l 1
 280 418 l 2
 280 423 284 430 291 434 c 0
 302 441 315 439 315 429 c 2
 315 308 l 1
 386 299 444 245 444 164 c 2
 444 156 l 1xbc
315 37 m 1
 331 39 344 45 356 52 c 0
 384 69 407 103 409 146 c 0
 409 148 409 150 409 152 c 0
 409 215 365 262 315 276 c 1
 315 37 l 1
EndSplineSet
Validated: 1
EndChar

StartChar: uniE0F1
Encoding: 57585 57585 233
Width: 405
VWidth: 1022
Flags: W
HStem: 7 29<154.165 261.932> 408 29<147.641 247.972>
VStem: 30 35<133.574 300.408> 340 35<123.965 297.602>
LayerCount: 2
Fore
SplineSet
195 7 m 0
 93 7 30 99 30 205 c 0
 30 233 35 263 44 292 c 0
 65 358 119 437 210 437 c 0
 289 437 341 370 361 302 c 0
 370 274 375 245 375 217 c 0
 375 133 338 67 282 32 c 0
 256 16 226 7 195 7 c 0
65 217 m 0
 65 123 123 36 210 36 c 0
 234 36 253 42 269 52 c 0
 311 78 340 138 340 206 c 0
 340 303 282 408 195 408 c 0
 175 408 160 403 146 394 c 0
 103 366 65 294 65 217 c 0
EndSplineSet
Validated: 1
EndChar

StartChar: uniE0F2
Encoding: 57586 57586 234
Width: 406
VWidth: 1022
Flags: W
HStem: 7 21G<71 79 327 335> 408 31<91 316>
VStem: 60 31<7.02032 408> 316 30<7.0051 408>
LayerCount: 2
Fore
SplineSet
60 22 m 6
 60 424 l 6
 60 432 67 439 75 439 c 6
 331 439 l 6
 339 439 346 432 346 424 c 6
 346 22 l 6
 346 14 339 7 331 7 c 4
 323 7 316 14 316 22 c 6
 316 408 l 5
 91 408 l 5
 91 22 l 6
 91 14 83 7 75 7 c 4
 67 7 60 14 60 22 c 6
EndSplineSet
Validated: 1
EndChar

StartChar: uniE0F3
Encoding: 57587 57587 235
Width: 359
VWidth: 1022
Flags: W
HStem: 7 21G<46 53.5> 138 28<73 146.181> 409 29<73 198.575>
VStem: 38 35<8.91059 139.607 166 409> 272 35<256.164 360.556>
LayerCount: 2
Fore
SplineSet
73 166 m 1
 142 169 198 191 234 227 c 0
 257 250 272 277 272 307 c 0
 272 323 267 339 258 356 c 0
 232 402 150 408 73 409 c 1
 73 166 l 1
74 438 m 0
 179 438 307 433 307 319 c 0
 307 282 290 246 258 215 c 0
 214 172 147 143 73 138 c 1
 73 28 l 2
 73 20 59 7 48 7 c 0
 44 7 41 9 38 12 c 0
 37 13 38 14 38 16 c 2
 38 418 l 2
 38 428 50 438 62 438 c 0
 66 438 70 438 74 438 c 0
EndSplineSet
Validated: 1
EndChar

StartChar: uniE0F4
Encoding: 57588 57588 236
Width: 451
VWidth: 1022
Flags: W
HStem: 5 31<189.263 307.755> 411 30<177.979 294.993>
VStem: 60 31<150.368 312.686> 361 31<281.02 346.134>
LayerCount: 2
Fore
SplineSet
237 411 m 0
 144 411 91 324 91 231 c 0
 91 123 163 36 248 36 c 0
 284 36 308 47 328 67 c 0
 331 70 335 72 339 72 c 0
 348 72 354 64 354 56 c 0
 354 52 353 49 350 46 c 0
 324 20 293 5 248 5 c 0
 141 5 60 111 60 231 c 0
 60 333 121 441 237 441 c 0
 317 441 386 379 392 297 c 0
 393 288 385 281 376 281 c 0
 368 281 362 287 361 295 c 0
 357 361 301 411 237 411 c 0
EndSplineSet
Validated: 1
EndChar

StartChar: uniE0F5
Encoding: 57589 57589 237
Width: 350
VWidth: 1037
Flags: W
HStem: 392 29<31.4918 158 193 318.291>
VStem: 158 35<27.1897 392>
LayerCount: 2
Fore
SplineSet
320 412 m 0
 320 404 307 392 296 392 c 2
 193 392 l 1
 193 43 l 2
 193 38 188 31 181 27 c 0
 170 20 158 21 158 31 c 2
 158 392 l 1
 40 392 l 2
 33 392 30 396 30 401 c 0
 30 410 43 421 55 421 c 2
 310 421 l 2
 317 421 320 417 320 412 c 0
EndSplineSet
Validated: 1
EndChar

StartChar: uniE0F6
Encoding: 57590 57590 238
Width: 403
VWidth: 1022
Flags: W
HStem: 209 29<164.647 285.764> 409 29<23.6975 104 139 338.567>
VStem: 104 35<12.1897 192.553 209 409> 324 35<12.1897 180.356>
LayerCount: 2
Fore
SplineSet
250 237 m 0
 300 233 359 212 359 157 c 2
 359 28 l 2
 359 23 355 16 348 12 c 0
 337 5 324 6 324 16 c 2
 324 145 l 2
 324 154 321 163 316 170 c 0
 302 193 269 206 234 208 c 0
 230 208 226 209 222 209 c 0
 197 209 173 203 160 195 c 0
 148 188 139 177 139 157 c 0
 139 114 139 71 139 28 c 0
 139 23 135 16 128 12 c 0
 117 5 104 6 104 16 c 0
 104 147 104 278 104 409 c 1
 32 409 l 2
 25 409 22 413 22 418 c 0
 22 427 37 438 48 438 c 2
 330 438 l 2
 337 438 340 434 340 429 c 0
 340 420 328 409 316 409 c 2
 139 409 l 1
 139 209 l 1
 142 211 145 213 148 215 c 0
 174 231 206 238 236 238 c 0
 241 238 245 237 250 237 c 0
EndSplineSet
Validated: 1
EndChar

StartChar: uniE0F7
Encoding: 57591 57591 239
Width: 346
VWidth: 1022
Flags: W
HStem: 8 21G<72.5 81> 8 21G<72.5 81> 418 20G<50.5 57.5 304 312.5> 418 20G<50.5 57.5 304 312.5>
VStem: 30 286
LayerCount: 2
Fore
SplineSet
34 411 m 2xa8
 31 413 30 415 30 418 c 0x98
 30 427 45 438 56 438 c 0
 59 438 61 438 63 436 c 2
 224 312 l 1
 284 424 l 2
 288 432 300 438 308 438 c 0
 317 438 320 431 316 423 c 2
 100 22 l 2
 96 14 85 8 77 8 c 0
 68 8 65 14 69 22 c 2
 207 280 l 1
 205 280 203 281 202 282 c 2
 34 411 l 2xa8
EndSplineSet
Validated: 1
EndChar

StartChar: uniE0F8
Encoding: 57592 57592 240
Width: 414
VWidth: 1022
Flags: W
HStem: 80 30<143.629 190 225 275.823> 337 28<120.004 190 225 285.381>
VStem: 30 36<178.256 291.354> 190 35<12.1897 80 110 336 366 433.81> 349 35<174.701 285.683>
LayerCount: 2
Fore
SplineSet
201 434 m 0
 212 441 225 439 225 429 c 2
 225 366 l 1
 279 365 336 351 365 305 c 0
 378 285 384 263 384 240 c 0
 384 191 356 141 304 109 c 0
 280 94 253 85 225 81 c 1
 225 28 l 2
 225 23 221 16 214 12 c 0
 203 5 190 6 190 16 c 2
 190 80 l 1
 127 83 77 116 51 158 c 0
 38 179 30 203 30 228 c 0
 30 250 36 273 50 296 c 0
 61 313 76 327 93 338 c 0
 123 357 158 363 190 365 c 1
 190 418 l 2
 190 423 194 430 201 434 c 0
225 108 m 1
 293 113 349 163 349 228 c 0
 349 247 345 266 333 284 c 0
 311 320 269 333 225 336 c 1
 225 108 l 1
190 337 m 1
 120 335 66 310 66 240 c 0
 66 219 72 197 84 178 c 0
 105 143 144 117 190 110 c 1
 190 337 l 1
EndSplineSet
Validated: 1
EndChar

StartChar: uniE0F9
Encoding: 57593 57593 241
Width: 380
VWidth: 1022
Flags: W
HStem: 8 21G<88.5 97> 8 21G<88.5 97> 418 20G<322 330.5> 418 20G<322 330.5>
VStem: 46 288
LayerCount: 2
Fore
SplineSet
56 434 m 0xa8
 65 440 76 439 79 433 c 2
 193 223 l 1
 302 424 l 2
 307 432 318 438 326 438 c 0
 335 438 338 431 334 423 c 2
 210 193 l 1
 297 32 l 2
 300 26 296 18 287 12 c 0
 278 6 267 6 264 12 c 2
 187 153 l 1
 116 21 l 2
 111 13 101 8 93 8 c 0
 84 8 81 15 85 23 c 2
 171 182 l 1
 46 414 l 2
 43 420 47 428 56 434 c 0xa8
EndSplineSet
Validated: 1
EndChar

StartChar: uniE0FA
Encoding: 57594 57594 242
Width: 369
VWidth: 1022
Flags: W
HStem: 8 28<80 225 260 295>
VStem: 45 35<36 433.81> 225 35<36 433.81>
LayerCount: 2
Fore
SplineSet
236 434 m 0
 247 441 260 439 260 429 c 2
 260 36 l 1
 321 36 l 2
 328 36 333 33 332 26 c 2
 314 -61 l 2
 312 -69 299 -79 289 -79 c 0
 282 -79 278 -75 279 -68 c 2
 295 8 l 1
 55 8 l 2
 49 8 45 10 45 16 c 2
 45 418 l 2
 45 423 49 430 56 434 c 0
 67 441 80 439 80 429 c 2
 80 36 l 1
 225 36 l 1
 225 418 l 2
 225 423 229 430 236 434 c 0
EndSplineSet
Validated: 1
EndChar

StartChar: uniE0FB
Encoding: 57595 57595 243
Width: 345
VWidth: 1022
Flags: W
HStem: 149 29<148.276 250.296>
VStem: 45 35<240.19 433.81> 265 35<12.1897 171 188.227 433.81>
LayerCount: 2
Fore
SplineSet
202 178 m 2
 224 178 251 186 265 200 c 1
 265 418 l 2
 265 423 269 430 276 434 c 0
 287 441 300 439 300 429 c 2
 300 28 l 2
 300 23 296 16 289 12 c 0
 278 5 265 6 265 16 c 2
 265 171 l 1
 239 156 212 149 188 149 c 2
 187 149 l 2
 109 149 45 210 45 289 c 2
 45 418 l 2
 45 423 49 430 56 434 c 0
 67 441 80 439 80 429 c 2
 80 300 l 2
 80 228 141 178 201 178 c 2
 202 178 l 2
EndSplineSet
Validated: 1
EndChar

StartChar: uniE0FC
Encoding: 57596 57596 244
Width: 375
VWidth: 1022
Flags: W
HStem: 8 28<96 170 205 279>
VStem: 60 36<36 192.438> 76 35<245.6 433.81> 170 35<-73.8103 8> 264 35<254.125 433.81> 279 36<36 203.875>
LayerCount: 2
Fore
SplineSet
87 434 m 0xb0
 98 441 111 439 111 429 c 2xb0
 96 36 l 1
 279 36 l 1xd4
 264 417 l 2
 264 422 268 430 275 434 c 0
 286 441 299 439 299 430 c 2x98
 315 28 l 2
 315 19 302 8 290 8 c 2
 205 8 l 1
 205 -58 l 2
 205 -63 201 -70 194 -74 c 0
 183 -81 170 -80 170 -70 c 0
 170 -44 170 -18 170 8 c 1
 70 8 l 2
 64 8 60 11 60 17 c 2xd4
 76 418 l 2
 76 423 80 430 87 434 c 0xb0
EndSplineSet
Validated: 1
EndChar

StartChar: uniE0FD
Encoding: 57597 57597 245
Width: 439
VWidth: 1037
Flags: W
HStem: 23 28<95 202 237 343>
VStem: 60 35<51 408.81> 202 35<51 319.81> 343 36<51 408.81>
LayerCount: 2
Fore
SplineSet
71 409 m 0
 82 416 95 415 95 405 c 2
 95 51 l 1
 202 51 l 1
 202 304 l 2
 202 309 206 316 213 320 c 0
 224 327 237 325 237 315 c 0
 237 227 237 139 237 51 c 1
 343 51 l 1
 343 393 l 2
 343 398 348 405 355 409 c 0
 366 416 379 415 379 405 c 2
 379 43 l 2
 379 34 366 23 354 23 c 2
 70 23 l 2
 64 23 60 25 60 31 c 2
 60 393 l 2
 60 398 64 405 71 409 c 0
EndSplineSet
Validated: 1
EndChar

StartChar: uniE100
Encoding: 57600 57600 246
Width: 375
VWidth: 1022
Flags: W
HStem: 393 29<141.02 223.753>
VStem: 60 35<12.1897 197 228 325.75> 280 35<-2.81032 170 201 317.803>
LayerCount: 2
Fore
SplineSet
195 422 m 0
 302 422 315 293 315 189 c 2
 315 13 l 2
 315 8 311 1 304 -3 c 0
 293 -10 280 -8 280 2 c 2
 280 170 l 1
 95 197 l 1
 95 28 l 2
 95 23 91 16 84 12 c 0
 73 5 60 6 60 16 c 2
 60 209 l 2
 60 294 79 370 136 405 c 0
 154 416 174 422 195 422 c 0
95 228 m 1
 279 201 l 1
 277 259 270 318 247 354 c 0
 231 379 210 393 181 393 c 0
 167 393 157 390 149 385 c 0
 113 363 97 289 95 228 c 1
EndSplineSet
Validated: 1
EndChar

StartChar: uniE101
Encoding: 57601 57601 247
Width: 340
VWidth: 1037
Flags: W
HStem: 22 31<76 172.624> 213 31<76 249.574> 391 31<76 294.98>
VStem: 45 31<53 207 238 391> 265 30<117.906 199.679>
LayerCount: 2
Fore
SplineSet
76 53 m 1
 163 57 265 82 265 166 c 0
 265 185 259 193 250 200 c 0
 241 207 226 212 206 213 c 1
 173 213 l 1
 143 212 109 208 76 207 c 1
 76 53 l 1
295 166 m 0
 295 59 169 22 60 22 c 0
 52 22 45 29 45 37 c 2
 45 407 l 2
 45 415 52 422 60 422 c 2
 280 422 l 2
 288 422 295 415 295 407 c 0
 295 399 288 391 280 391 c 2
 76 391 l 1
 76 238 l 1
 112 239 151 244 187 244 c 0
 194 244 201 243 208 243 c 0
 257 241 295 218 295 166 c 0
EndSplineSet
Validated: 1
EndChar

StartChar: uniE102
Encoding: 57602 57602 248
Width: 345
VWidth: 1022
Flags: W
HStem: 8 28<80 171.138> 136 30<80 148.505> 418 20G<65.5 113.5> 418 20G<65.5 113.5>
VStem: 45 35<36 136 166 408> 185 35<46.5133 108.968> 265 35<237.146 341.554>
LayerCount: 2
Fore
SplineSet
45 418 m 2xde
 45 429 61 438 70 438 c 0xee
 157 438 248 416 284 357 c 0
 294 341 300 322 300 300 c 0
 300 250 271 208 225 179 c 0
 207 168 186 159 165 152 c 1
 197 141 220 120 220 85 c 0
 220 14 129 8 55 8 c 0
 49 8 45 10 45 16 c 2
 45 418 l 2xde
80 36 m 1
 113 36 156 37 174 49 c 0
 179 52 185 57 185 73 c 0
 185 83 182 91 178 98 c 0
 163 122 123 133 80 136 c 1
 80 36 l 1
251 337 m 0
 223 382 153 404 80 408 c 1
 80 166 l 1
 131 167 179 180 212 200 c 0
 243 219 265 246 265 289 c 0
 265 308 260 323 251 337 c 0
EndSplineSet
Validated: 1
EndChar

StartChar: uniE103
Encoding: 57603 57603 249
Width: 330
VWidth: 1022
Flags: W
HStem: 370 82<258 293> 424 28<74 258>
VStem: 38 36<250 424> 54 35<12.1897 198> 258 35<370.19 424>
LayerCount: 2
Fore
SplineSet
78 12 m 0x58
 67 5 54 6 54 16 c 2x58
 38 432 l 2
 38 441 50 452 62 452 c 2x68
 282 452 l 2
 288 452 293 450 293 444 c 2
 293 387 l 2
 293 382 289 374 282 370 c 0xa8
 271 363 258 365 258 375 c 2
 258 424 l 1
 74 424 l 1x68
 89 28 l 2
 89 23 85 16 78 12 c 0x58
EndSplineSet
Validated: 1
EndChar

StartChar: uniE104
Encoding: 57604 57604 250
Width: 394
VWidth: 1037
Flags: W
HStem: 23 28<73 98 133 262 297 320> 384 29<133 262>
VStem: 38 35<-58.8103 23> 98 35<51 384> 262 35<51 384> 320 36<-58.8103 23>
LayerCount: 2
Fore
SplineSet
62 -59 m 0
 51 -66 38 -65 38 -55 c 2
 38 31 l 2
 38 40 50 51 62 51 c 2
 98 51 l 1
 98 393 l 2
 98 402 110 413 122 413 c 2
 286 413 l 2
 292 413 297 411 297 405 c 0
 297 287 297 169 297 51 c 1
 346 51 l 2
 352 51 356 49 356 43 c 2
 356 -43 l 2
 356 -48 351 -55 344 -59 c 0
 333 -66 320 -65 320 -55 c 2
 320 23 l 1
 73 23 l 1
 73 -43 l 2
 73 -48 69 -55 62 -59 c 0
133 51 m 1
 262 51 l 1
 262 162 262 273 262 384 c 1
 133 384 l 1
 133 273 133 162 133 51 c 1
EndSplineSet
Validated: 1
EndChar

StartChar: uniE105
Encoding: 57605 57605 251
Width: 420
VWidth: 1022
Flags: W
HStem: -55 29<214.853 294.41> 211 29<161.52 267.875> 409 29<23.6975 104 139 338.567>
VStem: 104 35<12.1897 195.869 213 409> 164 35<-12.0805 31.9062> 340 35<19.493 143.224>
LayerCount: 2
Fore
SplineSet
340 79 m 0
 340 153 280 211 208 211 c 0
 189 211 173 207 162 200 c 0
 150 192 139 179 139 157 c 2
 139 28 l 2
 139 23 135 16 128 12 c 0
 117 5 104 6 104 16 c 2
 104 409 l 1
 32 409 l 2
 25 409 22 413 22 418 c 0
 22 427 37 438 48 438 c 2
 330 438 l 2
 337 438 340 434 340 429 c 0
 340 420 328 409 316 409 c 2
 139 409 l 1
 139 213 l 1
 142 216 146 218 150 220 c 0
 172 234 197 240 222 240 c 0
 308 240 375 179 375 90 c 0
 375 33 346 -10 306 -34 c 0
 284 -48 259 -55 234 -55 c 0
 195 -55 164 -26 164 14 c 0
 164 17 164 20 164 23 c 0
 165 28 170 34 176 38 c 0
 188 45 201 43 200 32 c 0
 200 30 199 28 199 26 c 0
 199 -4 223 -26 248 -26 c 0
 290 -26 310 -6 326 22 c 0
 335 38 340 58 340 79 c 0
EndSplineSet
Validated: 1
EndChar

StartChar: uniE106
Encoding: 57606 57606 252
Width: 375
VWidth: 1022
Flags: W
HStem: 8 28<95 313.194> 208 29<95 232.625> 409 29<95 313.508>
VStem: 60 35<36 208 237 409>
LayerCount: 2
Fore
SplineSet
315 28 m 0
 315 19 302 8 290 8 c 2
 70 8 l 2
 64 8 60 10 60 16 c 2
 60 418 l 2
 60 427 73 438 85 438 c 2
 305 438 l 2
 312 438 315 434 315 429 c 0
 315 420 302 409 290 409 c 2
 95 409 l 1
 95 237 l 1
 225 237 l 2
 232 237 235 234 235 229 c 0
 235 221 221 208 210 208 c 2
 95 208 l 1
 95 36 l 1
 305 36 l 2
 312 36 315 33 315 28 c 0
EndSplineSet
Validated: 1
EndChar

StartChar: uniE107
Encoding: 57607 57607 253
Width: 411
VWidth: 1022
Flags: W
HStem: 8 21G<337 353> 8 21G<337 353> 418 20G<67 74.5 349.5 357> 418 20G<67 74.5 349.5 357>
VStem: 30 36<290.094 421.972> 43 35<12.2351 117.359> 188 35<32.1897 180 213 361.81> 330 38<9.46461 118.759 361.126 436.833> 346 35<285.266 424.414>
LayerCount: 2
Fore
SplineSet
368 58 m 0xa3
 368 34 366 8 340 8 c 0
 334 8 330 11 330 16 c 0
 330 26 333 36 333 46 c 0
 333 116 281 169 223 180 c 1
 223 136 223 92 223 48 c 0
 223 43 219 36 212 32 c 0
 201 25 188 26 188 36 c 2
 188 182 l 1
 168 180 150 174 136 165 c 0
 104 145 78 106 78 58 c 0
 78 47 81 38 81 30 c 0
 81 23 79 17 70 12 c 0
 60 6 48 6 46 14 c 0
 44 25 43 35 43 46 c 0xa7
 43 100 71 154 123 186 c 0
 128 189 132 191 137 193 c 1
 79 215 30 272 30 349 c 0
 30 373 36 398 48 423 c 0
 52 432 63 438 71 438 c 0
 78 438 84 432 80 424 c 0
 70 404 66 381 66 360 c 0
 66 283 123 224 188 213 c 1
 188 346 l 2
 188 351 192 358 199 362 c 0
 210 369 223 368 223 358 c 2
 223 212 l 1
 273 216 306 240 326 275 c 0
 339 296 346 322 346 349 c 0xaa80
 346 370 341 392 330 414 c 0xa3
 329 415 329 416 329 417 c 0
 329 426 344 438 355 438 c 0
 359 438 362 437 364 433 c 0
 376 409 381 384 381 360 c 0xa280
 381 285 331 223 275 199 c 1
 325 177 368 126 368 58 c 0xa3
EndSplineSet
Validated: 1
EndChar

StartChar: uniE108
Encoding: 57608 57608 254
Width: 325
VWidth: 1037
Flags: W
HStem: 22 30<38.0044 159.423> 151 30<38.0044 144.4> 391 31<38.0175 197.528>
VStem: 178 30<68.0354 124.734> 258 30<260.804 347.816>
LayerCount: 2
Fore
SplineSet
288 309 m 0
 288 230 220 184 156 165 c 1
 183 154 208 131 208 94 c 0
 208 22 123 22 52 22 c 0
 44 22 38 29 38 37 c 0
 38 45 44 52 52 52 c 2
 54 52 l 2
 97 52 152 52 170 74 c 0
 174 79 178 85 178 94 c 0
 178 104 174 112 170 118 c 0
 151 144 98 151 52 151 c 0
 44 151 38 158 38 166 c 0
 38 174 44 181 52 181 c 0
 123 181 192 202 228 240 c 0
 246 259 258 281 258 309 c 0
 258 326 252 338 244 348 c 0
 213 387 125 391 52 391 c 0
 43 391 38 399 38 407 c 0
 38 415 44 422 52 422 c 0
 97 422 147 420 188 411 c 0
 239 399 288 372 288 309 c 0
EndSplineSet
Validated: 1
EndChar

StartChar: uniE109
Encoding: 57609 57609 255
Width: 375
VWidth: 1022
Flags: W
HStem: 8 21G<67 72.5> 8 21G<67 72.5>
VStem: 60 35<53 433.81> 280 35<12.1897 177 209 433.81>
LayerCount: 2
Fore
SplineSet
291 434 m 0xb0
 302 441 315 439 315 429 c 2
 315 28 l 2
 315 23 311 16 304 12 c 0
 293 5 280 6 280 16 c 2
 280 177 l 1
 88 15 l 2
 83 10 75 8 70 8 c 0
 64 8 60 10 60 16 c 2
 60 418 l 2
 60 423 64 430 71 434 c 0
 82 441 95 439 95 429 c 2
 95 53 l 1
 280 209 l 1
 280 418 l 2
 280 423 284 430 291 434 c 0xb0
EndSplineSet
Validated: 1
EndChar

StartChar: uniE10A
Encoding: 57610 57610 256
Width: 332
VWidth: 1022
Flags: W
HStem: -55 29<109.145 198.518>
VStem: 37 35<4.89997 36.7634> 257 35<52.3122 436.81>
LayerCount: 2
Fore
SplineSet
268 437 m 0
 279 444 292 443 292 433 c 2
 292 160 l 2
 292 119 286 77 270 40 c 0
 251 -4 210 -55 140 -55 c 0
 91 -55 52 -23 37 18 c 0
 35 24 40 32 48 37 c 0
 58 43 70 42 72 35 c 0
 82 -1 121 -26 155 -26 c 0
 172 -26 185 -21 196 -14 c 0
 236 11 257 82 257 148 c 2
 257 421 l 2
 257 426 261 433 268 437 c 0
EndSplineSet
Validated: 1
EndChar

StartChar: uniE10B
Encoding: 57611 57611 257
Width: 329
VWidth: 1022
Flags: W
HStem: 418 20G<247 256.5> 418 20G<247 256.5>
VStem: 38 35<12.1897 179 260 433.81>
LayerCount: 2
Fore
SplineSet
230 429 m 2x60
 236 435 244 438 250 438 c 0
 263 438 265 427 256 418 c 2xa0
 78 228 l 1
 290 19 l 2
 292 17 293 15 293 13 c 0
 293 4 280 -7 269 -7 c 0
 266 -7 262 -6 260 -4 c 2
 73 179 l 1
 73 28 l 2
 73 23 69 16 62 12 c 0
 51 5 38 6 38 16 c 2
 38 418 l 2
 38 423 41 430 48 434 c 0
 59 441 73 439 73 429 c 2
 73 260 l 1
 230 429 l 2x60
EndSplineSet
Validated: 1
EndChar

StartChar: uniE10C
Encoding: 57612 57612 258
Width: 392
VWidth: 1022
Flags: W
HStem: 2 31<78.8573 136.707> 7 21G<343 351> 408 31<198 332>
VStem: 45 30<38.2262 94.3495> 148 31<43.7369 200.211> 332 30<7.0051 408>
LayerCount: 2
Fore
SplineSet
45 62 m 0xbc
 45 76 50 95 64 95 c 0
 74 95 82 84 78 73 c 0
 76 69 75 66 75 62 c 0
 75 46 89 33 107 33 c 0xbc
 127 33 148 51 148 79 c 2
 148 80 l 1
 168 424 l 2
 168 432 175 439 183 439 c 2
 347 439 l 2
 355 439 362 432 362 424 c 2
 362 22 l 2
 362 14 355 7 347 7 c 0x7c
 339 7 332 14 332 22 c 2
 332 408 l 1
 198 408 l 1
 179 79 l 1
 179 36 146 2 107 2 c 0
 70 2 45 31 45 62 c 0xbc
EndSplineSet
Validated: 1
EndChar

StartChar: uniE10D
Encoding: 57613 57613 259
Width: 495
VWidth: 1022
Flags: W
HStem: 3 30<87.3191 141.082 367.273 412.956> 142 27<367 404.481> 409 29<202 332>
VStem: 45 36<37.9454 91.247> 148 36<37.8799 194.4> 332 35<30.0066 142 169 409> 430 35<41.4052 120.922>
LayerCount: 2
Fore
SplineSet
184 85 m 1
 184 48 150 3 103 3 c 0
 73 3 45 24 45 56 c 0
 45 73 55 94 73 94 c 0
 79 94 84 90 84 85 c 0
 84 80 81 73 81 68 c 0
 81 46 98 33 115 33 c 0
 131 33 148 45 148 73 c 2
 148 74 l 1
 168 418 l 2
 169 427 181 438 193 438 c 2
 357 438 l 2
 363 438 367 435 367 429 c 2
 367 169 l 1
 376 171 385 171 393 170 c 0
 435 166 465 133 465 92 c 2
 465 84 l 1
 462 43 421 1 371 1 c 0
 359 1 332 3 332 17 c 2
 332 409 l 1
 202 409 l 1
 184 85 l 1
430 80 m 0
 430 113 401 139 375 142 c 1
 367 142 l 1
 367 33 l 1
 373 31 380 30 385 30 c 0
 395 30 402 33 408 36 c 0
 417 42 427 54 429 74 c 0
 429 76 430 78 430 80 c 0
EndSplineSet
Validated: 1
EndChar

StartChar: uniE10E
Encoding: 57614 57614 260
Width: 434
VWidth: 1022
Flags: W
HStem: 7 21G<71 79 355 363> 419 20G<72 77.5 356.5 362>
VStem: 60 31<7.02032 389> 343 31<7.02032 389>
LayerCount: 2
Fore
SplineSet
60 22 m 2
 60 424 l 2
 60 433 68 439 76 439 c 0
 79 439 83 438 86 435 c 2
 217 315 l 1
 348 435 l 2
 351 438 355 439 358 439 c 0
 366 439 374 433 374 424 c 2
 374 22 l 2
 374 14 367 7 359 7 c 0
 351 7 343 14 343 22 c 2
 343 389 l 1
 227 283 l 2
 221 278 213 278 207 283 c 2
 91 389 l 1
 91 22 l 2
 91 14 83 7 75 7 c 0
 67 7 60 14 60 22 c 2
EndSplineSet
Validated: 1
EndChar

StartChar: uniE10F
Encoding: 57615 57615 261
Width: 375
VWidth: 1037
Flags: W
HStem: 136 28<95 280>
VStem: 60 35<27.1897 136 164 400.81> 280 35<27.1897 136 164 400.81>
LayerCount: 2
Fore
SplineSet
304 27 m 0
 293 20 280 21 280 31 c 0
 280 66 280 101 280 136 c 1
 95 136 l 1
 95 105 95 74 95 43 c 0
 95 38 91 31 84 27 c 0
 73 20 60 21 60 31 c 2
 60 385 l 2
 60 390 64 397 71 401 c 0
 82 408 95 407 95 397 c 2
 95 164 l 1
 280 164 l 1
 280 385 l 2
 280 390 284 397 291 401 c 0
 302 408 315 407 315 397 c 2
 315 43 l 2
 315 38 311 31 304 27 c 0
EndSplineSet
Validated: 1
EndChar

StartChar: uniE110
Encoding: 57616 57616 262
Width: 456
VWidth: 1037
Flags: W
HStem: 136 28<95 280 315 346.559>
VStem: 60 35<27.1897 136 164 400.81> 280 35<48.8145 136 168 400.81> 361 35<53.6503 126.824>
LayerCount: 2
Fore
SplineSet
311 19 m 0
 301 19 280 20 280 31 c 0
 280 66 280 101 280 136 c 1
 95 136 l 1
 95 105 95 74 95 43 c 0
 95 38 91 31 84 27 c 0
 73 20 60 21 60 31 c 2
 60 385 l 2
 60 390 64 397 71 401 c 0
 82 408 95 407 95 397 c 2
 95 164 l 1
 280 164 l 1
 280 385 l 2
 280 390 284 397 291 401 c 0
 302 408 315 407 315 397 c 2
 315 168 l 1
 319 169 323 169 327 169 c 0
 367 169 396 138 396 100 c 0
 396 61 358 19 311 19 c 0
315 49 m 1
 328 46 338 48 344 52 c 0
 351 57 361 69 361 88 c 0
 361 112 341 139 315 139 c 1
 315 109 315 79 315 49 c 1
EndSplineSet
Validated: 1
EndChar

StartChar: uniE111
Encoding: 57617 57617 263
Width: 404
VWidth: 1037
Flags: W
HStem: 20 31<142.337 254.781> 402 30<151.776 264.255>
VStem: 30 31<141.21 294.925> 343 31<153.769 314.04>
LayerCount: 2
Fore
SplineSet
30 216 m 0
 30 327 103 432 206 432 c 0
 309 432 374 338 374 235 c 0
 374 210 370 185 362 160 c 0
 340 88 285 23 207 20 c 1
 200 20 l 2
 98 20 30 113 30 216 c 0
205 51 m 1
 283 54 343 139 343 235 c 0
 343 327 287 402 206 402 c 0
 124 402 61 311 61 216 c 0
 61 124 119 51 200 51 c 2
 205 51 l 1
EndSplineSet
Validated: 1
EndChar

StartChar: uniE112
Encoding: 57618 57618 264
Width: 411
VWidth: 1027
Flags: W
HStem: 398 29<95 316>
VStem: 60 35<17.1897 398> 316 35<17.1897 398>
LayerCount: 2
Fore
SplineSet
84 17 m 0
 73 10 60 11 60 21 c 2
 60 407 l 2
 60 416 73 427 85 427 c 2
 340 427 l 2
 346 427 351 424 351 418 c 2
 351 33 l 2
 351 28 347 21 340 17 c 0
 329 10 316 11 316 21 c 2
 316 398 l 1
 95 398 l 1
 95 33 l 2
 95 28 91 21 84 17 c 0
EndSplineSet
Validated: 1
EndChar

StartChar: uniE113
Encoding: 57619 57619 265
Width: 341
VWidth: 1037
Flags: W
HStem: 152 30<69 161.408> 391 31<69 190.371>
VStem: 38 31<22.0806 152 182 391> 258 30<247.79 340.386>
LayerCount: 2
Fore
SplineSet
69 182 m 1
 152 185 258 213 258 292 c 0
 258 381 159 389 69 391 c 1
 69 182 l 1
288 294 m 0
 288 194 169 156 69 152 c 1
 69 37 l 2
 69 29 60 22 52 22 c 0
 44 22 38 29 38 37 c 0
 38 160 38 284 38 407 c 0
 38 415 44 422 52 422 c 0
 159 422 273 407 288 312 c 0
 289 306 288 300 288 294 c 0
EndSplineSet
Validated: 1
EndChar

StartChar: uniE114
Encoding: 57620 57620 266
Width: 446
VWidth: 1037
Flags: W
HStem: 21 29<203.271 327.948> 387 29<179.07 287.671>
VStem: 60 35<156.502 300.939>
LayerCount: 2
Fore
SplineSet
376 301 m 0
 366 295 356 296 353 303 c 0
 333 355 282 387 232 387 c 0
 229 387 225 386 222 386 c 0
 172 382 143 357 121 323 c 0
 105 298 95 265 95 231 c 0
 95 213 98 195 104 177 c 0
 124 112 176 65 238 53 c 0
 248 51 259 50 269 50 c 0
 298 50 326 58 349 72 c 0
 353 75 357 78 361 81 c 0
 371 89 382 89 386 83 c 0
 389 78 386 70 379 64 c 0
 373 60 367 56 361 52 c 0
 328 31 291 21 255 21 c 0
 243 21 230 23 218 25 c 0
 133 42 60 118 60 219 c 0
 60 295 100 356 152 388 c 0
 177 403 205 413 234 415 c 0
 238 415 243 416 247 416 c 0
 311 416 368 377 387 320 c 0
 389 314 384 306 376 301 c 0
EndSplineSet
Validated: 1
EndChar

StartChar: uniE115
Encoding: 57621 57621 267
Width: 386
VWidth: 1022
Flags: W
HStem: 409 29<31.4918 175 211 354.508>
VStem: 175 36<12.1897 409>
LayerCount: 2
Fore
SplineSet
356 429 m 0
 356 420 343 409 331 409 c 2
 211 409 l 1
 211 28 l 2
 211 23 206 16 199 12 c 0
 188 5 175 6 175 16 c 2
 175 409 l 1
 40 409 l 2
 33 409 30 413 30 418 c 0
 30 427 43 438 55 438 c 2
 346 438 l 2
 353 438 356 434 356 429 c 0
EndSplineSet
Validated: 1
EndChar

StartChar: uniE116
Encoding: 57622 57622 268
Width: 403
VWidth: 1022
Flags: W
HStem: 209 29<164.647 285.764> 409 29<23.6975 104 139 240.303>
VStem: 104 35<12.1897 192.553 209 409> 324 35<12.1897 180.356>
LayerCount: 2
Fore
SplineSet
250 237 m 0
 300 233 359 212 359 157 c 2
 359 28 l 2
 359 23 355 16 348 12 c 0
 337 5 324 6 324 16 c 2
 324 145 l 2
 324 154 321 163 316 170 c 0
 302 193 269 206 234 208 c 0
 230 208 226 209 222 209 c 0
 197 209 173 203 160 195 c 0
 148 188 139 177 139 157 c 2
 139 28 l 2
 139 23 135 16 128 12 c 0
 117 5 104 6 104 16 c 0
 104 147 104 278 104 409 c 1
 32 409 l 2
 25 409 22 413 22 418 c 0
 22 427 37 438 48 438 c 0
 109 438 169 438 230 438 c 0
 237 438 242 434 242 429 c 0
 242 420 227 409 216 409 c 2
 139 409 l 1
 139 209 l 1
 142 211 145 213 148 215 c 0
 174 231 206 238 236 238 c 0
 241 238 245 237 250 237 c 0
EndSplineSet
Validated: 1
EndChar

StartChar: uniE117
Encoding: 57623 57623 269
Width: 346
VWidth: 1022
Flags: W
HStem: 8 21G<74.5 83> 8 21G<74.5 83> 418 20G<52.5 60 306 314.5> 418 20G<52.5 60 306 314.5>
VStem: 34 284
LayerCount: 2
Fore
SplineSet
34 413 m 2xa8
 33 414 33 416 33 418 c 0x98
 33 427 47 438 58 438 c 0
 62 438 65 437 67 434 c 2
 195 255 l 1
 286 424 l 2
 290 432 302 438 310 438 c 0
 319 438 322 431 318 423 c 2
 210 223 l 1
 210 222 l 1
 102 22 l 2
 98 14 87 8 79 8 c 0
 70 8 67 14 71 22 c 2
 175 217 l 1
 34 413 l 2xa8
EndSplineSet
Validated: 1
EndChar

StartChar: uniE118
Encoding: 57624 57624 270
Width: 406
VWidth: 1022
Flags: W
HStem: 78 29<221 293.61> 81 33<147.929 186> 332 33<221 259.071> 339 29<113.276 186>
VStem: 30 36<187.288 299.665> 186 35<12.1897 78 114 332 368 433.81> 341 35<147.211 257.895>
LayerCount: 2
Fore
SplineSet
30 236 m 0x4e
 30 318 105 368 184 368 c 2
 186 368 l 1x5e
 186 418 l 2
 186 423 190 430 197 434 c 0
 208 441 221 439 221 429 c 2
 221 365 l 1
 282 355 330 321 356 279 c 0
 369 258 376 235 376 210 c 0
 376 126 303 78 222 78 c 2
 221 78 l 1xae
 221 28 l 2
 221 23 216 16 209 12 c 0
 198 5 186 6 186 16 c 2
 186 81 l 1
 125 91 77 124 51 166 c 0
 38 187 30 211 30 236 c 0x4e
171 339 m 0
 109 339 66 308 66 247 c 0
 66 227 72 206 84 187 c 0
 105 154 142 126 186 114 c 1
 186 338 l 1
 181 338 176 339 171 339 c 0
221 332 m 1xae
 221 257 221 182 221 107 c 1
 226 107 231 107 236 107 c 0
 298 107 341 138 341 198 c 0
 341 218 335 240 323 259 c 0
 302 292 265 320 221 332 c 1xae
EndSplineSet
Validated: 1
EndChar

StartChar: uniE119
Encoding: 57625 57625 271
Width: 380
VWidth: 1022
Flags: W
HStem: 8 21G<50.5 59> 8 21G<50.5 59> 418 20G<284 292.5> 418 20G<284 292.5>
VStem: 47 288
LayerCount: 2
Fore
SplineSet
94 434 m 0xa8
 103 440 114 439 117 433 c 2
 193 293 l 1
 265 424 l 2
 270 432 280 438 288 438 c 0
 297 438 300 431 296 423 c 2
 210 263 l 1
 335 32 l 2
 338 26 334 18 325 12 c 0
 316 6 304 6 301 12 c 2
 187 222 l 1
 79 21 l 2
 74 13 63 8 55 8 c 0
 46 8 43 15 47 23 c 2
 171 252 l 1
 84 414 l 2
 81 420 85 428 94 434 c 0xa8
EndSplineSet
Validated: 1
EndChar

StartChar: uniE11A
Encoding: 57626 57626 272
Width: 369
VWidth: 1037
Flags: W
HStem: 23 28<80 225 260 295>
VStem: 45 35<51 412.81> 225 35<51 412.81>
LayerCount: 2
Fore
SplineSet
236 413 m 0
 247 420 260 419 260 409 c 2
 260 51 l 1
 321 51 l 2
 328 51 333 48 332 41 c 2
 314 -45 l 2
 312 -53 299 -64 289 -64 c 0
 282 -64 278 -60 279 -53 c 2
 295 23 l 1
 55 23 l 2
 49 23 45 25 45 31 c 2
 45 397 l 2
 45 402 49 409 56 413 c 0
 67 420 80 419 80 409 c 2
 80 51 l 1
 225 51 l 1
 225 397 l 2
 225 402 229 409 236 413 c 0
EndSplineSet
Validated: 1
EndChar

StartChar: uniE11B
Encoding: 57627 57627 273
Width: 345
VWidth: 1037
Flags: W
HStem: 173 29<139.732 239.155>
VStem: 45 35<256.713 416.81> 265 35<27.1897 202 219.695 416.81>
LayerCount: 2
Fore
SplineSet
194 202 m 2
 225 202 250 217 265 236 c 1
 265 291 265 346 265 401 c 0
 265 406 269 413 276 417 c 0
 287 424 300 423 300 413 c 2
 300 43 l 2
 300 38 296 31 289 27 c 0
 278 20 265 21 265 31 c 0
 265 88 265 145 265 202 c 1
 242 185 207 173 179 173 c 2
 178 173 l 2
 108 173 45 225 45 304 c 2
 45 401 l 2
 45 406 49 413 56 417 c 0
 67 424 80 423 80 413 c 2
 80 315 l 2
 80 248 137 202 193 202 c 2
 194 202 l 2
EndSplineSet
Validated: 1
EndChar

StartChar: uniE11C
Encoding: 57628 57628 274
Width: 375
VWidth: 1022
Flags: W
HStem: 8 28<95 170 205 280>
VStem: 60 35<36 401.81> 170 35<-73.8103 8> 280 35<36 433.81>
CounterMasks: 1 70
LayerCount: 2
Fore
SplineSet
71 402 m 0
 82 409 95 408 95 398 c 2
 95 36 l 1
 280 36 l 1
 280 418 l 2
 280 423 284 430 291 434 c 0
 302 441 315 439 315 429 c 2
 315 28 l 2
 315 19 302 8 290 8 c 2
 205 8 l 1
 205 -58 l 2
 205 -63 201 -70 194 -74 c 0
 183 -81 170 -80 170 -70 c 0
 170 -44 170 -18 170 8 c 1
 70 8 l 2
 64 8 60 10 60 16 c 2
 60 386 l 2
 60 391 64 398 71 402 c 0
EndSplineSet
Validated: 1
EndChar

StartChar: uniE11D
Encoding: 57629 57629 275
Width: 439
VWidth: 1022
Flags: W
HStem: 8 28<95 202 237 343>
VStem: 60 35<36 433.81> 202 35<36 433.81> 343 36<36 433.81>
LayerCount: 2
Fore
SplineSet
71 434 m 0
 82 441 95 439 95 429 c 2
 95 36 l 1
 202 36 l 1
 202 418 l 2
 202 423 206 430 213 434 c 0
 224 441 237 439 237 429 c 0
 237 298 237 167 237 36 c 1
 343 36 l 1
 343 418 l 2
 343 423 348 430 355 434 c 0
 366 441 379 439 379 429 c 2
 379 28 l 2
 379 19 366 8 354 8 c 2
 70 8 l 2
 64 8 60 10 60 16 c 2
 60 418 l 2
 60 423 64 430 71 434 c 0
EndSplineSet
Validated: 1
EndChar

StartChar: uniE120
Encoding: 57632 57632 276
Width: 375
VWidth: 1022
Flags: W
HStem: 424 28<139.305 221.065>
VStem: 60 35<12.1897 186 213 348.437> 280 35<26.1897 213 240 346.287>
LayerCount: 2
Fore
SplineSet
195 452 m 2
 295 452 315 332 315 235 c 2
 315 42 l 2
 315 37 311 30 304 26 c 0
 293 19 280 21 280 31 c 2
 280 213 l 1
 95 186 l 1
 95 28 l 2
 95 23 91 16 84 12 c 0
 73 5 60 6 60 16 c 2
 60 191 l 2
 60 292 70 396 135 436 c 0
 153 447 173 452 194 452 c 2
 195 452 l 2
95 213 m 1
 279 240 l 1
 277 294 269 347 247 382 c 0
 231 408 209 424 180 424 c 2
 179 424 l 2
 150 424 140 414 128 396 c 0
 101 355 95 280 95 213 c 1
EndSplineSet
Validated: 1
EndChar

StartChar: uniE121
Encoding: 57633 57633 277
Width: 363
VWidth: 1022
Flags: W
HStem: 8 29<80 184.293> 199 29<80 263.459> 409 29<80 288.766>
VStem: 45 35<37 194 223 409> 282 36<95.3793 183.667>
LayerCount: 2
Fore
SplineSet
80 37 m 1
 155 38 233 50 265 93 c 0
 275 106 282 122 282 145 c 0
 282 184 254 196 209 199 c 1
 186 199 l 2
 153 199 115 195 80 194 c 1
 80 37 l 1
199 228 m 0
 260 228 318 216 318 157 c 0
 318 97 273 55 227 37 c 0
 176 14 114 8 55 8 c 0
 50 8 45 10 45 16 c 2
 45 418 l 2
 45 428 58 438 70 438 c 2
 290 438 l 2
 297 438 299 435 299 431 c 0
 299 425 294 416 289 413 c 0
 284 410 279 409 275 409 c 2
 80 409 l 1
 80 223 l 1
 116 224 159 228 199 228 c 0
EndSplineSet
Validated: 1
EndChar

StartChar: uniE122
Encoding: 57634 57634 278
Width: 340
VWidth: 1037
Flags: W
HStem: 22 30<76 182.688> 208 30<76 123.605 157 240.333> 391 31<76 170.835>
VStem: 45 31<52 207 238 391> 185 30<297.72 376.641> 265 30<105.796 185.925>
LayerCount: 2
Fore
SplineSet
65 422 m 2
 133 422 215 421 215 351 c 0
 215 304 192 264 157 238 c 1
 223 237 295 225 295 150 c 0
 295 127 289 106 277 90 c 0
 239 36 148 22 60 22 c 0
 52 22 45 29 45 37 c 2
 45 407 l 2
 45 417 52 422 63 422 c 2
 65 422 l 2
76 207 m 1
 76 52 l 1
 147 54 223 67 252 108 c 0
 260 119 265 133 265 150 c 0
 265 198 220 208 144 208 c 0
 122 208 99 207 76 207 c 1
185 351 m 0
 185 390 126 391 82 391 c 0
 80 391 78 391 76 391 c 1
 76 238 l 1
 137 245 185 292 185 351 c 0
EndSplineSet
Validated: 1
EndChar

StartChar: uniE123
Encoding: 57635 57635 279
Width: 325
VWidth: 1037
Flags: W
HStem: 350 72<258 288> 391 31<69 258>
VStem: 38 31<22.0806 391> 258 30<350.046 391>
LayerCount: 2
Fore
SplineSet
52 22 m 0x70
 44 22 38 29 38 37 c 2
 38 407 l 2
 38 415 44 422 52 422 c 2x70
 272 422 l 2
 280 422 288 415 288 407 c 2
 288 365 l 2
 288 357 280 350 272 350 c 0xb0
 264 350 258 357 258 365 c 2
 258 391 l 1
 69 391 l 1
 69 273 69 155 69 37 c 0
 69 29 60 22 52 22 c 0x70
EndSplineSet
Validated: 1
EndChar

StartChar: uniE124
Encoding: 57636 57636 280
Width: 392
VWidth: 1022
Flags: W
HStem: 8 28<78 98 133 262 297 318> 409 29<133 262>
VStem: 58 35<-73.7642 -41.9> 98 35<36 409> 262 35<36 409>
LayerCount: 2
Fore
SplineSet
82 -74 m 0
 72 -80 60 -80 58 -72 c 2
 38 14 l 1
 38 16 l 2
 38 25 50 36 62 36 c 2
 98 36 l 1
 98 418 l 2
 98 427 110 438 122 438 c 2
 286 438 l 2
 292 438 297 435 297 429 c 0
 297 298 297 167 297 36 c 1
 346 36 l 2
 353 36 358 32 356 25 c 2
 336 -61 l 2
 335 -67 320 -79 312 -79 c 0
 305 -79 300 -75 302 -68 c 2
 318 8 l 1
 78 8 l 1
 93 -56 l 2
 94 -62 90 -69 82 -74 c 0
133 36 m 1
 262 36 l 1
 262 409 l 1
 133 409 l 1
 133 36 l 1
EndSplineSet
Validated: 1
EndChar

StartChar: uniE125
Encoding: 57637 57637 281
Width: 410
VWidth: 1037
Flags: W
HStem: 8 29<201.653 292.843> 225 29<162.176 273.931> 384 29<23.6975 104 139 338.567>
VStem: 104 35<27.1897 209 227 384> 330 35<72.5583 177.355>
LayerCount: 2
Fore
SplineSet
139 227 m 1
 163 243 193 254 224 254 c 0
 298 254 365 212 365 135 c 0
 365 95 345 53 304 28 c 0
 283 15 258 8 234 8 c 2
 232 8 l 2
 207 8 184 16 166 30 c 0
 164 31 163 34 163 36 c 0
 163 45 178 57 189 57 c 0
 192 57 194 57 196 55 c 0
 211 43 231 37 248 37 c 0
 265 37 279 42 290 49 c 0
 311 62 330 90 330 123 c 0
 330 187 273 225 212 225 c 0
 192 225 173 220 162 213 c 0
 150 205 139 194 139 172 c 0
 139 129 139 86 139 43 c 0
 139 38 135 31 128 27 c 0
 117 20 104 21 104 31 c 2
 104 384 l 1
 32 384 l 2
 25 384 22 388 22 393 c 0
 22 402 37 413 48 413 c 2
 330 413 l 2
 337 413 340 409 340 404 c 0
 340 395 328 384 316 384 c 2
 139 384 l 1
 139 227 l 1
EndSplineSet
Validated: 1
EndChar

StartChar: uniE126
Encoding: 57638 57638 282
Width: 375
VWidth: 1022
Flags: W
HStem: 8 28<95 313.194> 280 29<95 281.508> 409 29<95 313.508>
VStem: 60 35<36 280 309 409>
LayerCount: 2
Fore
SplineSet
315 28 m 0
 315 19 302 8 290 8 c 2
 70 8 l 2
 64 8 60 10 60 16 c 2
 60 418 l 2
 60 427 73 438 85 438 c 2
 305 438 l 2
 312 438 315 434 315 429 c 0
 315 420 302 409 290 409 c 2
 95 409 l 1
 95 309 l 1
 273 309 l 2
 280 309 283 305 283 300 c 0
 283 291 270 280 258 280 c 2
 95 280 l 1
 95 36 l 1
 305 36 l 2
 312 36 315 33 315 28 c 0
EndSplineSet
Validated: 1
EndChar

StartChar: uniE127
Encoding: 57639 57639 283
Width: 447
VWidth: 1022
Flags: W
HStem: 7 21G<72.5 79.5 353 361.5> 418 20G<367 376> 418 20G<367 376>
VStem: 30 36<56.7156 198.744> 64 36<382.476 433.764> 206 35<32.1897 285 318 433.81> 348 35<375.414 436.68> 382 35<53.0193 191.385>
LayerCount: 2
Fore
SplineSet
98 33 m 0xd5
 99 32 99 31 99 29 c 0
 99 20 85 7 74 7 c 0
 71 7 68 8 66 11 c 0
 42 44 30 82 30 119 c 0xd5
 30 206 86 273 153 300 c 1
 109 321 72 360 64 416 c 0
 63 422 68 429 76 434 c 0
 86 440 99 440 100 431 c 0
 110 371 152 328 206 318 c 1
 206 418 l 2xac
 206 423 210 430 217 434 c 0
 228 441 241 439 241 429 c 2
 241 316 l 1
 261 318 279 324 293 333 c 0
 320 350 342 379 348 419 c 0
 350 428 361 438 373 438 c 0
 379 438 383 435 383 430 c 0xce
 383 385 344 337 305 312 c 0
 301 310 297 308 293 306 c 1
 335 292 368 263 389 228 c 0
 407 199 417 166 417 131 c 0
 417 94 406 55 380 19 c 0
 375 12 365 8 358 8 c 0
 348 8 346 16 351 25 c 0
 372 53 382 86 382 119 c 0
 382 206 316 274 241 285 c 1
 241 206 241 127 241 48 c 0
 241 43 237 36 230 32 c 0
 219 25 206 26 206 36 c 2
 206 286 l 1
 147 282 110 252 86 210 c 0
 73 187 66 159 66 131 c 0
 66 98 76 64 98 33 c 0xd5
EndSplineSet
Validated: 1
EndChar

StartChar: uniE128
Encoding: 57640 57640 284
Width: 330
VWidth: 1037
Flags: W
HStem: 23 28<39.6769 176.662> 209 29<40.5807 123.577 146 225.423> 392 29<39.3184 159.112>
VStem: 178 35<292.115 376.191> 256 36<98.2311 186.403>
LayerCount: 2
Fore
SplineSet
146 238 m 1
 218 238 292 229 292 156 c 0
 292 79 218 44 156 32 c 0
 121 25 84 23 48 23 c 0
 41 23 38 26 38 31 c 0
 38 40 50 51 62 51 c 0
 138 51 222 61 248 109 c 0
 253 118 256 129 256 144 c 0
 256 204 194 209 130 209 c 0
 102 209 74 207 48 207 c 0
 41 207 38 211 38 216 c 0
 38 225 50 236 62 236 c 0
 87 236 109 243 126 254 c 0
 154 271 178 303 178 345 c 0
 178 390 117 392 66 392 c 0
 60 392 54 392 48 392 c 0
 41 392 38 396 38 401 c 0
 38 411 51 421 64 421 c 2
 68 421 l 2
 132 421 213 420 213 357 c 0
 213 310 188 267 146 238 c 1
EndSplineSet
Validated: 1
EndChar

StartChar: uniE129
Encoding: 57641 57641 285
Width: 375
VWidth: 1022
Flags: W
HStem: 8 21G<67 74> 8 21G<67 74>
VStem: 60 35<73 433.81> 280 35<12.1897 301 350 433.81>
LayerCount: 2
Fore
SplineSet
291 434 m 0xb0
 302 441 315 439 315 429 c 2
 315 28 l 2
 315 23 311 16 304 12 c 0
 293 5 280 6 280 16 c 0
 280 111 280 206 280 301 c 1
 93 20 l 2
 88 12 78 8 70 8 c 0
 64 8 60 10 60 16 c 2
 60 418 l 2
 60 423 64 430 71 434 c 0
 82 441 95 439 95 429 c 2
 95 73 l 1
 280 350 l 1
 280 418 l 2
 280 423 284 430 291 434 c 0xb0
EndSplineSet
Validated: 1
EndChar

StartChar: uniE12A
Encoding: 57642 57642 286
Width: 336
VWidth: 1022
Flags: W
HStem: -54 29<116.309 205.125>
VStem: 38 35<13.2324 95.2207> 260 36<50.8975 436.81>
LayerCount: 2
Fore
SplineSet
73 65 m 0
 73 12 117 -25 162 -25 c 0
 166 -25 168 -24 172 -24 c 0
 210 -18 225 1 240 38 c 0
 253 69 260 109 260 148 c 2
 260 421 l 2
 260 426 265 433 272 437 c 0
 283 444 296 443 296 433 c 2
 296 160 l 2
 296 76 271 1 214 -35 c 0
 194 -47 175 -54 146 -54 c 0
 86 -54 38 -9 38 53 c 0
 38 76 42 97 66 97 c 0
 72 97 76 93 76 88 c 0
 76 80 73 73 73 65 c 0
EndSplineSet
Validated: 1
EndChar

StartChar: uniE12B
Encoding: 57643 57643 287
Width: 328
VWidth: 1037
Flags: W
HStem: 8 21G<266.5 273.5> 8 21G<266.5 273.5>
VStem: 38 35<27.1897 133 210 416.81>
LayerCount: 2
Fore
SplineSet
230 410 m 2xa0
 235 417 243 421 250 421 c 0
 262 421 263 412 256 403 c 2
 78 173 l 1
 288 35 l 2
 291 33 293 30 293 27 c 0
 293 18 279 8 268 8 c 0
 265 8 262 9 260 10 c 2
 73 133 l 1
 73 103 73 73 73 43 c 0
 73 38 69 31 62 27 c 0
 51 20 38 21 38 31 c 2
 38 401 l 2
 38 406 41 413 48 417 c 0
 59 424 73 423 73 413 c 2
 73 210 l 1
 230 410 l 2xa0
EndSplineSet
Validated: 1
EndChar

